<svg xmlns="http://www.w3.org/2000/svg" width="702.043" height="527.868" viewBox="0 0 185.749 139.665"><path fill="currentColor" d="M34.448 139.654c.126-.158.255.06 0 0zm109.1-1.326c-1.2-.026-3.4-1.2-1.136-1.704 1.63-.77-.1-2.67-.852-2.817-.815 1.477-1.6-1.006-1.988-1.746-.476-.545-1.147.976-1.49-.337-.33-1.424-1.358-2.732-1.325-4.166-.877.453-2.88 1.476-2.296-.544.072-1.6-1.166-3.287-.236-4.77-.548-.954-2.275.473-2.32-1.172-.922-3.5-4.593-5.412-5.8-8.83-.26-1.56-2.06-2.997-1.266-4.5 1.3-.588.33-.84-.547-1.076-1.505-1.77-.186-4.5-1.405-6.533-1.185-3.43-1.174-7.323-3.217-10.463-.423-1.066-.036-3.213-1.746-2.604-1.67-.795-2.718-2.53-4.62-2.84-.523-2.81-.873-5.75-2.437-8.238 1.366-.597 2.887 1.253 4.322 1.562 1.73 1.342 3.243 3.12 5.59 3.22 1.375.506 2.36 3.18.478 3.585 2.232.305 3.725 1.927 5.302 3.27 1.788 2.836 3.958 5.514 4.59 8.887 1.073 2.778 1.678 6.163-.32 8.686 2.496.514 3.538 3.1 5.076 4.783 1.206 2.602 2.447 5.247 2.863 8.12.713 1.386.102 2.91-1.6 2.65-1.635.728 1.202 1.44 1.99 1.964.672.652 2.976.795 2.154 1.917-1.792 1.507 3.31.49 1.728 2.594-1.047.962-.468 1.8.852 1.832 1.248.096.588 1.05.33 1.67 1.337.442 3.803 1.994 4.07-.464.16-1.055.79-3.658 1.846-1.614.56 1.428 1.206 3.035.946 4.526-.353 2.058-2.613 1.424-4.108 1.69.158 1.348.243 3.195-1.573 3.303-.61.077-1.237.22-1.85.17zm1.883-2.117c.832-1.05-.47-2.546-.13-3.138 1.196.697 4.06.188 3.527-.923-1.197 2.355-3.506-.784-5.184.26.056 1.472 2.13 2.204 1.646 3.86l.142-.058zm-3.445-4.18c.875-.828.9-2.825-.9-1.823-.607.616 1.328.7.7 1.8.028.156.15-.03.2.024zm-2.047-3.538c.868-.74.455-2.07-.723-1.22.148.302.333 1.608.723 1.22zm-2.995-3.208c.665-.547 2.347-1.013.615-1.373-1.032-.926-1.72 2.435-.615 1.373zm-2.627-5.373c.74-.294 2.598-1.136.78-.923-.356.04-1.785.74-.78.923zm.157-3.42c-2.316-2.085-3.224-5.06-4.706-7.66-.81.427.288 2.157.62 3.054.78 1.96 2.162 3.74 4.086 4.605zm.837-1.527c-.162-1.668-1.828-3.195-2.51-4.848-1.38-1.748-1.055 1.324-.284 1.99.637 1.186 1.563 2.3 2.793 2.86zm.52-1.988c-.078-2.327-1.75-4.547-3.45-6.084-.644-.662-3.045-.538-1.994.402 2.986.1 4.217 3.513 5.444 5.68zm-5.397-11.575c-.146-4.08-1.3-8.267-4.117-11.362-.793-1.23-2.23-2.145-1.042-.64 2 2.627 3.165 5.762 4.283 8.83.35.91.255 2.89.876 3.17zm-3.03-.686c1.476-1.203-.12-3.366-.615-4.876-.318-1.22-2.178-3.185-1.444-.78.464 1.91.678 4.27 2.06 5.658zm-10.13-15.67c.253-.994.817-2.11 2.048-1.965 1.136-1.28-2.226-.877-2.143.397-.21.437-.535 1.46.095 1.568zm-1.053-2.97c.644-1.325-1.455-2.638-2.535-2.866.004 1.253 2.018 1.886 2.37 2.972l.166-.106zm-22.476 53.98c-2.763-.174-4.598-2.725-6.178-4.687-.897-1.197-.765-2.804-1.595-3.764-1.668-1.003-3.597-2.897-4-4.308.075-.434-.752-1.05-.573-1.107-.116-.996-.5-1.36-.562-1.9-.425-1.473-.29-3.436-.508-5.078-3.04-2.37-3.975-6.476-4.13-10.166.347-1.75 1.11-3.484.07-5.16-1.353-2.854-.58-6.144.33-8.995-1.91-4.08-2.033-9.22.876-12.872.452-1.498-.206-3.32.78-4.74.685-2.816 2.864-5.314 3.29-8.096-.542 1.163-.415-.077-.39-.607-.564 1.403-.662.456-.32-.458-1.19 1.287.368-.88.142-1.113-.612 1.057-1.824 1.765-.876.213.877-1.368-.004-.476-.754-.047-.607-.45 1.615-1.813.12-1.373-.605.487-1.808.844-2.135.568.426-.577 1.757-1.72 1.525-2.13-.614.58-1.595.82-.413-.095 1.017-.505 2.27-1.446 2.9-2.356-1.305.055-2.296 2.11-3.398 1.978.704-1.332-1.924.868-.805-.497 1.28-1.055 3.067-1.8 3.896-3.21-1.615.462-2.59 2.23-4.085 2.854.24-.67.6-1.7-.355-.805-1.576 1.65-3.787 2.567-5.54 4.07-4.092 1.276-8.464 3.17-12.76 1.728-4.342 2.17-9.403 1.416-14.008 1.112-4.62-.16-8.757-2.53-12.457-5.09-1.983-2.246-5.26-3.1-6.746-5.728-.69-2.034 2.825-1.694 2.746.017 2.918 2.804 7.513 1.162 11.007.598 2.693-1.344 5.31-2.95 8.333-3.456.877-.285 2.424-.934.852-1.6-.464-.81 1.9-.713 2.604-.9 4.288-.313 8.517 1.177 12.782.994 4.23.51 8.602.95 12.853.686.738-.666 2.44-.11 2.864-.78-1.263-.01-2.357.59-3.125-.52-3.767-.947-7.702-1.46-11.552-1.23-4.26-.258-8.6.337-12.877.166-4 .257-8.095 1.032-11.74 2.32-3.822.635-7.648 2.737-11.623 2.178-4.043-.64-8.098-2.454-10.89-5.515-1.22-2.174-3.945-2.934-5.254-4.995-1.417-1.402-3.1-2.934-3.126-4.965-1.578-.932-3.246-1.778-4.398-3.32C2.622 31.376-.61 28.932.1 25.393c1.714-3.264 5.387-4.56 8.664-5.634 4.58-1.05 9.406-.6 14.013.024 3.767 1.516 7.852 2.04 11.53 3.834 2.752 1.48 5.794 2.248 8.57 3.692 5.435 2.508 11.196 4.28 16.67 6.746 3.05 1.126 5.732 3.002 8.66 4.355 3.193 1.097 6.404 2.02 9.47 3.432 1.81.05-.37-2.416-1.633-2.485-1.917-.097-3.29-2.164-2.817-3.967-2.858-.4-4.258-3.227-5.302-5.59-.534-1-3.025-.827-1.657-2.32 1.157-.953 1.016-2.035-.426-2.49-.88-.832-2.3.702-2.7-.215-.536-1.394.593-2.5.994-3.633-.702-.18-1.75-.434-.947-1.3-1.168-.182-2.347-.51-1.42-1.952.006-1.558-2.57-.718-2.556.686-.48 1.703-1.47-.448-1.704-1.207-.324-1.766.732-4.288 2.948-3.645.366-.87.55-2.596 2.023-2.675 1.268-.064 3.044.41 3.563 1.504-1.48-.194-2.774 1.44-2.048 2.7.754-.437 2.156-1.05 1.728.64-.1 1.417 1.053.823 1.865.852.135.873-.282 3.74 1.26 2.32 1.15-1.045 2.544-.098 1.42 1.184-.197 1.65 1.31 2.734.734 4.51.824.243 2.55-1.456 2.344.484-.264 2.035 2.2 2.932 2.77 4.782 1.21 1.24.36 3.378 1.514 4.403 1.27.138 1.963 1.487 3.138 1.765-.06-.717.968.054.84-.89.768.118.44-.94 1.328-.355.612.026 1.636.747.52-.07.29-.52-.06-1.373-.19-2.053-1.378-1.458-3.983-1.142-4.853-3.367-1.252-2.892-.98-7.245 2.39-8.522.95-.45 2.345.057 2.746-1.196.813-1.588 3.596-.842 4.224-1.384-2.004-1.04-4.342-.907-6.496-.45-1.548.113.033-1.873-1.338-1.917-1.257-.5.19-2.288-1.49-1.94-.606-.814-.414-1.743-1.62-1.895-.224-1.16-.37-1.647-1.562-1.916-.13-1.486-2.548-.522-2.272-2.38-.84-.267-1.894-.136-1.988-1.397-1.108-.43-2.572-.007-2.746-1.786-.742-.807-2.24.927-2.746-.734-.395-1.485-2.114.52-1.99-.828.618-.91-.074-1.63-.237-2.31.823-1.078 2.506.653 3.446-.484.797.31-.546 1.795 1.052 1.018 1.614-.234.19 2.835 2.036 1.444.904-.262 1.654.073 1.62 1.07 1.35-.843 2.928.44 2.357 1.878.692.215 2.04-.667 2.39.697-.76 1.8 2.806.586 1.704 2.462-.634 1.94 2.025-.458 2.083 1.42-.24 1.137.05 1.78 1.184 1.704.23.774-.457 2.072.912 1.562.343 1.168 1.188 1.284 2.283.78 2.294-.855 4.678-.05 6.244 1.775 1.495.59 3.334.26 4.848.805 2.068-2.203 5.576-3.97 8.555-2.746.832.7 1.37-1.034 2.38-.38.055-.94.336-1.965 1.502-1.894-.058-1.18.665-1.44 1.49-1.633-.21-1.245.653-2.344 1.883-2.307-.668-1.958 2.052-1.074 2.046-2.702.74-.742 2.464-.057 2.32-1.78.74-.487 2.203.044 2.012-1.473.83-.367 2.157-.58 1.657-1.846.71-.69 1.805.863 2.65-.142 1.885.8-1.03 2.078.167 3.36-.152 1.003-2.075-.863-1.634.663.093 1.487-1.524.8-2.272.947.542 1.293-.625 2.02-1.79 1.8-.172.98-.16 1.75-1.5 1.8-.017 1.252-.9.985-1.563 1.397.59 1.71-1.316 1.785-2.225 1.94.536 1.197-.17 1.63-1.326 1.544.143.98.09 2.38-1.457 1.746-.206.872-.676 2.64-2 1.42-.7 2.013-3.058.235-4.545.78-1.178-.084-3.688 1.217-1.278 1.373 1.734.1 2.963 1.937 4.687 1.35 3.222-.038 5.585 3.413 4.852 6.415.103 2.36-1.164 4.92-3.664 5.397-1.753.207-2.7 1.568-3.296 3.03-.854.165-2.304 2.37-.828.858 1.44-1.73.37.4.852.04 1.02-.416 1.17.38 2.06.38-.85 1.238 1.464-.05 1.527-.615.96-1.35 2.54-2.283 3.893-2.828-.463-2.37 1.896-4.186 3.077-6.025 1.204-.805 1-2.36 1.136-3.432.706-.095 2.222 1.285 1.823-.308.092-1.215.856-2.725-.64-3.503.27-2.015 4.407.68 4.047-2.107.054-.976.283-1.712 1.338-1.194.514-1.216.75-2.376 2.082-1.267.9-.845 1.446-2.844-.297-3.03-.848.233-2.662.843-1.823-.73 1.106-1.604 4.09-2.314 5.433-.55 1.133.698.067 2.502 1.805 2.178 2.186.88 3.076 3.568 1.473 5.364-.96 1.72-.89-.777-.9-1.647-.716-1.405-3.218.077-3.23.923.414.76-2.458.79-.936 1.894-1.08.118-3.4 1.334-1.468 1.823 1.3.603 1.85 1.872-.047 1.846-1.313.802-2.25 2.615-3.3 3.314.805 1.106 1.984 2.52-.213 2.25-1.732 1.164-1.2 3.863-3.32 4.853-.946.582-1.38 1.905-2.682 1.657-.23.867 1.138 1.745-.2 2.504-2.114 1.11-5.397 1.32-6.297 3.768 1.143-.593-.312.55.758.07.316.473-1.2.923.166.568 2.307-1.16 4.5-2.594 6.984-3.385 3.05-1.2 6.097-2.296 9.043-3.787 5.46-2.618 10.98-5.118 16.36-7.93 3.826-.977 7.142-3.188 11.008-3.953 5.327-1.67 10.634-3.6 16.3-3.716 4.9-.66 10.086-.01 14.482 2.32 1.597 1.527 3.894 3.306 2.94 5.8.112 3.244-2.753 5.28-4.023 8.013-1.31.874-2.848 1.514-3.077 3.267-1.9 2.174-3.923 4.402-6.486 5.762-1.316.016-2.205.775-2.604 1.963-2.63 2.122-5.576 4.3-9.043 4.523-4.634.668-9.36-.253-13.942-.994-4.892-1.6-9.95-2.56-15.055-3.077-6.598-.548-13.354-.263-19.79.9-1.252.548-.507 2.438-2.32 1.54-.278.66 1.97-.12 2.14.994 4.574.642 8.956-1.618 13.53-1.752 3-.212 6.058-.934 9.066-1.136 3.178.664 6.393 1.472 9.256 3.03 3.77 1.908 7.976 2.474 12.144 2.604 2.62.1 5.517 1.025 8 .308 1.575-.976-1.108-3.118 1.09-3.41 2.026-.715 2 2.522 1.184 3.716-.902 3.14-4.158 4.7-6.7 6.39-2.8 1.022-4.912 3.148-7.34 4.758-2.138.888-4.582-.146-6.628 1.112-3.727.905-7.57-.757-11.22.118-4.38.58-8.97-.002-13.043-1.728-1.185-1.057-2.514-1.73-4.143-1.112-2.65-.155-4.886-1.808-7.068-3.02 1.03 1.044-.1 1.005-.53.203-1.752-1.572.162.672.828 1.053-1.004-.533-1.144.14-.19.864.06.678-2.254-.11-.805.805 1.44 1.066-.24.38-.876.024-.117.78.58 1.14-.923.23-1.118-.456.793.735.804 1.236 2.276 1.15.497 2.04-.473.83-.09.37.322 1.795-.51.876-.922-.576.543 1.206.747 1.657 2.035 2.254 2.627 5.38 2.958 8.214 2.274 3.512 2.668 8.083 2.082 12.025-.294 1.95 1.24 3.883.804 5.965.66 2.447-.607 4.68-2.035 6.58.548 1.94 1.052 4.144.497 6.25-.22 1.98-.587 4.256-1.703 6.01-.935.725-2.154 1.603-1.35 2.89.494 3.006-.486 6.108-2.485 8.072-.773 1.566-3.14 1.586-3.124 3.574-.808 3.425-2.968 7.076-6.627 8.07-.903.308-1.876.38-2.8.45zm-1.928-2.638c-1.01-1.788.05.28.768-.108.444-.292.598-1.073.805-.876.24 1.284 1.096.09 1.6.568.81-.96 1.155.54 2.036-.142.82-.518 1.516 1.203 2.21-.196.592-1.138 2.7-2.717 1.62-3.78.012 1.58-.95-.75-1.384-.036-.55-.092-1.058-.562-1.657.4-.325.395-.634-1.18-.994-.047-.936-.058-2.13-.584-2.51.715-.332-.872-.66-.62-.78-.142-.453-1.242-.525 1.395-1.265-.047-.615.94-.588-1.002-1.054.024-.87-.363-1.374-.59-.757.473-.37 1.58-1.3-2.374-1.16-.213.06 1.063 1.12 2.846 2.52 3.4zm.656-.498c-.467-.618.07-.233 0 0zm6.006.022c.14-.222.09.036 0 0zm-4.545-.152c-.096-.624.112.355 0 0zm4.876-.213c.27-.366.007.247 0 0zm-.38-.45c-.107-.82.08.163.516-.4-.104.152-.306.638-.516.4zm-7.143-1.006c-.11-.438.275.182 0 0zm8.705-.215c.496-.67.254-.1 0 0zm-8.847-.353c-.7-.883.5-.505 0 0zm10.315-1.764c-.057-.165-.057.165 0 0zm-8.095-.876c2.544-.235 5.353-.413 7.67-1.55-1.477-.64-3.527.246-5.208.534-1.177.664-3.432.044-4.026.854.5.02 1.095.035 1.564.164zm-7.87-3.655c.442-.7-1.032-2.904.27-1.742.632.93.884 1.122.97.024-.228-.933.984.654 1.633.795.677.423.48-2.362 1.04-.71.867.395-.312-3.057.474-1.173-.1.945 1.222 1.203.487.33.366-1.435.526 1.648 1.028.615.827-.175.62 1.045 1.136.725-.17-.61 1.184-.593.98.118.358-.512.566-1.363.652-1.457.3.573.63-.257.9.663-.27-1.468.9-.062.663-2.012.06-.956.663 3.428.946 1.123-.293-1.014.612.15.805-.446.202 1.198.8 1.207.852-.074.53-.39.53 2.5.876.653.04-1.88.31.466.426-.38.298-.832.173 1.7.497.095.142-.31.907 1.348.923-.426.658-.96.16 1.55 1.018.166.572-1.387.304.357.686.308 1.565-1.337.337-.01-.118.465.867.37 2.756-2.577 1.68-.75-1.325.52-.404 1.776.492.9 1.628-.792 2.194-3.036 2.324-4.758-.133-2.2-1.063 1.745-.923-.26-.544-1.354-.87 2.458-.852 1.184.49-2.943-.627-.302-1.35-1.818-.428.122-.736.667-.947.03-.61.745-1.785-.82-2.06.416-.515-1.15-.873-.98-.568.284-.42 1.588-1.47-2.62-1.278-.663.35.966.03 1.93-.355.578-.456-1.115-1.266-.48-1.197.322-.942 0-1.543-1.57-1.278.284-.573-1.44-1.005-.25-1.028.663-.296-.743-.2-2.085-.894-1.136-.65-.465-.63 1.583-.904.118-.37-2.117-.367 1.032-.615 1.16-.612-.453-.36-2.69-.994-.947.063 1.38.134 1.783-.355.544-.698-.717-.625.13-.923-.213-.95-1.3.446 1.68-.474.332-.05-.856-.534-1.343-.7-.284-.42-.488-.483-2.473-.72-.994.276 1.186-.22 1.992-.64.615-.028-.92-1.545-.001-1.278.142-.902-.67-.6 2.327-.615.573-.286-.99-.174.097-.828-.147-.226.87-1.503-1.738-1.16.142-.067 2.306.01-.276-.568-.663.005 1.515-.44-1.1-.734.7-.306.82-.78 1.147-.5 2.13-.14.726.84 2.87 1.385 2.567-.68-.776-.847-2.93-.237-1.052.25 1.093 1.343 1.374 1.75 2.344l.203-.01zm-.96-1.315c-.755-.35-.776-2.092-.237-.663.04.207.35.542.237.663zm3.55-.213c-.406-.674.228-.528 0 0zm4.64-.355c-1.38-1.25 1.08-.36 0 0zm-6.764-.13c-.368-.582-.234-2.11-.313-2.213.094.7.434 1.597.313 2.213zm7.734-.106c.055-.246.055.246 0 0zm-2.172-.106c-.278-.437.196-.238 0 0zm-4.243-.51c-.324-1.138.066-.37 0 0zm5.397-.308c-.373-.832-.277-2.017-.047-.497-.004.093.17.586.047.497zm12.2.03c.98-1.5.99-.503 0 0zm-7.29-.502c.054-.33.054.33 0 0zm-7.55-.047c-.162-.5.148-.038 0 0zM97 120.22c-.326-1.566.38.18 0 0zm2.793.08c.08-.165.17.07 0 0zm-11.717-.105c.06-.085.06.085 0 0zm-5.444-.876c.054-.33.054.33 0 0zm4.574.06c-.5-.76-.62-1.52-.077-.343.01.09.24.312.077.343zm5.557-.154c.057-.165.057.165 0 0zm1.255-.095c-.373-.694.14-.155 0 0zm11.173-.047c.057-.165.057.165 0 0zM96.063 119c-.36-1.696.184-.404 0 0zm-10.977.012c-.03-.634.324-.192 0 0zm10.173-.154c-.38-.728.374.064 0 0zm1.468-.18c-.76-.305-.268-1.02 0 0zm-2.604-.176c-.782-.166.308-.45 0 0zm3.41 0c-.55-.337.568-.866 0 0zm8.427-.07c.057-.165.057.165 0 0zm.047-.118c.06-.085.06.085 0 0zm-7.29-.33c.06-.085.06.085 0 0zm-12.096-1.255c-.114-.33-.114.33 0 0zm3.693-1.09c3.834-.416 7.9-.11 11.622-.852.878-.436 3.267-.384 3.196-1.112-4.794.576-9.606 1.3-14.4 1.656-2.68-.127-.71.31-.428.308zm-1.23-.095c-.47-.44-.938.105 0 0zm17.16-2.083c-.06-.085-.06.085 0 0zm-14.794-.757c.336-.762.05-3.29.9-2.272.07 1.2.856.873 1.434 1.444.768-.762-.02-3.61.46-1.326.206.806 1.292.014 1.35-.663.16-.623.405 2.2.7.497.215-1.08.846-.75.213.118.122 1.833.852-1.973.876-.12.03 1.324.63-.405.805.213.24-.447.336 1.284.97.947-.178-.884 1.108-2.94.592-.994-.2.856 1.267-1.855.947-.237-.31.658 1.57-1.047 1.065.473.2.375 1-2.115.876-.403-.474.906-.075 1.18.26.166.317-1.093.28-.314.686.095.17-1.146.54-1.16 1.278-1.49-.365.778-.335 1.65.19.526.44-1.198.39-.783.7.048.337-.495 1-3.05.65-1.308-.25.61-.66 2.238.07.958.414-.496 1.017-2.4.568-.816-.373 2 .905.255 1.16-.758-.08.643-.863 2.25.07 1.316.576.33 1.847-1.605.9-.048 1.143-.336 1.035-2.27 1.267-3.28.228-1.218-.58-2.08-.426-.615.178.505-.838-.932-.45.497.09 1.73-.316-.01-.51-.773.12 1.87-.807-.96-.84.607-.304 1.386-.173-.412-.473.142-.077.375-1.33-1.6-1.254-.118-.695.454.03-.58-.686-1.035-.866-1.286-1.9 1.02-2.083.585-.616-.11-1.335-.432-.852.7-.526.733-.472-1.955-1.302-.534.13 1.27-.483-.806-.9.142-.177-.714-.77-.43-1.183-.615.127 1.458-1.853.544-1.646 1.8-.55-1.418-1.16.877-1.55-.5-.46.283-.8 1.747-1.1-.01-.482.16-.56 1.828-.865.33-.178-.984-.803 1.258-1.042-.142-.41.216-.61-.085-1.04.32-.433-1.316-1.254 1.358-1.515-.216-.56.04-.82 1.625-.734-.294-.802-.414-.92.583-1.065 1.302-.068-.8-.89-2.382-.994-.602-.26.036.31-1.088-.734-.368-.153-1.042-.574-.554-.78.426-.253-.518-.77-1.95-1.61-.795-.052 1.388-.355-1.243-.804.18-.52.444-.34-1.232-.852-.048-.43.633-.572 1.36-.605 2.13-.73-.655.782-2.66-.058-2.438-.557 1.466-.09-.71-.83.118-.38 1.123-.443 1.292-.923.52-.376-1.34-1.565 1.277-1.49.38.35-.67.136-1.532-.32-.52-.323 1.36-1.212-.906-.745 1.94.04 1.32.977 1.332 1.693 1.836.16-.087.59 1 .732.01.5-.012 1.595 1.697 1.883.294.148-.74-.105-1.56.248-.304.6.655.302.8 1.044.734-.294-.792-.547-2.797-.013-.984.14 1.045 1.325 1.837.78.308-.33-1.72.167.97.615.7.1-.508.86-.212.52-.994.033.872 1.633 2.234 1.207.7.07-.886.7 1.878.923.19.124-1.677 1.323 2.353 1.04 0-.39-1.43.91 1.723.795-.047.294.754.452.765.98.7.76.163.29 1.136.806 1.255zm2.154-1.244c.283-.588.044.35 0 0zm-.142-.603c-.043-2.21.714-1.124.042.118l-.042-.118zm-.734-.308c-.258-2.01.188-.033 0 0zm-2.195-.035c-.32-.59.1-.33 0 0zm-8.97-.356c-.214-.43.3-.023 0 0zm15.972-.295c.17-.98.317-.66.024.118zm-17.635-.07c-.506-.914-.008-1.17 0 0zm14.558-.095c-.177-1.497.15.038 0 0zm-13.77.06c-.31-.428.217-.245 0 0zm7.498-.012c-.353-.607-.5-1.975-.024-.663-.03.098.144.744.024.663zm8.687-.402c.055-.246.055.246 0 0zm-8.024-.19c.243-.156.054-.102 0 0zm15.173.142c.06-.085.06.085 0 0zm-25.304-.38c.06-.085.06.085 0 0zm4.835-.083c-.68-1.347.47-.577 0 0zm-4.882-.06c-.238-.8.228-.006 0 0zm29.944-.544c.185-.59.46-.02 0 0zm-29.186-.095c-.075-.43.09.34 0 0zm9.214-.13c-.35-1.255.436.163 0 0zm-7.7-.19c.148-.686.097.5 0 0zm-.52-.128c-.154-.588.133.056 0 0zm6.533-.33c.06-.085.06.085 0 0zm20.428-.047c.08-.343.178-.03 0 0zM83.4 107.2c.24-1.563.703.026 0 0zm-1.675-.012c-.058-.594.18-.128 0 0zm5.273-.154c.052-.668.052.668 0 0zm-8.143-.142c.232-1.508.094.443 0 0zm14.794.047c.057-.165.057.165 0 0zm15.15-.26c.23-1.438.34-.103 0 0zm-19.15-.07c-.177-.706.172-.083 0 0zm20.428-.19c.18-.22-.017.298 0 0zm-.095-.26c.053-.414.053.414 0 0zm-2.13-.994c-.14-1.377-.335-.082 0 0zm-15.504-1.373c5.036-.315 10.4-.05 15.15-2 1.417-.83-1.385.13-1.917.047-4.73.255-10 1.594-14.273 1.916.352-.044.692.064 1.04.048zm-1.373-.047c.03-.28-3.26-.12-.852-.024.29-.193.57.136.852.024zm2.77-2.51c.506-.875.457-.71 1.075-.984.6.2 1.355-.95.64.014.186.863.998-1.336.947.226.8.364 1.143-1.416 1.825-.273.726-1.717.51-.183 1.123-.52.113-.388.554.786.876-.415.284-.013.27 1.317.886.084-.193 1.72 1.548-1.547 1.623.213.674-.41 1.262-1.098 2-.437.092-.47.9-1.575.798-.693-.65 1.27.665.202.61-.663.44-.544-.69 1.626.284.907.765.796 1.554-1.982 1.326-.344.406.818 1.586-.7 1.68-.828-.63.716-.264 1.52.166.38.656-.764 1.756.306 2.225-1.184.366-1.096.53-3.114-.557-3.635.11.495.176 2.964-.105 1.59.128-1.094-.764-1.438-1.504-1.873-.226.63-.765 2.976-.768 1.078-.507-2.042-.418 1.163-.497 1.09-.17-.615-.7-2.14-.923-1.278-.46.035.173 1.106-.402.568-.322-.787-1.065-1.38-.686-.095.072 1.654-.405-.19-.64-.047.34 1.404-.744-1.822-.473.142-.417.76-.902-.986-.876.497-.802-.48-2.393-.55-2.688.534-.077-.79-.762-.65-1.173-.365-.78-.76-.496 2.068-1.04.423-.638-.99-.116 1.71-.78-.095-.716-.194-.296 1.042-.947.39-.16.182-.366-1.22-.876-.342.005 1.14-.448-.772-.97-.426-.038 1.038-.69.865-.734 1.94.15-1.575-.622-1.03-1.065-.734-.26-1.913-.73.87-.757 1.515-.204 1.51.02-2.908-.7-1.728-.116 2.51-.45 1.83-.402-.405-.002 1.003-.848-.228-.757.168.337.923.194 1.554-.095.26-.607.118-1.47.11-1.538 1.49-.592 1.15.675-1.973-.592-1.326-.366-.183-.54 1.134-.45-.142.007-1.04-1.708 1.193-1.042-.33.276-.652-.923.2-1.172.58.254-1.985-1.686-.495-1.69.627-.548.328 1.042-2.115-.12-1.16-.47-.408-1.046 2.265-.805.38.563-.988.146-1.506-.78-.657-.545 1.34.413-1.696-.64-.147-.296-.008-.797-.745-1.136.284.3-.81.3-1.817-.213-.568-.39.662-.777 2-.355.568-.034-.698.9-1.99-.024-.805-.645-.304-.875 1.877-.615.142.352-1.65-1.376.432-1.61.923-.062-.66.965-2.73-.095-1.42-.39 1.14-.153.28-.568-.308-1.325.953-1.702 4.267-.283 4.876.178-1.044.697 1.46.947.07.315-1.26.274-.71.65.415.47-.18.107-.818.084-1.338-.065-2.175.43 1.348.767.676-.057.177 1.264 1.45.984.128.013-2.408.026-.246.52.615-.097-.692-.166-2.235.095-.615.272 1.564.967.62.923.663.7 1.444-.213-2.447.355-.52.084 1.033.81.685.7.663.195 1.187 1.195.82 1.538.97-.295-.035-.82-2.415-.237-.876.444.715 1.527 1.308.97-.047-.03-1.35.62 2.112.9.19.435 1.965 1.038-1.158.9-2.083.072-2.204.144 1.558.284 2.13.307 1.527.165-.9.497.308.6 1.535.57-.878 1.183.273.536-.008 1.103-.304 1.396.652.218-1.38-.018-.988.863-.893.48.482.745-.214 1.114.702.7-.93.218-.224.627.26zm-3.83-.675c-.26-.553.455-.786 0 0zm-5.57-.13c-.745-.83.34-.51 0 0zm6.628 0c.06-.085.06.085 0 0zm-3.787-.237c.06-.085.06.085 0 0zm-1.556-.178c-.58-.95.067-.91 0 0zm6.338.012c.192-.724.33-.09 0 0zm1.018-.07c-.25-.383.53-.358 0 0zm2.178-.047c.06-.085.06.085 0 0zm-.757-.237c.284-1.006.538-.364 0 0zm.757.047c.06-.085.06.085 0 0zm1.752-.095c.06-.085.06.085 0 0zm-5.25-.06c.007-.89.472-.777 0 0zm5.296-.036c.148-.43.32-.282 0 0zm-12.806-.118c.057-.165.057.165 0 0zm12.285-.095c.057-.165.057.165 0 0zM84.1 99.224c-.244-1.343.083-.815 0 0zm2.083.024c-.235-.176.202-.045 0 0zm-5.113-.095c.055-.246.055.246 0 0zm9.752-.166c.102-.788.088.574 0 0zm-5.32.06c-.118-.304.17.125 0 0zm17.368-.06c.076-1.008.588-.39 0 0zm-1.515-.166c.345-.872.472-.317 0 0zm-12.57-.473c.195-2.42.092 1.33 0 0zm14.89.166c.2-.853.198.494 0 0zm2.818-.183c.126-.773.534-.256 0 0zm-28.755-.042c-.302-1.136.213-.563 0 0zm17.937-.083c.135-1.112.557-1.338 0 0zm-13.516-.45c.1-1.623.085 1.652 0 0zm20.144.402c.048-.243.124.175 0 0zM82.8 98.123c-.297-1.123.233-.166 0 0zm25.535.047c.386-.565 1.2-1.727.568-.484-.156.17-.282.544-.568.484zm-24.263-.484c.052-.753.052.753 0 0zm3.22.095c.11-.718.106.142 0 0zm16.12.047c.202-.774.104.224 0 0zm-16.546-.402c.176-1.71.187.134 0 0zm8.072.095c.112-1 .145.217 0 0zm8.948-.047c.053-.5.053.5 0 0zm-23.316.024c.055-.246.055.246 0 0zm-.947-.095c-.233-.71.13-.274 0 0zm24.783-.024c.057-.165.057.165 0 0zm1.894 0c.057-.165.057.165 0 0zm-17.16-.26c.366-1.654.002.965 0 0zm2.556.166c.057-.165.057.165 0 0zm-6.96-.024c.06-.085.06.085 0 0zm19.718 0c.06-.085.06.085 0 0zm5.634-.095c.125-.598.316-.213 0 0zM85.34 97c.445-1.185.04-.228 0 0zm24.594-.024c.105-.48.116.072 0 0zM82.5 96.763c.052-.927.56-1.46.166-.142-.09.1-.17.7-.166.142zm-3.03-.142c.052-.668.052.668 0 0zm16.688-.118c.102-1.818.092.818 0 0zm9.326.213c.05-.324.128.25 0 0zm-19.812.024c-.225-1.024.838-1.608.19-.33-.06.082-.03.403-.19.33zm-4.403-.07c.057-.165.057.165 0 0zm4.876-.024c.145-.656.18.096 0 0zm-1.468-.26c.237-.685.227-.182 0 0zm-1.09-.142c-.086-.686.23.06 0 0zm7.243.024c.048-.243.124.175 0 0zm14.7-.047c.117-.25.117.25 0 0zm5.995-.012c-.088-1.108.268-1.154 0 0zm-32.056-.083c.055-.246.055.246 0 0zm26.44 0c.055-.246.055.246 0 0zm-5.462-.012c-.393-.965.684-.224 0 0zm-13.31-.29c.27-.524.3-.016 0 0zm-4.687-.076c.358-.902.563-.426 0 0zm25.304-.308c.1-1.128.073 1.123 0 0zm-1.864.2c-.402-.8.297-1.284 0 0zm-27.795-.154c.057-.165.057.165 0 0zm29.233-.33c.052-1.344.052 1.344 0 0zm-27.718.26c-.005-.83.73-1.282 0 0zm3.977-.047c.1-.365.678-.467 0 0zm-5.918-.095c.05-.865.377-.508 0 0zm28.57 0c.06-.085.06.085 0 0zm3.74-.544c-.55-1.564.703-1.45.024-.615.035-.063.035 1.172-.024.615zm.663-.9c.057-.165.057.165 0 0zm-13.137-.52c3.206-.382 6.7-.673 9.516-2.555 1.003-.994-1.747.203-2.462.33-4.554 1.55-9.854 1.893-14.297 1.916 2.37.18 5.044.093 7.243.308zm11.954-.187c.083-.55-.365.073 0 0zm-19.528-.158c-1.354-.32-.683.052 0 0zm-1.184-.08c-.706-.373-3.534-.152-1.373-.024.447-.054.923.16 1.373.024zm11.517-3.845c-.142-.622.425-1.578.697-1.74.482 1.637.53-2.295.828-.308.124 1.345.344.777.743.024-.387 1.34.796.6.772.44.614.6.82-2.29 1.183-.687-.904 1.374.78-.387.9-.322 1.18-.725-.108 1.666.947.284.066-.618 1.813-1.593 1.29-.437 1.222-.315 1.13-2.286 1.362-3.043-.408 1.015.272 2.52.544.78.237-1.053.634-3.413-.568-3.598.147 1.686-.46-.194-1.065.57-.568-.96-.663.842-1.184-.426-.37 1.32-.255.375-1.183.473-.764-.28-.572-.166-.616.558-.826-.558.7 2.556-.237.957-.473-.283-.703-1.778-1.065-1.6-.83.387-1.773.81-1.35 2.107.228 1.78-.357-.62-.615-1.16-.43-1.296-.907 2.574-1.325.568-.606-1.274-.653.494-.426.97-.398-.517-.582-1.256-1.04-.545-.57-.942-1.695.5-2.698-.142.13.965-1.39.236-.663 1.468-.098 1.382-.304-2.253-.9-1.268-.225 1.022-.51-.217-.7.7-.786-.246-.12 1.386-.568-.526-.89 1.006-1.03-1.075-1.657-.42.33 2.32-.957.58-.237-.284-1.068-.3-.64 3.567-.923 1.184-.103-1.845-.315-.563-.64-.237.388-1.2-.298-.664-.355-.365-.32-.635-.63 1.134-.794-.866-.753-.767-.826 2.548-.886.33-.7-.6-.747 3.438-.78 1.018-.078-1.827-.34.785-.615-.308.12-1.698-1.072-.24-.828.7.476-3.518-.777.073-.568-1.326.114-1.843-.683 1.456-.686.994-.11-1.155-.175-1.157-.497-.095.096-.653-.348-1.788-.97-.473-.856.964-.2-.427-.426-.487-.308 1.007-.32.847-.213-.08-.326-1.397-1.28 3.103-.994.757.25-1.25-.465-.883-.45-.9.266-1.465-1.146 1.377-.9-.155-.832-1.533-1.24 1.1-1.586.486.198-1.11-.77-.432-1.004.473.205-.624.807-2.532.08-1.136-.575.284.293-1.165-.568.1-.51 1.72-.443 3.674.4 5.297-.516-.802-.14-1.47.07-.176 1.075-.764.408-1.225.913.65.137-1.68.147-1.47 1.102-.65-.028-2.473-.048-1.534.4-.156.47.866.168-1.685.555-.095.246 1.86.54.096.734-.497-.02.78.9 1.992.7.483-.04-.936 1.023 1.956.876.298.327-2.566-.15 1.095.852.19.24-2.24.4-.868.64.19.54 1.135.243-2.55.7-.67.524.14.567.955 1.16.715-.32-1.16.237-1.437.473-.237.452 1.404.345-1.007.64.38 1.232 1.748.2-3.715.757-1.775-.243.526.546 2.58.78 1.728-.512-1.36.034-.203.686.047.024-.62.92.788.45-.426-.434-2.185.476 1.525.355-.33.28-1.124.538 2.333.78.473.478.937-.048-.665.842.08.148.8.787 1.338.436.108-.07-2.093.227.125.64.923.2.156.248-2.168.402-.862-.105-.048.843 1.886.544.46.016-1.305.696 1.7.426.095-.105-1.527.432-.416.85-.05.49.906.402.458.736-.043.74-.295 1.028 1.386.805-.066.486-.6.585 1.2 1.042-.018.378 1.472.823-1.2.923.32.656 1.483.697-2.935.852-.663-.38 1.007.97.233.45 1.078.082.37.28.233.465.19zm-4.392-1.168c.234-.948.586.163 0 0zm3.835-.17c.113-.33.363-.387 0 0zm-12.38-.095c.06-.085.06.085 0 0zm-.047-.142c.055-.246.055.246 0 0zm3.503-.047c.06-.085.06.085 0 0zm-3.55-.142c.055-.246.055.246 0 0zm8.782-.095c.022-.4.153.425 0 0zm-1.704.047c.06-.085.06.085 0 0zm9.042 0c.06-.085.06.085 0 0zm-16.167-.308c-.28-2.645.147-.9 0 0zm-8.095-.095c-.25-1.61.223-2.097 0 0zm20.95-.024c.124-.087.124.087 0 0zm2.87-.012c-.122-.946.813-1.45 0 0zm-2.917-.238c.108-.346.136.174 0 0zm-8.64-.152c-.467-.943.175-.362 0 0zm-12.877-.237c.053-.5.053.5 0 0zm24.073.07c.055-.246.055.246 0 0zm-20.475-.592c.1-1.574.264-2.718.142-.237.004.267-.188 1.54-.142.237zm23.79.497c.06-.085.06.085 0 0zm-21.422-.237c.08-.72.095.722 0 0zm21.47.142c.06-.085.06.085 0 0zm-27.482-.142c.055-.246.055.246 0 0zm8.143-.355c-.117-3.35.173-.546 0 0zm-2.083-.047c.054-.33.054.33 0 0zm22.322-.018c.422-1.64.344-.106 0 0zm-25.588-.124c-.024-1.63.12.82 0 0zm12-.095c-.262-1.74.107-.486 0 0zm12.972.095c.113-1.362.452-1.74.118-.142-.018.045-.107.295-.118.142zm-13.61-.19c-.166-1.988.113-1.157 0 0zm14.984 0c.307-1.083.578-.595 0 0zm-25.7-.083c-.056-1.34.16-.686 0 0zm10.054-.272c.02-.453.196.45 0 0zm-1.042-.095c.06-.085.06.085 0 0zm-9.6-.118c.057-.165.057.165 0 0zm10.652-.047c.057-.165.057.165 0 0zm-.994-.095c.054-.33.054.33 0 0zm-11.267-.26c.135-1.193.058.837 0 0zm-3.077-.095c.12-1.044.05.816 0 0zm31.6-.166c.036-.598.26-.202 0 0zm-27.813-.07c.055-.246.055.246 0 0zm3.74-.047c-.427-3.45.266.825 0 0zm-5.208-.118c.323-.767-.062-.037 0 0zm1.515-.095c.246-1.764.217-.1 0 0zm26.96.047c.257-.7.08.296 0 0zm-27.766-.33c.54-2.245.29 1.043 0 0zm-1.6-.237c-.18-.34.218-.077 0 0zm31.032-.402c.1-.87.072.644 0 0zm-32.216-.142c.052-.753.052.753 0 0zm1.184.07c.285-.76.216.276 0 0zm2.604.07c.095-.24.16-.007 0 0zm27.718-.33c.052-.753.052.753 0 0zm-5.87.142c.06-.085.06.085 0 0zm-.047-.095c.06-.085.06.085 0 0zm.663-.047c.18-.255.18.255 0 0zm-.7-.19c.06-.085.06.085 0 0zm6.438-.44c.186-.33.026.152 0 0zm-2.178-.294c-.167-.405.157.135 0 0zm-.095-.213c.06-.085.06.085 0 0zM84.1 87.84c-.06-.085-.06.085 0 0zm7.717-8c4.1-.37 8.575-.045 12.327-2.058-.224-.624-2.212.358-3.167.45-3.153.863-7.493 1.257-9.918 1.56.238-.024.54.093.758.048zm-.237-2.77c-.176-.82.542-.47.976-.673.08-1.195 1.136 1.484 1.544.1.72-.207.433.053.983-.08.32-.78.657-1.5.97-.332-.05 1.492.626-1.575.9.178.842.582.418-.652 1.007-.462.78-1.74-.053.594 1.207.226.118-1.114.23-.45.437.413.448-.884.55-2.17.97-.497-.462-1.203.936-.045.78-1.16-.2-.785-.242-1.85.142-.52.3 1.828.947-.28.663-.45-.245 2.12.528 1.59.994 1.042.65 1.796.033-2.94.473-.166.786-.01.8-.186 1.04-1.16.34 1.088.6.41 1.35.095.13-.38.63.612.97-.26-.245-1.743 1.197.837 1.183-1.032-.206-1.897-.135-1.14.284-1.217-.098-.993-1.965-2.334-.663-.7-.703-.975-1.164-.308-.994-.242-.45-.736-2.318-1.9-.994-.472-.765-.374-.14 1.254 0 1.035-.474-.914-1-1.062-1.04-.037-.788-1.1-.977-.642-.716-.19-.55.398-1-1.532-.912-.057.007 1.044-1.498-1.546-.882.46-.296.473-1.456-2.404-1.112-.592-.3.256-1.225-1.71-.78-.095.217.657.518 2.086.024.7-.22-.966-1.472-.727-1.4 0-.307-.958-.984-1.46-.603-.095.048 1.25-1.78-2.12-1.728-.284-.135 1.268-.204.312-.733-.237-.358.417.68 2.06-.166 1.894.01-1.1-1.18-2.458-.615-.7.085 1.302-.75-1.337-.947-.757-.002-1.19-1.186.96-1.468-.473-.942-.008-1.453.02-1.95.947-.808.363 1.06-2.15-.465-.686-.477.862-.973.915-.474-.084-.39-.5-1.18 1.48-.663.095-.25-.16-1.663.94-1.065-.318-.975-.624-2.83 2.513-2.06.266.294-1.146-1.205.685-1.373 1.297-.28.817.02-1.054.213-1.325.63-1.064-1.338-.717-1.6-.142-1.032 1.35-.322-.186-.024-.797-.675-.134-2.263 2.435-1.35.702.653-1.11.138-1.16-.45-.166-.887.934-1.412 3.595-1.278 3.953.47-.99.444 1.045.95-.095-.416 1.3.943 1.893.77.33.623-.59.502-1.15.41.592.267 1.04 1.31.213 1.467 1.065 1.134 1.032.662-.6.876-1.562-.147.857.65 2.62.828.876.492-1.893-.13.407.095 1.065.256-.842.822.464 1.183-.758.176-.86.734-3.03.45-.947-.42 2.147.58-.86.402.876.16 1.07 1.403 1.576 1.278.18-.162-.64.756-2.966.307-1.15-.255 2.862.343-.026.45 1.6.59.033.945.425.78.39.06-1.794.73-.263.64.047.165-2.384.136-.465.523.57zm1.994-.51c-.205-.74.466-.733 0 0zm3.474-.84c-.365-.88.467-.4 0 0zm-2.225-.024c-.582-3.17.347-1.278 0 0zm4.78-.368c.1-1.632.188.87 0 0zm-3.314-.39c.162-1.094.137 1.09 0 0zm4.213.142c-.167-.64.168-.26 0 0zm-13.99-.037c-.532-.618.328-.578 0 0zM89.6 74.7c.052-1.175.052 1.175 0 0zm6.35.2c-.25-.69.293-1.064 0 0zm-1.83-.107c.128-.25.05.324 0 0zm-3.006-.166c.055-.246.055.246 0 0zm3.006-.024c.057-.165.057.165 0 0zm4.83-.084c.863-.084-.16.362 0 0zm-16.167.037c.057-.165.057.165 0 0zm1.26-.083c.002-.702.164-.197 0 0zm-1.213-.154c.053-.5.053.5 0 0zm9.326-.19c.15-.743.09.595 0 0zm2.012.07c.06-.085.06.085 0 0zm9.687-.012c-.057-.326.263.04 0 0zm-12.71-.095c.057-1.287.176-.54 0 0zm-8.267-.107c.057-.165.057.165 0 0zm.947-.38c.054-.33.054.33 0 0zm2.207-.13c-.07-.373.36-.533 0 0zm3.947-.107c.057-.165.057.165 0 0zm-5.776-.26c.094.038.056.027 0 0zm7.86.095c.055-.246.055.246 0 0zm-2.083 0c.06-.085.06.085 0 0zm0-.402c-.001-2.46.212 1.166 0 0zm15.362.142c.057-.165.057.165 0 0zm-19.15-.047c.057-.165.057.165 0 0zm-4.308-.33c.278-1.596.44-.208 0 0zm1.704.166c.28-.912.427-.243 0 0zm2.65-.07c.237-.9.588-.88 0 0zm19.102-.024c.325-.175-.376-1.7.2-.545.14.18-.03.72-.2.545zm-15.078-.213c.197-1.31.17.23 0 0zm-1.562-.042c-.03-.58.48-1.69.237-.573-.066.12-.225 1.046-.237.573zm-1.468-.17c.5-1.398.37-.397 0 0zm-2.13-.07c.213-1.31.186.353 0 0zm3.41.118c.06-.085.06.085 0 0zm2.698-.118c.143-.52.303.092 0 0zm-.19-.07c.304-1.113.42-.12 0 0zm-7.168-.013c-.083-.162.194.008 0 0zm.066-.247c.12-.17.12.17 0 0zm6.344-.166c.06-.085.06.085 0 0zm16.5-.118c-.41-.697-.524-1.534.024-.38.043.048.146.576-.024.38zm-22.322-.07c.247-.755.23-.07 0 0zm3.172-.118c.107-.323.11.058 0 0zm17.428-.13c-.393-.45.378-.12 0 0zm-13.688-.036c-.338-.696.474-.352 0 0zm12.6-.06c-.415-.582.36.25 0 0zm-16.244.013c.06-.085.06.085 0 0zm19.32-.438c-.29-.53.313-.1 0 0zm-4.56-3.1c.025-.776-.918-2.324-.368-.724.09.243.107.607.368.724zm1.785-.274c-.03-.625-.842-2.446-1.112-1.87.347.536.783 1.935 1.112 1.87zm1.373-.013c-.298-.706-.28.336 0 0zm-17.753-.058c.49-.666.765-1.76.697-2.51-.42.628-.957 2.088-.697 2.51zm.984-.08c.283-.75.27-1.72-.014-.37-.003.122-.115.268.014.37zm.757 0c.16-.28-.198.06 0 0zm1.738-.132c-.055-.246-.055.246 0 0zm4.02.03c-.102-1.74-.52-1.23 0 0zm-4.02-.48c-.053-.5-.053.5 0 0zm-5.918.047c.34-.748-.04-.46 0 0zm9.27-.13c.158-.25-.264-.298 0 0zm-4.426-.142c.32-.7.41-2.88-.037-1.197-.014.358-.162.95.037 1.197zm-.487-.084c-.124-.175-.048.243 0 0zm-3.537-.01c.473-.67.598-2.644.105-.96.073.27-.317.83-.105.96zm6.486-.047c.2-.554-.134-.554 0 0zm5.076-.132c.054-.745-.768-2.842-.97-1.917.302.53.61 1.975.97 1.917zm1.326.07c-.12-.17-.12.17 0 0zm-8.356-.19c-.053-.655-.148.66 0 0zm-6.236.06c.383-.682.984-2.03.85-2.417-.385.68-1.057 1.903-.85 2.417zm15.208-.058c-.227-1.72-.94-1.735-.142-.06l.1.105.04-.044zm1.8-.24c-.425-1.316-1.05-.562 0 0zm-10.723-.142c.338-1.044-.287.57 0 0zm5.847.024c.4-.608-.534-3.054-.828-2.296.208.692.276 1.874.828 2.296zm-3.845-.53c.046-.16-.16.046 0 0zm-.805-.19c.303-.75.63-3.078.08-1.244.005.342-.444 1.155-.08 1.244zm10.865-.095c-.244-1.07-1.343-1.35-.297-.214.107-.084.157.303.297.214zM81.6 64.712c.73-.413 1.272-2.113.26-.734-.07.172-.636.675-.26.734zm9.434-.2c.87-1.166-.098-1.287 0 0zm39.446-.132c1.1.142 2.52-.707 1.018-1.49-1.66-1.994-4.347-2.264-6.5-3.48-4.508-1.68-9.085-3.575-13.73-4.544-1.642-.262-1.82 1.82-.284 2.036 3.122 1.234 6.296 2.55 9.114 4.474 2.838 1.662 5.968 3.036 9.35 2.935.344.062.686.142 1.042.07zm-42.594-.176c.087-.83 1.207-2.714.342-2.664-.392.743-.832 2-.342 2.664zm-1.538-.023c.386-1.106 1.336-2.542 1.074-3.48-.56.945-1.876 2.485-1.074 3.48zm55.968-.037c1.615.367 2.275-1.142 1.136-2.2-1.974-2.655-4.442-5.103-7.665-6.06-3.345-1.248-7.077-1.002-10.504-.473-1.437 1.465 1.243 2.56 2.35 3.22 2.566 1.028 4.757 2.567 6.99 4.12 2.48.87 5.087 1.296 7.693 1.397zm-46.773-.166c.09-.72-.784-2.643-.33-.923.107.237.023.927.33.923zm2.523-.034c-.017-.835-.724-2.555-1.007-2.546.407.8.316 2.04 1.007 2.546zm6.614-.05c-.227-.643-.328.204 0 0zM92.868 63.6c-.053-.655-.148.66 0 0zm-43.696.024c2.72-.203 5.7-.032 8.236-1.16 1.69-2.473 4.88-3.342 6.677-5.54-.804-1.628-3.305-.917-4.805-1.136-2.915-.096-5.76.733-7.883 2.722-1.415 1.537-3.444 2.7-4.497 4.497.2.76 1.698.406 2.272.615zm35.448-.13c.46-.98 1.68-2.278 1.668-3.02-.843.467-1.905 2.43-1.668 3.02zm14.534-.165c.135-.833-1.14-3.013-1.386-2.15.52.662.77 1.687 1.386 2.15zm-56.99-.226c2.7-.46 4.637-2.472 6.557-4.237.818-.535 3.36-1.518 1.728-2.462-2.914-.77-5.76.677-8.758.19-2.972.22-6.68-.785-9.185 1.254.847 2.05 3.52 2.658 5.35 3.787 1.35.65 2.732 1.504 4.308 1.468zm20.12-.047c3.975-1.07 8.178-1.98 11.576-4.426 1.61-1.983-2.1-.806-3.196-.592-3.61.798-7.568 1.14-10.317 3.953-1.457 1.007 1.54 1.185 1.936 1.065zm1.6-1.505c.08-.165.17.07 0 0zm85.712 1.457c2.652-.21 4.352-2.61 6.747-3.527 1.295-1.448 4.076-1.747 4.38-3.882-1.85-1.4-4.51-.82-6.628-1.6-4.586-.318-9.25.628-13.67 1.704-.443.994 1.368 1.784 2 2.604 2.044 2.054 3.95 4.782 7.172 4.7zm-58.16-.166c.186-1.007-.28.313 0 0zm-1.786-.13c.4-.59.25-1.465-.084-.44.037.02-.154.765.084.44zm-8.18-.202c.548-.19 2.307-3.05.828-1.562-.258.516-1.107 1.128-.828 1.562zm19.944-.46c-.123-1-1.365-2.576-2.002-2.39.692.765 1.284 1.755 2.002 2.39zm6.662-.298c-.956-1.716-1.858-.684 0 0zm7.953.07c2.012-.36-.254-1.596-1.136-1.68-1.43-.543-2.664-1.785-4.166-1.94.388 2.12 3.276 3.518 5.303 3.622zm-35.625-.19c-.06-.085-.06.085 0 0zm.544-.355c1.545-1.177-1.077.337 0 0zm18.084-.024c.108-.717-.91-1.12-.094-.106l.077.128.018-.023zm3.93-.095c-.42-.93-1.13-2.088-2.132-2.343.47.852 1.47 2.003 2.132 2.343zm-24.12-.118c-.32-.187-.075.19 0 0zM83.46 61c.322-.36-.27-.126 0 0zm21.93-.245c-.816-1.254-.957-.355 0 0zm-25.967-.03c.728-.31 1.47-1.213.336-.497-.1.114-1.047.573-.336.497zm4.557-.343c1.85-1.646-.332-.42 0 0zm5.445-.236c-.303-.907-1.727-1.832-.653-.487.2.2.334.5.653.487zm13.895-.52c-.01-.768-2.9-2.5-1.58-1.102.532.352.878 1.123 1.58 1.102zm4.673.01c-.443-1.074-.805-.106 0 0zm-3.3-.058c-.288-1.036-1.595-2.374-2.617-2.344.795.802 1.67 1.726 2.617 2.344zm-10.44-.12c.794-.398 1.464-2.867.294-1.115-.093.364-1.17 1.1-.294 1.115zm12.036-.108c-.247-.55-.494.007 0 0zm-9.1-.473c.737-.395 1.28-2.623.284-1.165-.164.324-1.586 1.494-.284 1.165zm-6.496-.342c-.016-.743-1.146-2.545-.676-.87.17.302.3.786.676.87zm-13.186-1.303c.502-.644-.916.517 0 0zm30.95.06c-.618-.91-1.327-.1 0 0zm-40.88-.12c3.25-.402 7.057-.272 9.782-2.353-1.04-1.492-3.624-.134-5.26.057-1.83.688-4.45.38-5.552 2.214.334.08.688.137 1.03.082zm16.664-.095c.852-.53-.636-.106 0 0zm19.244-.06c2.594 2.595.914.838 0 0zm2.793.048c-.78-.74-.81-.057 0 0zm-28.43-.082c.512-.21-.105-.178 0 0zm27.566-.13c-.415-.79-2.662-2.05-2.948-1.362 1.02.333 1.94 1.18 2.948 1.362zm-20.56-.155c.925-.497.496-.26 0 0zm37.352-.07c.414-1.38-2.317-1.193-3.243-1.54-2.13-.42-4.094-1.774-6.286-1.386.523 1.22 2.67.893 3.848 1.504 1.927.3 3.746 1.315 5.68 1.42zm-34.972-.08c.12-.48-.586-2.115-.895-1.87.246.607.19 1.628.895 1.87zm-10.05-.037c1.33-.858 3.316-.63 4.22-1.775-1.205.92-3.645.785-4.22 1.775zm14.25-.19c.056-.5-.742-3.132-.686-1.54-.025.453.123 1.563.686 1.54zm-2.212-.01c-.16-.774-.923-2.568-1.268-2.475.282.867.404 1.993 1.268 2.475zm6.165-.084c1.084-.953 1.565-2.472 2.248-3.764.15-1.725-.88.888-1.065 1.505-.502.633-1.188 1.547-1.183 2.26zM76.82 56.19c.58-.37 2.295-.67 1.8-1.04-.447.34-2.06.593-1.8 1.04zm31.932-.06c-.45-.586-.642.132 0 0zm-14.487-.223c.933-.348 1.464-2.876.38-1.07-.086.267-.913 1.077-.38 1.07zm15.102-.52c-.07-.72-2.543-.738-.805-.237.278.03.532.27.805.237zm-63.083-.047c4.064-.293 8.2-.46 12.31-.9 3.6-.003 7.27 1.017 10.723-.402 1.144-.312 2.68-.45 3.574-1.267-1.725-1.66-4.624-.403-6.794-1.005-6.853-.362-14.576-2.142-20.807 1.728-1.4.127-2.383 1.642-.426 1.704.467.06.96.157 1.42.142zm36.974-.047c.748-.25 1.863-.898.45-.497-.145.04-1.1.556-.45.497zm14.7-.19c.71-.205 1.64-2.7.7-1.87-.148.536-1.24 1.602-.7 1.87zm7.753-.508c-.244-.76-2.317-1.688-2.5-.89.854.2 1.675.857 2.5.89zm-5.658-.214c1.072-1.006.77-3.437.082-.983.15.297-.94 1.422-.082.983zm9.125-.107c-.185-.173-.185.173 0 0zm-19.73-.105c.008-.87-.435-1.928-.888-2.593.11.83.21 2.2.888 2.593zm33.22-.013c4.8-.203 9.682-1.402 14.487-.142 2.134.01 5.403.525 6.675-1.444-2.204-1.795-5.114-2.473-7.788-3.408-3.386-.806-6.836 1.083-10.297 1.112-3.398.745-7 1.02-10.286 1.905-.064 1.347 2.45 1.28 3.516 1.598 1.214.227 2.48.25 3.693.38zm5.918-4.024c.124-.087.124.087 0 0zM79.47 53.966c.767-.118 2.654-.753.876-.497-.223.03-1.264.376-.876.497zm-2.083-.047c.8-.086 3.022-1.43 1.042-.947-.4.213-1.76.426-1.042.947zm17.185-.26c.903-.492 1.24-3.06.45-1.29-.15.223-1 1.268-.45 1.29zm-11.41-.45c.794-.006 2.292-.774.663-.38-.18.056-.897.107-.663.38zm25.696-.105c-1.29-.333-.683-.18 0 0zm-2.807-.25c-.52-.607-2.325-1.754-2.55-1.09.817.368 1.7.965 2.55 1.09zm-28.997-.308c.736-.066 3.126-.924 1.255-.592-.45.165-3.254.604-1.255.592zm4.876-.7c.736-.027 2.562-.642.758-.38-.17.043-1.204.086-.758.38zm9.6-.213c-.18-1.457-1.232-3.14-.52-.78.146.212.27 1.107.52.78zm15.186.108c-.8-.874-2.5-1.52-3.66-1.126 1.217.348 2.47.72 3.66 1.126zm-7.528-.096c.593-.57.73-3.816.27-2.332.04.695-.818 2.076-.27 2.332zm-12.568-.094c.163-.724-1.122-2.975-.676-1.008.207.327.25.964.676 1.008zm-9.292-.037c.806-.047 3.197-.824 1.042-.734-.286-.053-2.133.488-1.042.734zm33.352-.108c-.54-.575-3.38-.38-1.255-.105.43-.16.837.24 1.255.105zm-20.935-.092c.197-1.592-1.208-2.557-.44-.473.14.128.188.538.44.473zm-1.623-.227c-.31-1.7-1.3-3.336-.544-.592-.03.24.3.812.544.592zm-59.295 0c3.402-.4 7.03-.9 10.013-2.698 1.325-1.113.94-3.567-.024-4.7-2.647-.8-5.5.333-8.167-.64-2.835-.964-5.757-.336-8.262 1.16-1.066.54-3.15.974-2.983 2.32 1.783 2.534 5.103 2.862 7.67 4.284.583.095 1.156.338 1.752.284zm-.852-.757c-1.6.098-1.407-1.273-.047-1.8 3.518-1.44 7.354-2.445 11.115-1.646-.477 2.444-3.78 1.415-5.59 1.83-2.124-.386-3.665 1.098-5.478 1.615zm-4.26-1.326c.06-.085.06.085 0 0zm72.635 1.6c.64-1.308-.124-1.35-.095.034l.095-.034zm-.876-.214c.666-1.293-.5-1.128 0 0zm1.988-.142c.472-.574 1.027-2.703.437-2.285-.06.607-.906 2.062-.437 2.285zm3.48-.212c.48-1.135.11-2.082-.132-.392-.018.112-.086.438.132.392zm4.853-.12c-.208-.892-3.393-.783-1.505-.225.5.053 1.003.3 1.505.225zm-23.92-.533c2.036.313 2.004-.733.024-.213-.507.044-.476.23-.024.213zm74.587-.047c3.904-.248 8.466-.305 11.138-3.67.748-2.47-3.37-4.002-5.48-4.332-4.306-.44-8.683.525-12.8 1.586-2.24 1.286-1.997 5.67.942 5.8 2.056.417 4.198.07 6.202.615zm4.7-1.09c-2.59.02-4.836-1.454-7.457-1.373-1.605-.528-3.866.907-5.113-.242-.774-1.83 2.383-1.31 3.36-1.39 3.27.264 6.495.928 9.73 1.254.728.162 3.007.955 1.6 1.6-.708.054-1.424.18-2.13.142zm-83.937.994c1.627-.013 1.045-.742-.18-.26-.3.132.024.327.18.26zm21.435-.106c.146-1.153.924-3.277.508-3.918-.414 1.284-.73 2.813-.508 3.918zm7.907-.236c-.336-.798-3.945-.5-1.813-.156.603.054 1.203.263 1.813.156zm-10.192-.084c.525-.55 1.098-2.467.473-2.452-.036.83-.608 1.718-.473 2.452zm-18.298-.142c2.114.145 1.257-.637-.095-.095-.107.002-.088.247.095.095zm32.027-.19c.614-.076-.532-.174 0 0zM76.63 48.38c3.753.05-1.688-.85 0 0zm11.693-.26c.15-.666-.69-2.532-.497-.947-.106.178.488 1.736.497.947zm11.754.037c.6-.684.836-2.95.153-2.777-.048.873-.383 1.992-.153 2.777zm9.705 0c-.806-.98-2.245.448 0 0zm-34.336-.486c.72-.38.46-.76 1.576-.734-.443-.483-2.213-.555.13-.663-1.067-.375-2.864-.265-4.213-.686-3.993-.6-8.053-.865-11.93-2.036-2.116-.628-.053 1.707-1.09 2.593 1.348 1.15 3.66-.123 5.352.366 3.42.173 6.79.776 10.177 1.16zm14.12-.39c-.245-.816-.245-2.15-.926-2.584-.06.83.195 2.146.926 2.584zm-3.125-.047c.298-1-.605-3.857-.5-1.292.063.375.152 1.173.5 1.292zm-40.917-.037c4.088-.867 8.27-.412 12.31-1.254 1.868-.572.13-2.654-1.278-2.2-1.66-.405-3.322-.54-4.924-1.23-2.34-.725-4.784-1.04-7.102-1.752-1.66.064-4.81.42-3.717 2.91.553 2.332 2.21 3.75 4.71 3.527zm61-.284c.143-.518-2.915-1.127-2.556-.118.827.043 1.75.017 2.556.118zm-16.012-.058c.215-.728-.6-3.488-.487-1.315.14.426.027 1.068.487 1.315zm18.38.01c4.16-1.232-4.295 1.633 0 0zm-26.25-.392c-.527-.615-2.89-.18-.852-.034.23-.025.773.252.852.034zm18.926.05c.812-1.63-.642-2.06 0 0zm41.032-.416c1.85.29 3.92-.558 4.048-2.627.208-2.14-.813-5.642-3.8-4.38-4.02.813-7.982 1.93-11.877 3.1-1.177.882-.743 2.244.657 2.58 3.612.672 7.35 1.044 10.983 1.326zm-29.73-.284c4.183-.664 8.51-.583 12.688-1.09.865-.063 3.238.968 2.438-.734.627-1.14.453-2.66-1.113-1.68-4.607 1.218-9.552.852-14.132 1.917-.975.355-1.923 1.458-.332 1.562.237-1.403.34.26.45.024zm-14.77-.047c.816-.584.357-3.627.047-1.562.138.346-.396 1.507-.047 1.562zm-19.576-.047c.053-.637-2.85-.342-.994-.095.318.013.7.086.994.095zm17.648-.342c.478-1.638-.546-1.518 0 0zm13.053.01c1.943-.248-1.135-.288 0 0zm-28.76-.142c-.163-.35-2.256-.214-.52 0l.26.024.26-.024zm-3.835-.38c2.183.272.686-.743-.568-.355-.19.3.446.34.568.355zm28.43-.33c.73-.098 3.228-.083 1.373-.473-.18-.223-2.857.3-1.373.473zm-7.68-.318c.804-2.94-.922-.212 0 0zm-19.47-.013c.813-.74-3.067-.1-.213.024l.213-.024zm30.654 0c.75-.175 3.184-1.127 1.335-.734-.4.32-1.203.35-1.335.734zm-90.186-.047c2.1-.696 4.276-1.67 5.776-3.314 1.045-2.57-1.59-4.07-3.3-5.326-2.774-1.096-5.838.386-8.63.9-2.12 1.315.46 3.736 1.458 4.865 1.475.992 2.736 2.935 4.686 2.875zm70.847-.024c.044-.547-.302-2.605-.662-2.13.14.667.076 1.782.662 2.13zm11.717.005c.4-.6.65-2.484-.095-2.396.077.702-.204 1.953.095 2.396zm-18.9-.086c-.565-.72-2.464-.31-.676-.037.225.02.448.083.676.037zm-7.683-.084c1.05.394 3.417-.75 1.468-1.184-2.786-1.175-5.603-2.327-8.57-3.03-3.065-1.222-5.762-3.246-8.944-4.237-2.8-.94-5.34-2.85-8.267-3.314-2.16.765-.118 3.368 1.183 3.977 2.244 1.1 3.693 3.204 5.577 4.687 3.084 1.732 6.878 1.334 10.26 2.154 2.44.066 4.87.73 7.293.946zm25.92-.047c.24-.782-.186-2.345-.142-.64-.057.1-.168.857.142.64zm-12.995-.497c.05-.77-.707-2.965-.497-.947.066.266.43 1.99.497.947zm9.066.355c-.06-.085-.06.085 0 0zm9.28-.095c.946.022 2.163-.703.724-.923-.727-.05-2.993 1.057-.724.923zm2.604-.33c1.436-.375.964-.788-.142 0l.07.024.07-.024zm-28.003-.202c-.708-.595-3.25-.46-1.302-.105.422.07.87.182 1.302.105zm33.257-.13c3.016-.36 5.946-1.256 8.948-1.467 3.177-.157 6.273-1.178 8.607-3.432 1.627-1.6 3.622-2.683 5.406-4.024 1.68-1.827-1.804-2.57-2.94-1.373-3.9 1.215-7.282 3.6-11.074 5.065-3.468 1.297-6.736 3.044-10.127 4.497-.974.92.723.637 1.18.734zm-23.505-.64c.17-1.558-.815-2.372-.355-.237-.04.3.528 1.203.355.237zm80.15.07c2.962.328 4.48-2.89 5.894-4.852-.024-2.533-3.196-2.73-4.948-3.67-1.768-.517-4.357-2.37-5.42.166-.42 1.76-1.1 3.416-1.68 5.125 1.428 1.317 3.25 2.382 5.066 3.112.36.046.727.188 1.088.118zm-70.752-.047c1.11-.528.278-3.98.213-1.68-.1.53-.346 1.237-.213 1.68zm-3.503-.095c.652-.473.32-2.563-.07-1.065l.006 1.053.065.012zm1.598-.224c.744-.543.625-2.66.153-2.593.033.698-.444 2.378-.153 2.593zm-16.9.01c.792.005 2.362.038.923-.568-.525-.168-3.522-.653-2.178.07.468.077.803.518 1.255.497zM35.5 41.94c1.754.257 4.532-.503 3.527-2.91.06-2.977-3.36-3.688-5.705-3.67-2.747.027-5.585-1.54-8.214-.38-1.17.823.483 2.2.686 3.3 1.6 3.42 5.973 2.896 9.066 3.598.21-.022.443.118.64.07zm1.45-5.36c-.05-.197.285.167 0 0zm65.95 5.355c.752.094 2.624-.43 2.572-.917-.678.125-2.723.302-2.572.917zm-48.557-.09c.783-.845-1.324-2.134-1.823-2.864-3-2.55-7.26-3.133-11.007-2.462-1.18.514-1.56 2.663.142 2.627 3.293.8 6.75 1.314 10.037 2.012.813.4 1.733.778 2.65.687zm51.484-.237c1.244-.396-.22-.47 0 0zm1.23-.047c.432-.232-.332.01 0 0zm-19.15-.118c.294-.897-.786-3.748-.52-1.278.218.363.14 1.215.52 1.278zm18.818-.26c.79-.328-.473.03 0 0zm42.94 0c4.07-.87 8.343-1.276 12.19-2.935 1.724-.95 3.396-4.482.852-5.373-3.843.193-7.798.594-11.528 1.657-1.86.404-4.388 1.402-3.93 3.81.294 1.23.748 3.05 2.414 2.84zm-70.137-.52c1.22-.52-1.786-.142 0 0zm25.493 0c-.06-.085-.06.085 0 0zm-22.12-.105c.52-.57-2.43-1.465-2.286-.7.747.256 1.48.638 2.286.7zm20.083.01c.79-.253 2.94-1.22 1.042-.876-.338-.06-1.574.683-1.042.876zm2.604-.047c1.453-.59-.28-.47 0 0zm-24.736-.154c-.567-.653-1.83-.517-.473-.106.14.058.325.194.473.106zm51.58-.035c2.4-.853 4.85-1.5 7.197-2.51 2.313-.804 5.275-.64 6.983-2.58-.108-1.988-3-1.83-4.38-1.018-3.62 1.45-7.767 2.25-10.345 5.468-.1.4.064.783.544.64zm-35.46-.19c.55-.614-.126-2.632-.166-.876.118.23-.028.777.166.876zM89 40.085c.194-.487-.48-3.592-.5-1.812.104.56.001 1.537.5 1.813zm9.988-.356c.344-1.27-.355-1.595-.155-.226l.024.142.13.084zm7.35-.108c1.354-.7-.93-.187 0 0zm-25.664-.347c-.335-.677-2.127-.678-.682-.22.244.034.422.307.682.22zm21.403-.032c.948-.314 1.117-1.273.1-.497-.16-.115-.67.738-.1.497zm-18.19-.105c-.15-.698-2.42-1.42-2.097-.747.732.133 1.342.74 2.097.747zm19.54-.298c.723-.288 2.335-1.306.834-.615-.116-.01-1.482.813-.834.615zm-13.492-.024c.453-.74-.422-2.43-.378-.828.172.24.04.79.378.828zm6.167-.082c.455-.955-.783-1.914-.32-.32.05.15.054.406.32.32zM76.31 38.2c.022-.848.654-2.994-.723-1.742-.093.492-.156 2.05.723 1.742zm24.58-.178c.424-.532 1.63-1.255 1.728-1.54-.573.074-2.52 1.172-1.728 1.54zM82.04 37.86c-.108-.292-.264.06 0 0zm3.3-.227c.504-1.167-3.188-2.08-1.373-.84.38.355.862.765 1.373.84zm25.777-.047c2.107-.286 1.344-2.986-.426-2.96-1.47.327 2.078 1.9.01 2.615-.355.25.25.406.415.344zm-8.45-.07c.645-.388 2.277-1.582.757-.757-.158.077-1.27.833-.757.757zm-19.22-.09c-.663-.702-.862-.224 0 0zm17.15-.868c1.977-1.546-.228-.757 0 0zm-13.127-.013c.124-1.005-1.495-2.235-2.462-2.485.268.562 1.83 1.895 2.462 2.485zm9.718-.366c.553-.848.575-1.527-.037-.368-.01.1-.22.42.037.368zm1.597-.18c.698-.543 1.535-2.735.07-.746-.087.185-.513.872-.07.746zm-3.645-.095c.55-.464.74-2.935.142-1.23-.047.337-.515 1.22-.142 1.23zm-5.928-.058c.355-.742-.603-2.913-1.054-2.31.408.673.516 1.894 1.054 2.31zm-4.63-.097c-.126-.43-.253.2 0 0zm6.107-.105c-.332-1.358-.582-.223 0 0zm-4.83-.07c-1.115-1.53-.917-.278 0 0zm-10.202-.237c1.4-.65-.552-1.01-.402.142.134.08.33.088.402-.142zm17.21-.166c-.225-1.643-.31 1 0 0zm-82.777.142c1.866-.33 3.613-1.1 5.492-1.42 3.06-.86 4.998-3.85 8.19-4.474 1.022-.33 3.74-.27 2.948-2.048-3.36-1.095-6.943-1.656-10.475-1.952-2.394-.372-4.432-1.565-6.486-2.746-2.276-.665-5 .108-6.863 1.586-2.017 2.143.136 5.193 1.37 7.078 1.64 1.692 3.162 4.063 5.823 3.976zm10.68-7.776c-.037-.16.166.055 0 0zm79.848 7.717c.49-.698 1.32-2.19.058-.723-.04.178-.593.987-.058.723zm-53.958-.226c1.634-.903 1.038-3.97-.828-4.426-1.802-.708-4.88-2.127-5.563.7.033 2.16 1.925 3.91 4.118 3.456.755.137 1.486.39 2.273.26zm44.974-.024c-.124-1.102-.32-3.532-.78-3.787.642 1.276-.243 2.592.78 3.787zm-3.598-.284c-.163-.675-1.206-2.668-1.23-1.804.414.525.83 1.605 1.23 1.804zm5.15.06c.423-.764-.1-3.035-.155-.937.01.327-.24.782.155.937zm5.667-.245c.398-.62 1.75-2.648.45-1.094.058.35-.818 1.087-.45 1.094zm79.557-.124c2.792-.158 3.75-3.278 4.947-5.28 1.254-2.38.25-5.632-2.533-6.344-2.42-1.22-5.078-.48-7.362.615-3.857 1.178-7.842 1.87-11.8 2.556-.35.85 1.578 1.106 2.286 1.704 2.64 1.07 4.262 3.567 6.912 4.592 2.466.776 4.915 2.134 7.552 2.154zm-140.7-.047c1.156.054 2.263-.83 1.23-1.846-1.4-2.88-5.3-1.477-7.48-.33-.93-.05-2.814 1.034-1.042 1.397 2.196.158 4.29.097 6.39.757.295.06.6.058.9.024zm64.313 0c.396-.222-.14-.04 0 0zm-2.083-.166c-.115-.1-.045.166 0 0zm2.51-.07c1.187-.832.553-1.056-.166-.07-.1.088.133.124.166.07zm-80.244-.047c3.47-.648 6.504-2.666 9.908-3.527.862-1.383-1.656-1.6-2.605-1.752-2.685.51-5.08 2.042-7.635 3.006-1.3.402-2.727 1.998-.663 2.25.32.096.67.027.995.024zm64.17-.024c-.604-1.096-1.1-.834 0 0zm9.316-.413c.6-.708.185-3.014-.014-1.008.13.3-.196.854.014 1.008zm-6.38-.08c-.187-.616-1.344-2.627-.7-1.113.215.327.4 1.062.7 1.113zm7.456-.03c.313-.714.47-2.02.024-.615-.096.1-.21.778-.024.615zm42.89-.07c1.958-.552 4.337-.96 5.776-2.473 1.186-2.187-1.997-3.65-3.693-2.427-1.95.173-4.518 1.64-3.054 3.835.08.5.277 1.29.97 1.065zM97.9 33.34c.536-.745.62-1.527.01-.297.016.07-.205.346-.01.297zm51.424-.06c2.254-.67 4.605-.677 6.746-1.444-.854-1.276-2.887-1.657-4.38-2.083-1.563.29-4.107.29-4.64 2.083.004 1.162 1.26 1.67 2.273 1.444zm.757-.473c.06-.085.06.085 0 0zm-55.518.132c.24-1.86-.007-.522 0 0zM72.9 32.9c.133-1.417-1.38-2.974-2.274-4.142-1.01.035.392 1.7.76 2.4.492.537.734 1.6 1.515 1.733zm1.752-.19c.168-1.627-1.126-3.42-2.32-4.474-.404 1.1 1.425 2.196 1.704 3.45.177.303.24.946.615 1.023zm17.942-.21c.245-1.517-.663-1.128 0 0zm1.35-.097c.353-1.18-.56-1.257-.213-.047.018.088.155.137.213.047zm-3.797-.08c.118-.98-1.072-1.4-.274-.298.04.14.038.34.274.298zm25.63.004c1.08-.717 2.56-2.588 1.79-3.852-.666 1.172-1.177 2.59-1.917 3.74.04.038.076.21.126.112zm-2.66-.09c1.027-1.09 2.016-2.45 2.65-3.847-1-.68-1.8 1.646-2.462 2.403-.186.38-1.012 1.342-.19 1.444zm51.2-1.09c2.06-.075.74-1.766-.473-2.083-2.468-1.724-5.61-2.047-8.498-1.183-.863-.027-3.148.653-1.373 1.136 2.237 1.285 4.68 2.176 7.315 1.965.994.16 2.024.196 3.03.166zm-60.916-.697c-.673-2.667-1.463-6.62 1.147-8.487 1.362.158 1.33-.858.095-.473-2.316.856-2.498 3.953-2.556 6.06-.018.902.227 2.744 1.314 2.9zm2.9-.155c1.433-.427-.616-.654-.935-.828 1.29-.67-.602-2.86-1.077-1.184-.71-.54-.256-3.274-.9-1.373-.236 1.66.926 3.84 2.91 3.385zm-24.878-.52c.162-.62-1.12-1.53-1.467-2.32-.784.457.9 2.262 1.467 2.32zm2.617-.152c1.04-1.242.54-4.284-1.268-3.896-.4 1.375 1.938 1.75.994 3.22-.025.183-.1.846.274.676zm1.396-.12c.904-2.685-.426-6.057-2.687-7.682-.617-.54-2.69.187-1.657.757 2.623-.278 3.67 2.906 4.26 4.947.387.412-.67 2.133.084 1.978zm-48.088-.108c1.423.022 2.825-1.35.876-2.2-3.102-1.453-6.217-3.012-9.61-3.763-4.926-1.363-10.15-2.7-15.233-1.823-1.042 1.317 1.738 1.51 2.592 1.775 6.29.468 12.535 2.035 18.062 5.065 1.13.285 2.092 1.118 3.314.947zm111.23-.9c4.292-.934 8.277-3 12.617-3.81 3.857-1.142 7.852-1.82 11.735-2.746.65-1.55-2.42-.93-3.166-.9-5.414.468-10.73 1.528-15.883 3.195-2.348.895-5.407 1.062-6.865 3.343.11.652 1.008.9 1.562.918zm-79.7-.568c.65-.496 2.72-.695 2.083-1.54-.658.112-2.773.788-2.083 1.54zm39.6-.118c.83-1.76.165-4.47-1.886-4.97.723.972 2.605 2.4 1.838 4.12.268.207-.35.92.048.852zm-9.137-.355c1.036.222 1.2-2.2.663-.792-.322.646-2.304.34-.923.816l.26-.024zm-10.865-.19c1.18-.06 1.573-1.202.166-.544-1.053-.836-1.468.166-.166.544zm30.038-.107c-.11-.946-2.483-1.352-1.09-.366.366 0 .847.602 1.09.366zm-23.53-.46c2.16-.396 2.966-2.85 5.042-3.432 1.19.12 2.312-3.72.876-2.627-.398 1.828-2.602 2.295-3.574 3.432.142 1.507-2.106 1.862-2.485 2.604.072-.1.103.12.142.024zm-3.206-.413c-.6-.91-1.62-1.72-1.657-2.96-2.07.2-3.112-2.045-4.594-2.698-.215 1.842 2.2 3.414 3.93 3.35.695.8.992 2.37 2.32 2.31zm7.456-.473c.586-1.734-1.524.197 0 0zm-10.9-.155c1.685-1.816-1.945-1.517 0 0zm31.174-.426c.624-.722 1.82-1.947.19-2.225-1.555-.557-.7 2.114-.19 2.225zm-49.874-.047c.932-.862-.228-3.068-1.373-1.586-1.476.858.667 1.49 1.373 1.586zm11.504-.237c1.396-.74-.562-2.21-1.276-.876-.824 1.3 1.02-.32 1.276.876zm13.02-.592c.997-.547.616-.97-.308-.402-1.38.318-.5.52.308.402zM65.4 23.29c.51-.82 1.287-1.577 1.917-2.225-.853-.39-2.238 1.072-2.51 1.965.117.194.362.346.592.26zm28.145-.38c1.41-.33-.35-1.707-.473-.27-.03.3.28.325.473.27zm2.604-.108c-.107-.428-.117.304 0 0zm-4.296-.4c.4-.95-.905-1.97-.25-.5.177.185-.165.783.25.5zm5.053-.13c.144-1.245-.453-1.288-.047.095l.024.047.024-.142zm-5.894-.047c-.125-.905-.397-.086 0 0zm5.103.06c.386-.873.138-2-.108-.442-.07.14.02.338.108.442zm25.493-.308c-.056-.906-2.386-1.62-2.972-.912.487.722 1.853.597 2.735.97l.237-.058zm-24.18-.168c-.374-.128.02-.074 0 0zm-5.042-.001c.26-.93-.77-1.494-.213-.246.054.05.112.37.213.246zm2.972-.185c.385-.68.333-2.395-.138-.8.16.25.05.588.138.8zm2.685-.286c-.054-.288-.054.288 0 0zm-5.265-.21c.415-.93-.71-1.047 0 0zm2.235-.434c.47-1.19-.483-1.336-.142.066.01.108.205-.067.142-.066zm-1.88-.276c.294-.765-.545-.45 0 0zm-27.21-.368c1.25-.63-.243-2.436-.852-.568-.55.69.37.56.852.568zm56.502-.7c1.454-1-1.45-1.745-.32-.024.088.07.223.048.32.024zm-58.775-.757c1.574.394.648-2.508-.19-.544-.155.182-.373.8.19.544zm60.266-.876c1.173-.498-1.276-1.252-.07.046zm-65.52-.497c.325-.565 1.114-.992 1.315-1.528-.9-.298-1.205 1.054-1.315 1.528zm30.572-.13c-.518-1.57-3.524-2.6-5.375-1.552-1.236 1.48 2.208-.144 2.664.473 1.02.066 1.79.808 2.712 1.078zm9.03-.25c1.842-.802 3.953-1.374 5.823-1.16-.618-1.28-3.254-.628-4.545-.095-.473.12-1.718.914-1.278 1.255zm-36.098-.615c.823-.338-.535-2.665-.46-1.146-1.964-.452-.3 1.032.46 1.146zm63.414-.237c.884.323 1.93-2.15.852-.925-.092.293-1.064.9-.852.925zm4.497-.258c.34-1.114-1.655-2.302-2.083-1.434.77.482 1.622.687 2.083 1.434zm-48.086-.486c.357-.958-1.303-.158 0 0zm24.003-.023c1.24-.855-.42-1.357-.416-.156.05.18.257.23.416.156zm-43.26-1.22c.246-.695 1.58-2.434.024-1.35-.228.36-.513 1.202-.024 1.35zm45.306-.213c1.045-.504.244-1.68-.426-.473-.095.296.015.905.426.473zm-27.823-.46c.344-.88-1.563-1.14 0 0zm45.873-.64c.987-1.23-2.162-2.258-1.836-1.338.85.18 1.264.907 1.836 1.338zm-16.085-.865c.415-1.062-1.757.21 0 0zm-30.782-.342c.923-1.286-1.878-1.08-.386-.47-.067.19.138.577.386.47zm31.718-1.16c.475-.713 2.188-1.64.105-1.362-.494.113-.9 1.396-.105 1.362zM77.187 9.028c.206-1.548-2.196-.5 0 0zm35.388-.805c.035-.816 1.866-1.073.105-1.102-.57.047-.85 1.245-.105 1.102zm-37.223-.818c1.375-.965-2.212-.65-.52-.237.216-.102.347.17.52.237zm39.117-.413c.507-.675.622-1.604-.44-.5-.1.328.02.745.44.5zm-41.39-.865c.832-1.082-2.202-1.527-.592-.45.232.12.224.6.592.45zm43.472-.934c.64-.582 1.01-1.785-.108-.936-.22.26-.597 1.093.108.936zM70.465 4.72c-.425-.964-1.845-.23-.18-.013.06.02.116.097.18.013zM67.35 3.524c.52-1.34-1.728-.834-.166-.07l.166.07zm51.484-.142c.5-.292 1.35-1.4.106-1.065-.398.037-.737 1.24-.106 1.065zm-53.52-.852c1.553-1.028-1.34-1.054-.284-.047.086.044.187.106.284.047zm55.532-.166c.603-1.594-1.447.31 0 0zM42.165 133.027c-1.56-.285-2.325-1.58-2.627-3.006.04-2.058-2.34-.356-3.408-1.184-2.06-.985-3.142-3.386-1.87-5.434.563.44 1.127 2.4 2.604 2.333 2.105.262 3.128-2.84 5.528-1.87.16-.712.544-1.303 1.597-1.325 1.196-.154.54-1.002-.166-1.467.506-.532 2.498-.512 1.184-1.42-1.12-1.02 1.93-.654 2.557-.947 1.4-1.02-2.44-2.2-.994-3.693 2.952-2.42 3.582-6.804 7.196-8.545 1.44-.912 2.835-.397 4.338-.605-1.35-1.547-1.617-3.562-.858-5.454.57-1.783 1.835-3.344 2.367-5.113 1.823-3.646 5.296-6.192 8.024-9.113 1.13.156 2.23-.183.805-.852-.387-1.024-.727-3.024 1.084-3.243 1.996-1.607 4.147-2.61 6.586-3.266.747.554-.838 2.14-.85 3.243-.56 1.866.026 4.032-1.538 5.42-.51 1.706-2.796-.88-2.51 1.28-.107 3.11-1.42 5.9-2.39 8.806-1.384 2.054-2.242 4.398-2.555 6.818-.026 1.37-.384 2.785-1.988 2.793-1.8.535 1.41 1.02.474 1.982-2.553 3.327-5.958 5.9-8.616 9.072-.56 1.48-2.354 1.73-3.456 1.93-2.07.44-.916 3.242-1.207 4.793-.093 2.28-1.75-2.5-2.296-.426-.197.726-.54 2.486-1.183 1.006-1.603-1.978-.85 2.92-2.4 1.456-1.545-1.525-1.43 1.525-2.4 2.202-.09 1.577 1.84 1.815 2.87 2.097-.92 1.293-2.39 1.907-3.92 1.734zm.534-1.62c-.39-.658-.89-2.098-1.754-2.428-.608 1.06 1.102 2.2 1.754 2.428zm-2.617-3.398c1.11-.263 2.68-1.352 2.722-2.39-1.504.23-2.25 2.536-4.237 1.538-1.095.012-2.41-.48-3.172-.615 1.212 1.08 3.143 1.087 4.687 1.467zm5.255-3.22c1.794-.986-1.718-2.205-1.042-.692.283.24.636.705 1.042.692zm2.76-1.478c.845-1.206-1.404-2.255-1.386-.937.354.358.882.926 1.386.937zm1.407-2.073c.512-.676-2.4-1.684-1.917-.923.574.442 1.324.537 1.917.923zm-2.84-6.154c-.116-.11-.045.166 0 0zm6.96-1.018c1.5-.603 3.567-1.443 3.896-3.16-1.313.862-2.982 2.068-4.055 3.15l.16.012zm-3.088-.603c1.056-2.46 3.007-5.506 5.928-5.457 1.778.3 3.95 1.645 5.54.64-2.437.076-4.93-1.916-7.286-1.182-2.157 1.34-3.738 3.673-4.3 6.06l.118-.058zm3.75-1.954c1.37.136 2.202-2.714.45-1.87-.488.18-1.9 1.966-.45 1.87zm4.924-9.1c.2-3.314 2.284-6.088 3.373-9.08-1.8 1.967-2.932 4.833-3.445 7.54.06.3-.43 1.93.072 1.54zm2.545.012c1.503-2.513 1.897-5.558 3.536-8.038.25-1.262 1.58-2.42 1.585-3.514-2.122 1.254-2.962 3.877-4.26 5.928-.745 1.795-1.84 3.848-1.277 5.752.157.147.286-.21.416-.13zM71.98 85.958c.45-1.283-1.455-3.144-2.214-1.49 1.02-.005 1.478.83 2.214 1.49zm-.084-2.9c.755-.38 2.54-.895 2.225-1.8-.92.278-2.514.735-2.598 1.762l.213.058.16-.022zM81.98 123.18c.06-.085.06.085 0 0zm-.095-.142c.06-.085.06.085 0 0zm44.856-1.94c-3.08-.696-6.61-2.178-7.48-5.562-.946-2.166-1.334-4.57-1.68-6.888-.536-5.78-.505-11.89 1.585-17.34.442-.683 1.523 1.748.484 1.906-.818.822 1.336 1.426-.142 1.8-.716.637.182 1.464-.58 2.178-.395.95 1.202 1.233.355 1.988.686 1.145-1.62 1.805-.26 2.746.88.774-2.104 1.965-.188 2.272.63-.443 2.246.044.936.474-1.578.1-.07 1.823-.587 2.357-.695 1.322.71 2.53 1.686 1.312 1.22 1.484-2.455.95-1.302 2.675.447.33 2.285.245 1.397 1.254-1.548-.226-1.248 1.062-.38 1.633-.77 1.145.465 2.325 1.373.923.478.246-1.07 1.804.473 2.083 1.088-.53 2.292-.305 2.154 1.278.72.524 1.946-.124 2.628.923 1.358.854 2.454-1.942 3.338.26.674 1.26-1.39 1.356-2.202 1.728l-.805.024-.805-.024zm-2.983-2.604c1.534-.616-1.247-1.737-.568-.224a.51.51 0 0 0 .568.224zm-63.793 2.225c-1.294-.39-3.377-.266-3.93-1.628.463-.92 1.67-2.354 2.178-.722.852 1.29 3.04-.06 2.462-1.357 1.2-.742 1.19 2.207 2.556.913.714-.44 2.467-.033 1.515-1.54-.095-1.435 2.754-.55 2.414-2.237-.644-1.177-2.66.722-2.13-1.23.654-.167 2.355.253 2.06-1.337.854.306 2.186-1.344.78-1.468-.555-.1.102-1.558-.2-2.154.887.5 2.522.03 1.8-1.206-1.15-.57-.552-1.25.213-1.8-.003-1.07-.948-1.87.403-2.533.045-.9-1.31-1.73.047-2.29.652-.962.685-2.063-.237-2.822.61-.647 1.512-1.254.473-2.136.092-.963 1.02-2.805 1.396-1.06.592 5.533.065 11.32-2.034 16.523-.928 3.802-2.606 7.92-6.508 9.587-1.03.43-2.163.534-3.27.496zm66.444-2.698c-1.362-.618.46-2.595.97-1.018.2.605-.35 1.205-.97 1.018zm-67.107-.615c-1.763-.93 1.344-2.143.734-.45-.133.204-.454.508-.734.45zm2.888-1.184c-1.754-.402-.077-3.29.923-1.515.098.57-.046 1.75-.923 1.515zm77.048-.497c-1.183-.973.824-2.058-.284-3.103.745-.432 2.497.105 1.823-1.608-.683-.917.16-1.08.96-1.184.33-.73-.554-1.527-.297-2.415-.768-.797.14-2.268-1.35-2.315.344-.998-.523-1.86-.7-2.61.66-1.466-1.617-1.376-1.184-.105-1.933.197.022-1.857-.757-2.712-.462-.863-.25-2.244-1.645-1.633-1.25-.503-.06-2.854-1.99-2.225-.733-.883-1.358-1.735-1.145-2.9-.644-.963-2.252.044-1.846-1.574-1.282-.3-2.14-1.538-2.793-2.77 1.856-.195 3.083 2.074 4.734 2.84 3.1 3.115 6.237 6.35 8.45 10.18 1.662 3.354 3.447 7.32 1.632 11.008a5.28 5.28 0 0 1-3.597 3.124zm-75.107-.047c-1.51-.668 1.196-1.952.686-.26-.117.25-.45.296-.686.26zm59.77-.757c-1.56-.13-.967-2.532.51-1.823.837.5.587 1.995-.51 1.823zm-60.1-1.988c-1.45-1.04 1.562-2.19.994-.474-.224.312-.583.6-.994.474zm-16.617-.615c-2.366-1.105-2.44-4.458-1.586-6.652 1.07-4.956 4.795-8.896 8.64-11.954 2.87-1.65 5.258-4.097 8.38-5.207.902-.148 2.47-.39.947.7-.6 1.378-2.687.66-2.367 2.428-.677-.1-2.183-.91-2.414.568-.776 1.163-3.18 1.86-2.367 3.644-.616 1.146-1.953-2.067-2.083.2.563.977-1.914.47-1.657 2.012-.772-.336-2.272-.384-1.8 1.006 1.118.284 1.075.85.07 1.526.1 1.677-.6.84-1.325.19-1.42.207-1.125 1.92.07 2.083-.48 1.204-.736 1.378-1.894 1.16-1.124.656.243 2-1.136 2.414-.974 1.45 1.788 1.367 1.457 2.427-1.232-.16-1.368 1.2-.605 1.8.13.787 1.21 1.442-.33 1.633zm90.635-.237c-1.946-.56.255-3.28 1.09-1.326.386.77-.398 1.368-1.09 1.326zm-14.06-.095c-1.52-.558.804-2.248.805-.644-.046.378-.375.792-.805.644zm-2.036-.615c-1.96-1.116 1.504-2.622 1.23-.686-.113.457-.8.73-1.23.686zm-55.84-1.373c-1.264-1.44 2.065-1.06.426 0l-.213.024-.213-.024zm72.693-.426c-1.528-.806 1.317-1.89.805-.266-.165.278-.52.327-.805.266zm-2.556-1.515c-1.593-1.064 1.716-2.367.9-.27-.166.32-.595.32-.9.27zm2.604-.237c-1.78-.836.436-2.977 1.302-1.35.406.89-.61 1.37-1.302 1.35zm-89.168-.142c-1.723-.84 1.25-3.088 1.444-.97-.122.66-.752 1.16-1.444.97zm17.493-.734c-1.318-.968.883-2.43 1.113-.715.017.504-.697.828-1.113.715zm54.3-.497c-2.064-1.672 2.2-1.327.284 0l-.142.024-.142-.024zm16.333-1.184c-1.594-.474.033-2.835.757-1.065.46.493-.28 1.12-.757 1.065zm-86.61-.095c-2.384-.7.174-3.533 1.278-1.752.42.996-.28 1.803-1.278 1.752zm82.73-.095c-1.8-.636 1.075-2.09.7-.414-.175.153-.422.513-.7.414zm-13.398-1.373c-1.553-.32-.002-2.856.78-1.35.26.605.04 1.495-.78 1.35zm-52.478-.047c-1.71-2.4 2.72-1.434.402-.024-.127.05-.27.064-.402.024zm-13.87-.284c-1.436-.518.03-2.227.734-.97.142.457-.137 1.197-.734.97zm79.652-.426c-1.648-.532.194-2.77 1.042-1.202.485.732-.42 1.253-1.042 1.202zm-80.788-1.278c-2.216-.305.657-3.173 1.042-1.065.137.495-.55 1.11-1.042 1.065zm82.682-.568c-1.82-.41.102-2.552.805-.947.11.413-.363 1.025-.805.947zm-14.63-.615c-1.632-.66 1.098-2.168.592-.308-.064.238-.367.376-.592.308zm-52.4-.155c-.833-1.522 1.986-.626.538.108-.173-.013-.447.135-.538-.108zm-12.86-.697c-2.908-.657 1.142-3.012.568-.414-.126-.167-.327.575-.568.414zm77.853-.473c-1.47-.842.862-2.626 1.018-.83-.065.48-.483.987-1.018.83zm-12.972-2.556c-1.416-1.25 1.703-1.108.284 0l-.142.024-.142-.024zm12.12-.284c-2.196-.23.494-2.505.38-.32-.054.08-.208.44-.38.32zm17.422-.047c-1.113-.156-3.908-.872-2.32-2.297 1.56-1.2.136-3.347-1.515-2.154-1.132.576-2.373-1.67-2.783.1-1.22-.412-1.803-2.73-2.93-1.355-1.12-.5-2.145-1.334-2.83.142-1.787.658-3.185-1.367-4.704-2.083-1.74-1.882-4.182-3.54-5.072-5.94-1.32.57-1.225 2.378-1.837 3.196-1.36-1.678-.693-3.98-1.145-5.894-.465-2.516-2.99-3.904-3.882-6.13-.155-.825-.348-3.745-1.396-1.94.14 1.82-1.42 1.228-2.25.308-1.833-1.583-3.69 1.392-5.705.64-2.207.225-1.583-2.98-2.958-4.15-1.682-1.578 1.157-2.74 2.39-3.402 2.168-.987 4.382.274 6.5.497 1.306-.285 4.176-.316 4.196 1.48.14.752-1.12 2.28-.503 2.377 3.237-1.65 6.725 1.204 8.333 3.906 1.51 1.89 2.203 4.447 2.27 6.79-.672 1.24 2.03.912 2.793 1.52 1.61.66 3.64.9 4.782 2.27.335.82-.417 2.082.947 1.468 1.12-.37 2.8-.427 2.307 1.22.864.277 3.34-1.468 2.83.367-.615 1.296 1.657-.878 1.326.663-.287 2.583 2.225-.612 3.03 1.136 2.25.983.9-2.195 1.58-3.2 1.916 1.015 3.81 3.888 2.23 5.94-.737.825-2.856.367-1.49 1.852.1 1.198-.9 2.734-2.203 2.676zm-.876-1.49c1.276.278 2.474-2.307 1.515-2.604.138 1.213-.787 2.444-1.917 2.533l.214.118.19-.046zm2.39-3.208c.64-.574 2.045-1.575 1.09-2.426.148 1.827-1.977 2.02-3.114 1.337.015.713 1.36 1.19 2.025 1.09zm-2.448-.992c.195-.93-1.796-.398-.37-.156.25-.1.123.285.37.156zm-3.517-.132c1.403-1.71-2.47-1.12 0 0zm2.333-.2c-.046-.22-.458.227 0 0zm-4.984-.274c.847-.612 1.06-2.52-.32-1.397-.71.3-.054 1.247.32 1.397zm-2.45-1.29c.882-1.15-.78-1.593-1.125-.723.276.36.61 1.026 1.125.723zm-2.603-1.467c.332-1.263.838-3.127-1.008-3.21-1.243-.155-2.36-.928-3.598-.98 1.415.95 3.6 1.145 4.498 2.685.028.266-.4 1.666.108 1.505zm-9.256-9.87c-.47-2.273-1.967-4.818-4.165-5.842-.905.94 1.73 2.09 2.187 3.097.834.746 1.214 2.163 1.977 2.745zm-10.215-7.635c.434-.732.147-1.836 1.16-2.32-1.058-1.47-2.744 1.95-1.16 2.32zm-3.03-1.49c1.742-1.8-3.84-1.66-2.06-.166.656.22 1.37.023 2.06.166zM57.93 95.508c-1.624-1.1 1.576-2.245.805-.32-.17.244-.517.385-.805.32zm-18-2.746c-1.893.022-3.026-2.298-1.894-3.848-2.44-1.208-2.403-4.88-.095-6.236.966-.23 2.873-1.434 3.22-.473-.52 1.233-1.798 3.786.592 3.717.964.214 1.816 1.008 1.728-.592.796.43 1.06.656 1.515 0 .712.524 1.886.964 1.23-.45-.74-1.853 1.68.188 1.99-.52-.348-.82-1.07-2.716.427-1.776 3.162.378 5.52-2.914 8.76-2.318.798-1.107.03-3.035.828-4.426 2.02-4.265 6.6-6.38 10.676-8.237.9.002 1.627.067.663-.918-.983-1.188.192-2.575 1.586-1.852 2.296.29 4.474.802 6.746.402 1.166.28 3.8.562 2.486 2.296-.918 1.567-1.582 3.44-2.485 4.877-1.603.764-2.496-2.073-4.308-1.018-.76.585-2.087.71-1.8-.64.143-1.682-.5-.93-.592.26-1.753 4.318-5.08 8-5.797 12.736-.24.68-.942 2.93-1.585 1.563-.115-.957-.832-3.492-2.058-2.036-2.036 2.61-5.07 3.798-7.902 5.207-1.375.367-2.02 2.6-3.296 2.367-.427-.706-.868-1.745-1.49-.426-.585 1.507-2.117.624-2.036-.7-1.39 2.102-1.266-.63-1.988-.152-.403 1.305-2.188 1.38-2.012-.19.15-1.787-2.552.894-1.775 1.87.693 1.233-.068 1.705-1.333 1.512zm.156-1.24c-.832-1.552.342-2.965 1.573-3.612-.88-.775-2.423-.32-3.288-1.373-.77-.34-.856-2.687-1.185-.83.004 1.403 2.12 1.813 2.225 2.912-.616.944-.43 2.554.676 2.9zm6.046-3.114c1.282-.4-.177-1.984-.237-.508l.053.472.183.036zm-1.586-.07c1.505-.693-1.633-1.687-.402.024l.184.024.218-.047zm3.622 0c.3-.92 1.527-2.303-.332-1.68-.152.458-.037 1.473.332 1.68zm3.256-1.194c.21-1.132-.73-2.49.77-2.995 1.252-1.333 3.476-1.316 4.735-2.295-2.344.14-4.788 1.408-6.368 3.03.36.693.51 1.813.865 2.26zm4.035-1.244c1.047-.142 2.588-.88 2.7-1.954-1.35-.238-2.248 1.37-3.55 1.515-.22.452.608.45.852.44zm-16.22-.537c-.177-.64.333-2.465-.398-1.115-.092.366-.267 1.26.398 1.115zm18.173-3.403c-.114-.365-.486.135 0 0zm6.472-.605c.83-.77.403-.532 0 0zm-.602-.342c.068-.547-.76.01 0 0zm-3.47-.984c.727-2.86 2.04-5.785 4.45-7.74.38-.476 2.72-2.126 1.283-1.657-2.846 2.184-6.308 5.257-6.16 9.173.067.148.257.307.426.224zm3.066-2.78c.75-1.856 2.683-3.977 3.42-5.126-1.725.898-3.937 2.948-3.74 5.126l.137.105.183-.105zm5.255-3.077c.405-.56.655-2.11.082-.794.023.184-.473.97-.082.794zm4.9-5.326c.57-.72-.216-3.365-1.22-2.498.144.912 1.448 1.537 1.054 2.58l.166-.082zm4.958-.44c1.686-1.082-1.494-2.165-2.367-1.54-1.804.29.8 1.192 1.468 1.397.296.046.604.176.9.142zm37.045 17.587c.06-.085.06.085 0 0zm.7 0c.06-.085.06.085 0 0zm-42.773-22.9c.124-.175.048.243 0 0zm9.942-28.43c.12-.17.12.17 0 0z"/></svg>