<svg xmlns="http://www.w3.org/2000/svg" width="589.455" height="393.116" viewBox="0 0 155.96 104.012"><path  fill="currentColor" d="M31.348 104.007c-.082-.112.244.037 0 0zm.555.001c-.15-.11-1.065-.068-1.357-.073-.234-.04-.917.002-1.02-.05l-6.947-.202c-1.013-.016-2.208-.31-3.4-.26-1.003-.1-1.737-.64-.567-1.316l4.206-1.318c1.48-.528 4.27-1.363 6.128-1.733 2.144-.755 4.18-.12 6.153-.727 2.768-1.62 5.835-2.235 8.902-2.505 2.31-1.49 4.98-2.544 7.6-3.28 1.906-1.637 4.622-1.768 6.736-2.963 1.635-1.4 3.804-2.008 5.708-2.676 1.268-1.557 3.553-1.512 4.715-3.13.94-.61 1.862-.47 2.06-1.755 1.77-1.343 3.182-2.895 4.832-4.242 1.712-1.485 3.32-3.6 5.678-4.305.3-1.5 1.99-2.54-.048-3.44-4.384-3.19-9.676-4.708-15.022-5.243-7.678-1.35-15.574-.948-23.34-1.315-9.584.147-19.335.268-28.593 2.716-1.92.285-3.82.9-5.256 1.562-.593.206-1.052.57-1.487.696-1.19.187-1.786.75-2.794.935-.656.524-1.214.4-1.46.716-1.24.03-1.9.574-3.062-.242-.475-.995-.19-2.232.275-2.433.78-.37 1.014-1.27 1.92-1.42 1.104-.74 2.81-1.933 4.18-2.316 1.235-.7 2.042-.58 3.335-1.33 3.19-.663 5.75-1.825 9.15-1.867 7.216-.956 14.542-1.15 21.792-1.182 2.96-1.388 6.336-1.083 9.346-2.305 2.402.26 3.39-2.363 5.863-2.1.822-1.154 2.575-1.033 3.466-1.64-.024-2.126 2.65-2.1 3.57-3.754 3.246.155.204-2.013.843-3.86-1.757-1.71-.606-4.53-2.438-6.2-.877-1.538-.56-3.272-2.194-4.44-1.14-1.846-.978-4.155-3.007-5.53-3.38-3.823-5.823-8.434-8.62-12.75-.84-1.772-1.612-2.948-1.885-4.492-.65-1.358-.86-4.117-.316-5.363.29-.728 1.086-3.08 2.517-2.904.4 3.195 1.744 6.26 2.998 9.2 4.06 8.592 9.882 16.288 16.3 23.3 6.17 5.69 11.948 12.083 19.708 15.6 5.135 1.953 10.446 3.74 15.958 4.157.966-.623 1.406-2.4 2.632-3.053.8-1.267 1.877-2.264 3.153-2.603.522-1.7 2.872-1.52 3.657-3.086.798-.637 2.263-1.223 3.227-2.015.973-.58 3.948-1.34 2.527-2.057-1.85-.743-3.656-3.807-1.823-5.187-.636-1.158-1.884-3.76.415-4.205-.487-.39-1.212-1.83-1.38-2.928-.073-1.532 1.833-2.137.44-3.563-.837-1.584.392-3.307 1.92-3.792-1.116-1.228-2.122-3.97.088-4.734-1.56-1.088-.896-4.97 1.322-3.782.706.357-.57-1.156-.554-1.734-.345-1.653 1.443-2.793-.38-4.01-.087-2.26-2.975-2.997-3.18-5.29-.72-1.317-2.3-2.888-.623-4.185 3.39.703 6.297 2.976 8.975 5.086 5.832 4.373 10 10.57 14.65 16.104 1.762 2.582 3.195 5.338 4.89 7.958 3.084 5.054 4.91 10.79 7.125 15.967 1.58 4.286 1.7 8.822.815 13.262-.353 1.658-1.116 3.21-1.743 4.325-1.672 2.638-4.405 3.76-5.695 6.58-.862 1.158 1.185.644 1.51 1.473 3.273 1.36 5.98 4.122 7.936 6.46.768 1.708 2 3.13 2.155 4.81.317 1.596.268 2.922.293 3.933.144.755-.3 1.516-.49 2.637.16.322.28 1.39.542 1.657.24.97.272 1.2.434 2.277.055.362.145 1.148.012 2.297-.698.21-1.375-.7-1.887-.82-.653-.233-1.217-.487-1.674-.607-.494-.256-1.993-.59-2.664-.886-.32-.23-1.73-.174-2.042-.324-1.43-.73-3.108.132-4.447.504-.854.438-2.484.532-3.008.686-.9.076-2.3.24-3.242.365-2.404.538-6.202.22-8.46.518a23.35 23.35 0 0 1-2.466-.466c-2.388.105-5.28-.49-7.208-.888-1.88-.147-4.368-1.466-6.4-1.365-2.955 1.25-6.35 2.367-9.326 3.125-2.446.787-4.868 1.017-7.344 1.787-2.48-.04-5.2.758-7.703 1.264-1.8.545-3.614.797-5.615 1.138-2.12.197-3.962.396-6.048.396-1.23.365-2.673.154-3.977.578-3.293-.143-6.323.7-9.616 1.118l-9.8 1.243c-1.914.388-4.254.745-5.738.693-3.45.45-7.14.736-10.492.992-1.512.112-3.327-.003-4.842.133zm3.172-.09c-.166-.11-.05.065 0 0zm-6.387-.1c-.122.005.036.145 0 0zm.277 0c-.122.005.036.145 0 0zm.277 0c-.122.005.036.145 0 0zm7.493.008c-.064-.012-.165.1 0 0zm-15.26-.285c-.122.005.036.145 0 0zm21.917-.27c-.064-.012-.165.1 0 0zm-12.676-.763c1.144.077 2.81-.246 3.338-.17 1.417-.272 2.68.096 4.314-.36.384.25 1.49-.1 1.98-.058 1.457-.34 3.193-.417 4.487-.5 1.495-.15 3.073-.33 4.67-.562 2.887-.15 6.38-.778 9.526-1.188 3.066-.68 5.92-.837 8.99-1.05 2.043-.285 4.163-.698 6.505-.965-1.018-.445.788-1.204-1.194-.784L60.16 98.652c-2.082.258-3.618.2-5.718.29-4.262-.19-8.672.742-12.898.75-2.996.218-6.56-.123-9.586.333-.502-.054-1.572.014-2.5.15-1.964.394-4.66.796-5.998 1.766-.275.01-.614.466.172.068.605.487 1.57.05 1.852.255.592.048 1.73.042 1.997.053.818.15 2.173.136 3.236.185zm.35-.025c.388-.064.065.078 0 0zm-5-.22c.028-.072.275.047 0 0zm8.07.03c.12-.148.128.048 0 0zm.61-.057c.1-.084.027.105 0 0zm-11.72-.022c.08-.104.08.104 0 0zm.83-.002c.05-.077.3.054 0 0zm.832 0c.05-.077.3.054 0 0zm11.756-.01c.1-.084.027.105 0 0zm2.38-.216c.028-.072.275.047 0 0zm.28.006c.023-.14.257.018 0 0zm4.182-.53c.12-.148.128.048 0 0zm.258-.02c.045-.083.132.127 0 0zm.595-.003c.1-.084.027.105 0 0zm2.753-.255c.12-.148.128.048 0 0zm7.466-.905c.128-.048.12.148 0 0zm-23.85-.183c-.098-.136.15-.004 0 0zm7.957-1.4c2.664-.44 5.88-.305 8.69-.56 3.124-.345 6.013-.323 9.31-.8 2.974-.323 4.956-.32 7.74-.7 3.067-.18 6.278-.555 9.412-1.058 1.65-.114.858-.666-.163-.354-4.086.398-8.01.313-12.127.743-6.865.358-13.77.75-20.54 1.434-.784.194-2.605.744-2.435 1.3l.117-.013zm7.302-.51c-.042-.123.107.015 0 0zm40.89-.194c-.122.005.036.145 0 0zm-9.745-.546c1.92-.053 3.685-.187 5.348-.256 3.455-.304 7.233-.883 10.376-1.82.536-.072 2.248-.95.98-.76-.68-.53-2.156 1.133-2.015.26-.753.343-1.332.56-1.65.38-.58.21-1.55.695-1.418.195-.67.384-2.293.46-2.948.33-.427.19-1.943-.163-2.576.394-.6-.08-1.344-.015-2.273.054-.68-.08-2.775.022-1.14-.454 1.64-.024.37-.518-.52-.38-.98-.05-3.3.656-2.794 1.898.076.25.454.165.632.16zm17.115-2.895c-.083-.173.073.057 0 0zm-27.75 1.982c-.166-.11-.05.065 0 0zm-17.614-.754c3.09-.578 6.558-.5 9.734-.907 6.09-.9 12.516-.54 18.44-2.497 1.86-.524 1.14-1.023-.472-.502-7.89.915-15.885 1.625-23.8 1.994-1.57.3-3.582.747-4.585 1.87.17.16.563-.076.672.04zm6.206-.59c.016-.093.205.03 0 0zm40.546-.062c2.735-.347 5.753-.97 8.135-2.386.166-.417-1.762.266-1.44.09-.68.548-1.343.013-1.932.792-.934-.008-.605-.366-1.646.406-.502-.194.837-1.31-.548-.387-.957.27-.457-.93-1.404.173-.426.442-2.68.977-1.165 1.312zm7.025-2.538c.002-.165.18.02 0 0zm-18.428 2.29c1.562-.298 4.88-.42 6.865-.944 2.23-.506 4.454-1.093 6.4-1.995-.444-.536-2.177.886-2.415.49 1.035-1.195-1.3.418-1.95.528.996-1.46-1.41.682-1.263.025.862-1.184-1.364 1.1-1.44.08-1.215.845-2.754.268-2.043.233-.618.024-1.26-.025-1.95.187-.793.096-.577-.386-1.388-.316-1.275.167-1.49-.34-2.282-.528-.977.02-3.02.507-2.825 1.683 1.35.634 3.032.285 4.3.558zm71.917-1.458c-.134-.12.008.166 0 0zm-1.18-.27c.46-.873.04-1.547-.366-2.767-.494-.873-.7-1.538-1.557-1.84-.417-.365-.054-1.308-.683-.617-.883-.398-1.208 1.987-2.193 1.324-1.786-.136-3.618-.765-5.54-.1.097.255 1.024.01 1.305.07 1.02.063 2.892.328 3.65.732 1.625.587 3.62 1.684 4.623 2.524.483.246.125.486.763.673zm-.155-.076c.015-.17.112.168 0 0zm.19-.017c.08-.104.08.104 0 0zm-1.386-1.028c.003-.18.164.195 0 0zm.136-.25c-1.342-.595-3.507-2.105-1.458-2.97 1.095-.034 1.637 1.165 1.123 1.703.58.085 1.472 1.42.335 1.267zm.98-.852c-.03-.292.09.127 0 0zm-1.12-.287c-.112-.214-.208-.042 0 0zm-.137-.08c.08-.104.08.104 0 0zm1.103-.01c.017-.057.208-.05 0 0zm-.097-.2c.1-.084.027.105 0 0zm-2.984-.067c.186-.126.086.092 0 0zm-2.046-.4c-.042-.123.107.015 0 0zm1.98-.03c-.058-.147.2-.035 0 0zm2.566-.394c.1-.084.027.105 0 0zm-7.876-.204c.045-.083.132.127 0 0zm2.95-.126c.038-.087.075.155 0 0zm4.555-.204c.015-.142.198.198 0 0zm-1.68-1.012c.143-.1.103.058 0 0zm-9.615 5.167c-.04-.075-.15.18 0 0zm9.46.04c-.166-.11-.05.065 0 0zm-19.296-.118c.826-.107 2.448-.132 3.047-.2 1.272-.147 2.49-.367 3.372-.555 1.374-.18 2.957-.4 3.978-.778.98-.146-.025-.99-.793-.437-.807-.08-.85-1.067-1.768-.844-.214-.407.976-.633.11-.94-1.315.328.293-1.128-1.462-.742-1.795.48-1.242-.8-.113-.46-1.413-.435-3.393-.66-4.977-.208 1.6.427-2.65.415-.773.696 1.233-.18.636.607-.136.425-.78-.24-2.91.007-.966.233.224.788-2.502.016-2.234.544.678.065 2.82.238 1.355.626-.466.44-1.526.096-2.056.48.768-.064 3.138.395 1.093.424-.98.262-1.576.07-2.41.384.418.005 1.892.343.675.514-.52.102-1.302.5-.795.42.766.43 1.658.103 2.262.308.478-.093 1.684.05 2.6.1zm2.248-.196c.078-.064.393.104 0 0zm3.978-.552c.173-.148-.01.144 0 0zm1.02-.154c-.082-.112.244.037 0 0zm-10.268-.702c.055-.107.33.08 0 0zm2.554-1.877c.002-.165.18.02 0 0zm.54-1.06c.01-.17.157.066 0 0zm-14.342 4.286c-.064-.012-.165.1 0 0zm-63.04-.12c8.296-1.02 16.61-1.355 24.978-2.55 2.363-.09 1.766-.912-.667-.46-4.12.19-8.27.365-12.378.872-4.025.51-8.545.144-12.136 2.047.001.093.13.177.202.094zm68.815-.008c1.87.044-.774-.457.468-.444.72-.216-1.385-.7-2.02-1.037-1.116-.92 3.238-.004 1.188-.737-1.792-.667 2.105.048.592-.503-1.236-.21-.76-.804.325-.637.696-.19 1.375.07.338-.303-.615-.402-1.776-.37-2.273-.993.687.187 3.145.62 1.66-.173-1.758-.75.747-.105.203-1.218.02-.597-2.728-1.336-1.236-1.336 1.266.22 4.43.758 2.508-.612.487-.992-2.595-.863-2.205-1.823 1.048.33 3.372.8 3.617-.056-.927-.256-2.51-.977-.823-.848-.664-.62 2.5 1.06 2.162.15-1.156-.775-2.82-.453-3.463-1.656-1.982-1.044-2.88.993-3.322 2.597-.883 2.402-2.34 4.77-4.507 5.77-.986.914-1.494.56-2.067 1.654-.537.316 1.295.68 1.888.953 2.362.46 4.434.968 6.968 1.253zm.48-.085c.395-.064.096.07 0 0zm.705-10.652c-.075-.203.2-.016 0 0zm18.6 10.627c.07-.16-.363.28 0 0zm-37.898.046c.492-.136 2-.464.804-.906-.736-.332-2.715 1.087-.804.906zm-.77-.254c.1-.084.027.105 0 0zm38.9.16c-.122.005.036.145 0 0zm-49.398-.216c-.043-.078-.113.21 0 0zm16.393-.058c-.17 0 .025.186 0 0zm36.89-.003c-.122.005.036.145 0 0zm-64.4-.123c3.038-.003 6.007-.182 9.146-.96.847-.152 2.296-.444 2.572-1.014-.8.16-1.85.44-2.515.398.564-.64-2.34.98-1.452.07-.655-.078-1.73.635-2.105.443.8-1.343-2.296 1.08-.984-.278-1.268-.195-.584.976-1.375-.243-1.603-.32-1.52-.75-2.506-.497-1.09.115-3.362 1.866-1.22 2.066.146.053.294.003.44.013zm9.08-1.47c.033-.116.073.094 0 0zM128.8 92.02c-.043-.078-.113.21 0 0zm-17.174-.13c-.122.005.036.145 0 0zm34.967.03c-.068-.162-.068.162 0 0zm-34.413-.307c-.122.005.036.145 0 0zm-3.927-.024c.83-.02 1.812-.727.197-.832-.403.136-1.258.955-.197.832zm-8.393-.284c.776.084 2.813-.845 2.054-1.194-.88.567-1.83-.398-1.716-.27 1.525-.556-.202-.376-.857-.012-1.32.246.923-1.14 1.33-1.46.9-.133 1.554-1.138.14-.603-1.46.417-3.696 1.223-3.537 3 .76.426 1.695.73 2.584.55zm9.69-.077c-.15-.07-.126.18 0 0zm39.936-.134c-.318-.357-2.15-.73-2.42-.832-.616-.108-2.387-.415-2.378.46 1.183-.08 2.496-.003 3.546.253.396 0 .838.26 1.252.12zm-.26-.102c.032-.116.073.094 0 0zm-4.43-.293c.01-.17.157.066 0 0zm1.735-.413c.08-.104.08.104 0 0zm9.118.643c-.037-.277-.12.263 0 0zm-45.346-.193c.49-.22 1.73-.302.6-.533-.362-.607-1.652.638-.6.533zm19.904-.23c-.122.005.036.145 0 0zm18.07.066c-.166-.11-.05.065 0 0zm-7.808-.344c-.122.005.036.145 0 0zm6.38 0c-.122.005.036.145 0 0zm-42.3-.085c.78.263 2.838-.61 1.308-.762-.604-.286.322-.973-.59-.642-.678.204-2.634 1.006-1.196.04.836-.12 2.065-.812 1.566-1.345-1.34-.095-3.332 1.355-2.07 2.636.32-.04.663.224.983.07zm50.826-.05c-.134-.12.008.166 0 0zm-40.227-.02c-.052-.074-.09.135 0 0zm-2.79-.09c.696-.056 2.393-1.14 1.125-1.425-.324.373-2.657 1.31-1.125 1.425zm.64-.19c.177-.248-.26.252 0 0zm-51.16-.174c4.54-.537 9.08-.544 13.678-1.18 2.57-.165 5.257-.24 7.763-.81-1.87-.74-5.07-.224-7.466-.3-4.4.21-8.93.22-13.21 1.433-.33.11-2.39 1.045-.766.848zm79.015-.265c-.162-.142.01.154 0 0zm-27.023-.116c.177-.248-.26.252 0 0zm41.267.02c-.134-.12.008.166 0 0zm-46.33-.068c1.995-.298 4.188-.858 5.43-2.446-.73.283-2.26 1.423-2.57 1.28.55-.322 1.43-1.007.303-.532-1.35.35-3.34 1.14-4.25.957.744-.56 1.61-.96 2.523-1.218-1.098-.723-4.05.297-3.048 1.8.527.04 1.074.242 1.612.157zm-21.943-.014c4.085-.358 8.327-.567 12.196-1.897a53.39 53.39 0 0 1-3.619.384c.296-.54-1.928-.342-1.714.048-1.346 1.065-.15-.905-1.215.096-1.063.73-.73-.515-1.718.337-.327-.557-1.362.317-1.48-.7-1.713.464-4.487.548-1.633-.66-.67-.254-2.218.602-2.756 1.47-.948 1.176 1.507.653 1.937.92zm2.32-1.682c.075-.155.038.087 0 0zm61.807 1.44c-.14-.06-.12.18 0 0zm.347-.555c-.043-.078-.113.21 0 0zm-36.038-.006c.864-.193 1.2-.93.158-.973-.273.24-1.147.868-.158.973zm.77-.397c.002-.165.18.02 0 0zm28.05-.035a2.56 2.56 0 0 0 2-1.444c.55-.95-.4-2.47-1.507-3.063-.787-.792-2.364-1.064-3.597-.77-.652.315-1.52-.055-1.11.817-.624.257-1.662.302-.826.988-.183.36.384.905.896 1.205-1.443.23.823.872 1.297 1.4.743.283 1.807.988 2.847.867zm-1.507-.297c-.042-.123.107.015 0 0zm.533-.302c-1.63-.08-3.202-1.606-2.63-3.207 1.216-2.597 5.618-.776 5.082 1.928-.095 1.366-1.412 1.376-2.453 1.278zm.532-1.725c1.336-.398-.414-1.793-.726-.808-.158.592.263.78.726.808zm-.725-.62c.033-.13.14.095 0 0zm1.075-.188c-.034-.255.01.102 0 0zm-.863-.252c-.098-.136.15-.004 0 0zm-2.08-1.113c.177-.248-.26.252 0 0zm4.578 3.643c.16-.306.144.077 0 0zm.272-.363c.085-.272.05.22 0 0zm-4.975-.238c-.076-.2.16-.024 0 0zm-1.59-.63c-.03-.15.142.15 0 0zm1.02-1.544c-.042-.123.107.015 0 0zm.825-1.095c.055-.142.245-.074 0 0zm-1.38-.295c-.082-.112.244.037 0 0zm15.313 4.967c-.043-.078-.113.21 0 0zm-44.82-.063c.81-.12 2.1-1.354.695-.585-.096.1-1.432.563-.695.585zm30.583.023c-.174-.85-1.75-1.12-2.342-1.225-.274-.084-1.792.34-.71.393.842.005 2.05.588 3.05.832zm-.173-.068c.05-.077.3.054 0 0zm-2.287-.692c.05-.22.205.01 0 0zm1.38-.09c.063-.246.24.15 0 0zm-1.656-.184c.073-.205.33-.193 0 0zm1.113-.044c.232-.204.074.075 0 0zm-20.47.77c-.08-.104-.08.104 0 0zm-52.07-.364c5.722-1.42 11.747-1.53 17.664-1.667 1.506-1.015-4.66-1.042-3.994-.8-4.672.365-9.873-.34-14.124 2.062-.677.372.252.5.454.405zm84.105-.643c-.804-1.05 3.795.864 1.19-.413.522-.1 1.027-1.06.986-.855.2-.245-.694-1.745.242-1.643-.03.773.59 1.048.535.316.503-.863.34-2.262-.446-3.103-1-.001-.922-1.354-1.722-1.362.377.502.158 1.694-.235.773-1.077-1.457.162.934-.868.958-.974-.396-.36.372-.768.69-.738-.808-.815.368-1.3-.033-.938-.748-1.813-.034-2.632-.807-.8-.233.862 1.18-.674.404-.864-.08-2.354-.954-2.95-.952 1.27.698.535.793-.283.39-.268.395 1.794.42 1.58.57 1.816.916 3.73 2.297 5.24 3.704.7.985 1.066.94 1.81 1.318l.296.046zm-.08.017c.002-.165.18.02 0 0zm.51-.404c.232-.204.074.075 0 0zm1.17-.172c.26-.252-.18.247 0 0zm-2.93-.013c.002-.165.18.02 0 0zm-1.575-1.44c.07-.247.072.132 0 0zm6.057-1.654c.05-.275.144.14 0 0zm-5.548-.827c-.126-.2.234-.144 0 0zm.422-.46c.175-.2.218.03 0 0zm3.985-.857c.032-.116.073.094 0 0zm-1.626-.598c.03-.187.088.1 0 0zm.86-.402c-.012-.204.13.24 0 0zm-61.657 6.59c2.997-.146 6.03-.46 8.906-1.193.192-.68-2.373.316-2.14-.307-1.503.767-.84-.166-1.94.138-.997.734-.9-.02-1.645.315-1.35.763.257-1.04-1.91-.328-.782-.265-1.947-.923-2.863.037-2.084 1.2.65 1.43 1.6 1.338zm27.398-.056c-.146-.792.232-2.907-.794-1.65-.293.607.306 1.47.794 1.65zm-10.183-.33c2.122-.294 4.617.264 5.996-1.337-1 .376-1.914.278-2.82.514-.608.204-1.05-.378-1.772.22-.478-.2.63-.92-.812-.295-1.487.714.458-.974-1.477-.182-1.126-.203-2.122-.456-3.1-.82-.752-.146-1.817-.77-2.95-1.182-1.575-.887-2.955-2.5-4.34-3.172.972 2.76 4.126 4.273 6.675 5.495 1.492.436 3.03.732 4.603.758zm8.83-.64c-1.38-1.142 1.718-2.72.23-2.94-1.197.302-1.138 2.476-.23 2.94zm-46.33-.51c5.025-1.672 10.46-.815 15.643-1.382 4.69.208.686-.687-1.618-.698-4.552-.403-9.386-.2-13.775 1.187-.714.3-2.02 1.16-.25.893zm62.057-.118c-.96-.415-2.322-.843-3.53-1.05 1.037.68 2.3.978 3.53 1.05zm23.184-.417c-.005-.185-.135.142 0 0zm-61.716-.25c1.2-.09 2.984-.292 3.82-.74-1.176-.403-1.516.16-2.127-.352-1.333-.526-1.502-.464-2.507-.428-2.677.827-1.437 1.65.815 1.52zM119.21 84c-.28-.587-.316-3.714-1.06-2.017-.317.777.31 1.832 1.06 2.017zm14.35-.112c.52-.377-.62-.19 0 0zm.535-.386c1.356-.107-.695-.866-1.24-1.017-1.43-.496-3.846-1.702-4.75-1.674 1.76 1.06 3.754 1.874 5.606 2.717l.182.02.203-.045zm-27.038-.23c2.228-.055-.754-.006.478-.51-1.57-.556-1.985-.687-4.234-.862-2.733-.303-4.64-2.5-6.535-4.48-1.994-.743 1.956 3.51 3.283 3.938 2.054 1.393 4.53 2.016 7.007 1.913zm8.073-.225c.204-.833 1.473-1.427 1.32-2.287-.952-.86-2.636 2.524-1.32 2.287zm-6.532.124c.042-.123-.107.015 0 0zm35.432-.125c-.05-.133-.056.083 0 0zm-15.268-.138c-1.305-.376-.367-.133 0 0zm-.964-.172c-.324-.573-1.11.028 0 0zm-55.43-.18c5.827-1.666 11.995-1.098 18.01-1.348-2.132-.95-5.662-.787-8.2-.83-3.39.25-7.68-.456-10.222 2.127l.414.052zm61.597-.22c-.442-.627-3-1.284-2.4-.896.718.41 1.664.878 2.4.896zm-13.524-.113c-.552-.19-.036-3.01-1.066-1.6-.43.875.177 1.553 1.066 1.6zm-6.706-.62c1.676-1.07.572-2.27 1.602-2.468-.258-.396-.828-1.07-1.635.25-.345.496-.496 2.69.033 2.218zm.083-1.298c.446-.562 1.134-.233 0 0zm19.584 1.12c-.922-.362-2.327-1.575-3.1-1.385.893.66 1.918 1.517 3.1 1.385zm-42.58-.327c-.585-.034-.054.22 0 0zm50.54-.053c-.068-.526-1.885-.812-.672-.218.198.107.49.247.672.218zm-.394-.143c.002-.165.18.02 0 0zm-34.972.067c.774.04 2.684-.292 1.882-.6a17.12 17.12 0 0 1-3.805-.793c-1.14-.107-2.774-.783-3.38-1.205-.142-.485-2.08-.784-1.6-1.423-1.504-.2-2.505-4.524-2.667-1.448 1.73 3.375 5.974 5.147 9.58 5.47zm28.032.005c-1.6-.844-3.17-2.1-4.87-2.862 1.634.91.46 1.342 1.996 1.903.87.26 1.953.666 2.873.96zm-6.832-.213c-.76-.353-2.012-1.097-2.716-.92.803.63 1.8.726 2.716.92zm-.008-.165c-.103-.058-.143.1 0 0zm11.548-.212c-.505-.786-2.254-.962-.673-.238.18.022.444.3.673.238zm-1.49-.743c.124-.1.124.1 0 0zm-7.657.63c-.67-1.016-2.912-1.525-.79-.235.253.116.484.297.79.235zm7.9-.132c-.407-.68-2.367-.663-.993-.25.253-.21 1.21.628.993.25zm-.176.018c.058-.19.177-.035 0 0zm-18.88-.001c-.99-.733-1.54-2.72-2.064-3.21-.398 1.345.648 3.024 2.064 3.21zm2.873-.12c-.223-.69.33-3.69-1.076-2.217-.548.785.19 2.276 1.076 2.217zm-45.783-.002c5.2-1.357 10.65-.572 15.94-.725-1.99-.643-4.852-.5-7.15-.785-2.97.166-6.466-.27-9.067 1.458.065.063.2.182.277.05zm59.984-.183c.353-.575-2.118-.573-.5-.14.17.02.31.27.5.14zm-22.563-.045c.616-1.01 1.064-1.782 1.732-2.668-1.352-.82-2.713 2.086-1.732 2.668zm.364-1.18c.222-.422.48.2 0 0zm31.188.857c-.9-.815-2.162-1.9-3.263-2.07.947.803 2.568 1.646 3.263 2.07zm-2.42-.094c-.075-.292-.522-.01 0 0zm5.25-.106c-.593-.585-1.248-1.52-2.095-1.676.52.725 1.512 1.26 2.095 1.676zm-5.513-.062c-.464-.655-1.597-1.142-2.402-1.37.688.567 1.596 1.113 2.402 1.37zm3.35-.14c-.925-.926-2.21-2.05-3.384-2.3 1.104.785 2.48 1.657 3.384 2.3zm-.314-.126c.12-.148.128.048 0 0zm3.797.158c-.31-.64-.34-.703-.92-1.075.143.367.68.955.92 1.075zm-.137-.17c-.042-.123.107.015 0 0zm-.63-.843c-.235-.28.273.277 0 0zm-28.394.918c-.764-.505-.086-3.785-.81-2.4-1.562.548-.152 2.17.81 2.4zm23.16-.14c-1.47-1.262-3.336-2.523-5.39-2.2 1.882.57 3.768 1.248 5.39 2.2zm-35-.055c1.886-.448-3.778-1.262-3.245-1.11-1.314-.482-2.748-.893-3.83-1.695-.536-.763-1.57-1.397-2-2.664-1.747-2.247-.694 2.878 1.016 2.882 2.232 1.78 5.2 2.758 8.06 2.588zm-30.617-.164c4.84-1.185 10.637-.94 15.053-.725-4.673-1.33-9.78-1.03-14.506-.26-.54-.103-1.74 1.46-.548.984zm68.56-.007c-2.054-2.042-4.628-4.094-7.596-4.422 1.633 1.08 4 1.4 5.583 2.907.725.325 1.3 1.414 2.013 1.515zm-14.52-.43c-.513-.523-2.003-1.575-2.26-1.2.636.46 1.42 1.278 2.26 1.2zm20.886-.388c-.64-.997-.616-.644-.09.14.052.08.298.016.09-.14zm-.16-.04c.045-.083.132.127 0 0zm-.332-.543c.043-.078.113.21 0 0zm.34.322c-.032-.116-.073.094 0 0zm-3.84-.07c-.79-1.205-2.72-2.8-4.46-3.48-.406-.11-2.207-.936-1.367-.3 2.213.88 4.1 2.294 5.828 3.78zm-35.87-.184c.9-.807 1-1.993 2.456-2.043.04-.507.723-1.624-1.046-.825-1.12.468-2.14 1.763-1.4 2.867zm19.472-.184c-.436-.718-2.2-1.84-2.99-1.805.837.803 1.93 1.456 2.99 1.805zm-1.225-.05c-.103-.145-.103.145 0 0zm11.117-.134c-.217-.797-2.727-1.302-3.28-1.282.854.55 2.26.976 3.28 1.282zm-11.363.033c-1.392-.933-.473-.34 0 0zm-22.216-.034c1.03-.107 1.786-1.45-.046-.714-1.704-.465-1.524-.09-2.202-.6-.58-.15-1.484-.688-3.017-.98-1.04-.364-1.67-2.118-1.416-1.55-1.287-.79.117-1.223-.486-1.915-1.263-1.678-2.42 1.78-.726 2.625 2.003 2.097 5.046 3.124 7.892 3.124zm-28.894-.195c4.12-.847 8.766-.543 12.605-.753-3.682-.71-7.65-1.036-11.386-.484-.5.14-2.6 1.12-1.22 1.237zm66.222-.352c-1.156-.957-2.71-2.404-4.437-2.345 1.72.663 2.97 1.4 4.437 2.345zm2.714-.158c-.585-.95-2.217-2.153-2.85-2.32.694.775 1.788 1.806 2.85 2.32zm-27.308-.164c-.72-1.007.085-2.74-.955-3.48-.307-.8-1.392 2.26.062 2.763.43-.588.53.962.893.718zm29.118-.11c-.337-.473-1.42-1.318-.503-.334-.073-.25.592.698.503.334zm-32.29.006c.224-2.306-2.6-2.405 0 0zm12.3-.966c-2.016-1.774-1.533-.334 0 0zm1.663-.043c-1.228-.88-2.96-2.145-4.076-2.463.628.827 2.66 2.174 4.076 2.463zm15.693-.323c-.742-.916-2.222-1.603-3.205-1.57 1.018.608 2.282 1.052 3.205 1.57zm-53.932.04c-.085-.8-2.17-.466-2.984-1.14-2.945-.4-6.656-1.05-9.087.942 3.03-.043 6.617-.596 9.85-.036.74.03 1.488.126 2.22.233zm15.826-.3c1.752-.54-1.75-.56-1.84-.63.35-.55-.862-.9-2.32-1.27.435-.46-.33-1.14-2.02-1.557-.666-.77 1.144-2.475-.7-2.245-2.313 2.042 1.553 4.402 3.36 5.058 1.13.4 2.296.79 3.52.643zm22.537-.28c-.98-1.094-4.135-2.534-1.396-.703.408.32.97.49 1.396.703zm-13.594-.22c-.264-1.062 1.354-1.73.14-2.452.308-2.052-1.734 2.713-.14 2.452zm-5.407-.012c.622-1.004 2.214-.894 2.41-2.004-.637-.764-2.828.586-2.622 1.984l.21.02zm19.57-.75c-.85-1.052-2.5-1.725-3.872-1.992 1.03.794 2.69 1.296 3.872 1.992zm-48.35-.4c3.457-.49 7.08-.26 10.54-.12-3.247-1.022-7.163-1.57-10.466-.412-.986-.026-.41.747-.074.532zm43.623-.15c-.14-.06-.12.18 0 0zm-17.81-.336c.484-1.368-2.046-.313-3.22-1.424 1.028-.475-1.703-1.064-1.246-2.21.505-2.385-2.427-.024-.572 1.373 1.205 1.476 3.144 2.35 5.038 2.26zm10.87-.695c-.678-1.308 1.318-2.647-.14-2.256-1.236-.066-.748 2.216.14 2.256zm10.872-.333c-1.138-.544-2.685-1.857-3.81-1.76 1.316.44 2.337 1.995 3.81 1.76zm-17.483-.18c.61-.33 2.32-.728 2.01-1.053-.778-1.08-3.598.976-2.01 1.053zm-28.513-.115c3.228-.756 6.75-.143 10.1-.24-3.18-.862-7.174-1.568-10.125-.104-.094-.052-.978.447.035.343zm-.44-.028c.046-.145.278.108 0 0zm49.148-.042c-.74-1.212-3.038-.698 0 0zm-1.883-.116c-1.543-.928-3.44-2.656-5.094-2.67 1.897.597 3.15 2.432 5.094 2.67zm3.09-.17c-.168-1.03-2.475-.8 0 0zm1.333-.418c-.458-.738-2.443-1.138-.802-.156.268.06.5.25.802.156zm5.283-.347c-.84-.962-.972.354 0 0zm-.067.068c-.042-.123.107.015 0 0zm-4.182-.016c.356-.5-2.045-.802-.605-.214l.308.175.297.04zm-28.048-.027c1.638-.8-1.204-.313-1.854-1.07-.258-.377-.74-1.392-.845-2.026-2.47-.18.06 2.96 1.59 3a3.1 3.1 0 0 0 1.108.098zm29.575-.153c-1.233-1.286-1.718-.084 0 0zm1.46-.03c-.63-.71-1.602-.098 0 0zm-8.584-.36c-1.16-1.398-3.468-1.847-5.183-2.54-1.844-.297-4.15-2.082-5.792-1.472 2.688 1.04 5.37 1.417 7.825 3.02.974.35 2.134 1.144 3.15.994zm-34.968-.166c-2.71-.996-6.583-1.398-9.256-.412 2.798-.084 6.236.177 9.256.412zm18.323-.193c.682-.898 4.024.2 2.505-.74-.34-1.223-4.336.503-2.505.74zm-113.385-.31c.834-.592 1.113-.922 1.883-1.097 1.228-.812 2.803-1.788 4-2.115 3-1.208 6.652-2.24 10.208-2.563 9.617-1.675 19.1-2 28.685-1.672 4.877-.75 9.988-.003 14.87.347-8.32-1.753-17.074-.542-25.55-.784-7.292-.154-14.52.79-21.723 1.687-2.872.9-5.89 1.584-8.478 2.974-1.187.69-3.327 1.905-4.075 3.275l.187-.05zm-.172.03c.017-.057.208-.05 0 0zm.14-.133c-.19-.27.33-.062 0 0zm.068-.033c.042-.123-.107.015 0 0zm.48-.638c.112-.168.015.17 0 0zm1.1-.278c.13-.14.123.094 0 0zm.832-.42c.298-.45.164.02 0 0zm.1-.088c.177-.248-.26.252 0 0zm.168-.19c.032-.116.073.094 0 0zm.666-.397c.01-.17.157.066 0 0zm1.354-1.42c.08-.104.08.104 0 0zm126.833 3.37c-.218-.805-3.184-1.768-1.964-.97-.45-.67 1.42 1.04 1.964.97zm8.5 0c.324-.75-.728-.01 0 0zm-.205-.278c.34-.344-.307.374 0 0zm-134.266.255c.053-.198-.325.138 0 0zm.283-.075c-.17 0 .025.186 0 0zm102.635-.21c.788-.216-1.16-.43.13-1.018.728-.653 3.044 1.044 2.656.074-.8-.162-3.08-.795-1.042-.538.887-.155-.7-.807 2.36.183 1.674-.072.364-.69-.932-.936-1.768-.12-4.258-.698-5.514.738.25.88 1.53 1.454 2.34 1.496zm.485-1.403c-.004-.234.453.067 0 0zM99.16 68.03c-2.843-1.17-6.288-1.392-9.243-.767 2.04.18 5.15-.012 7.514.643.555.155 1.158.075 1.73.124zm42.58-.5c1.204-2.005 1.85-4.66.642-6.848.35-.798-.502-1.774-.458-2.587 1.2.302 1.248 2.248 1.894 2.576-.187-1.206-.608-3.442-2.112-3.39-1.656 1.848 1.062 3.705.84 5.717.415 1.61-.75 3.263-.83 4.63l.025-.098zM9.555 67.483c-.073.033-.253.165 0 0zm124.85-.142c-.355-.474-2.714-1.3-1.38-.626.348.245 1.053.74 1.38.626zm-5.192-.33c-1.627-1.615-4.1-2.166-6.224-3-1.136-.338-3.65-.997-3.89-.632 3.528.748 6.913 2.31 10.115 3.63zm15.93-.04c-.157-.066-.01.17 0 0zM131 66.916c.75-.165-1.112-.642-1.517-.924-1.64-.59.678.94 1.517.924zm-30.987-.155c-2.076-.87-5.065-1.572-6.936-.635 2.324.048 4.643.448 6.936.635zm31.654-.166c-.63-1.08-3.868-2.28-3.448-1.384 1.132.46 2.312 1.05 3.448 1.384zm7.693-.252c.037-1.57-2.13-2.683-3.333-1.326-1.07 1.114 2.81-.584 3.296 1.32l.045.048-.008-.043zm-37.718-.54c-2.142-1.257 3.27-.398 1.427-.946-2.04-.44-4.437-1.078-6.325.224 1.647.115 3.28.53 4.898.722zm-98.728-.172c-.043-.078-.113.21 0 0zm74.9-.175c-.27-.797-4.158-1.15-2.675-.513.864.275 1.768.522 2.675.513zm-70.52-.663c.042-.123-.107.015 0 0zm120.126-.142c-2.102-1.81-4.996-2.335-7.625-2.876 2.256.896 5.15 2.288 7.625 2.876zm-48.21-.038c-1.275-.652-3.494-1.493-4.596-1.156 1.483.55 3.028.962 4.596 1.156zm64.738-.09c.15-1.42.17-3.555-1.043-4.314.284 1.42.95 2.983.854 4.366l.19-.05zm-61.126-.02c-.902-.68-3.032-1.062-3.79-1 1.106.692 2.5 1.024 3.79 1zm38.105-.136c-1.91-1.18-4.36-1.247-6.55-1.49 1.994.813 4.507 1.4 6.55 1.49zm-36.312-.333c-2.16-.857-4.685-1.5-6.99-1.958 2.077.94 4.708 1.802 6.99 1.958zm48.95-.103c-1.136-1.067-3.98-2.634-4.978-.667 1.772.193 3.298-.017 4.978.667zm-46.098.018c.05-.59-2.505-.788-3.366-.78 1.104.283 2.212.81 3.366.78zm57.393-.387c.33-1.137-.665-2.86-.16-3.69.49.787.205 2.266.882 2.61.245-.535.236-1.95.5-2.025.023.906.768.89.468-.113.66-1.658-.76-3.363-.954-1.447.187.706.13 2.857-.243 1.18-.442-1.686-1.39-3.073-2.222-4.55.83 2.19 1.25 4.59 1.382 6.977.1.295.036 1.03.344 1.058zm-119.92-.127c.51-.246-.542-.01 0 0zm.42-.132c.106-.094-.363.12 0 0zm.867-.122c1.25-.13 4.76-.406 4.164-.436 5.264-.433 10.933-.55 15.955-.612.886.39 2.64.356 3.738.214 1.088-.084 2.872.13 3.006.103 2.003-.093 4.785.443 6.605.053 2.326-1.122-1.796-.612-3.008-.88-6.404-.614-12.7.05-19.14.24-3.89.3-7.946.237-11.692 1.332l.37-.01zm23.162-.78c.09-.124.09.124 0 0zm-22.33.8c-.363-.198-.093.16 0 0zm107.318-.317c-.122-1.228-2.9-2.212-2.916-.98.94.492 2.212.424 2.916.98zm-103.63-.16c-.178-.117-.025.17 0 0zm.584-.067c-.128-.048-.12.148 0 0zm26.536-.012c-.042-.127-.086.124 0 0zm34.8-.012c.674-.71-8.237-.727-4.098-.322 1.367.085 2.75.222 4.098.322zm-59.46-.005c-.392-.123-.09.066 0 0zm103.782-.027c.275-1.47-3.932-2.577-2.53-1.007 1.028.26 1.756.176 2.53 1.007zm-80.65-.046c-.14-.062-.135.113 0 0zm-2.74-.048c-.06-.14-.12.093 0 0zm30.575-.082c-2.123-.857-4.613-1.184-6.794-1.74 1.474 1.304 4.727 1.483 6.794 1.74zm-33.695-.05c-.143-.05-.135.163 0 0zm68.894-.026c-2.34-1.234-5.383-2.027-8.042-1.63 2.52.775 5.398 1.068 8.042 1.63zm6.517-.06c-1.16-1.632 3.178-2.074-.314-2.156-1.103.41-.666 2.093.314 2.156zm-85.345-.026c-.052-.074-.09.135 0 0zm33.835-.136c-1.197-.594-3.067-1.004-3.527-.784 1.088.38 2.526.877 3.527.784zm11.272.008c-3.415-1.097-7.094-1.89-10.556-3.003.35.875 2.66 1.246 3.873 1.652 2.193.538 4.45 1.214 6.683 1.35zm28.733-.044c-1.247-1.31-5.776.01-.9-.037.294.072.602.056.9.037zm-38.51-.173c-.814-.617-4.895-1.73-2.397-.65.794.24 1.574.52 2.397.65zm29.64-.035c-.317-.515-5.383-.853-2.796-.258.932.03 1.87.31 2.796.258zm-11.723-.357c-1.66-.77-4.394-1.158-6.578-1.564-1.43-.25-4.07.124-4.807-1.042 3.883.345 7.733 1.362 11.64 1.358-2.317-.572-4.306-.578-6.675-1.144-3.275-.368-6.427-1.597-9.61-2.172-2.316.06 1.717 1.022.613.978-2.055-.657-2.85.01-.488.42 2.237.467 4.046 1.042 6.172 1.73 3.167.86 6.44 1.435 9.733 1.436zm-15.34-4.12c-1.967-.564 1.112.003 0 0zm71.382 4.092c-.052-.074-.09.135 0 0zm-21.523-.14c-.526-.94 1.654-2.396.166-2.63-1.68.412-1.276 2.095-.166 2.63zm-.153-.326c.032-.116.073.094 0 0zm-113.768.207c.044-.158-.192.083 0 0zm71.87-.087c-4.317-1.258-8.92-2.08-12.982-4.135-1.595-.507-3.536-1.76-4.998-1.78 5.718 2.64 11.64 5.326 17.98 5.914zm-51.013.014c-.137-.073-.032.078 0 0zm8.213-.02c-.1-.15-.074.12 0 0zm-7.148-.06c-.292-.085-.06.07 0 0zm2.17.01c-.166-.11-.05.065 0 0zm10.628-.146c-.145-.036-.005.122 0 0zm48.848-.014c-2.496-.77-3.093.034 0 0zm.438-.032c-.12-.227-.407.115 0 0zm39.788.038c.198-1.84 4.594.96 1.408-1.594-1.293-.88-2.285.722-1.408 1.594zm-85.404-.027c-.034-.122-.17.082 0 0zm53.04-.055c-1.22-.536-4.197-.957-5.204-.65 1.733.16 3.48.505 5.204.65zm12.152-.238c-.8-.7-2.9-1.03-4.267-1.155-1.22.154 3.67 1.137 2.96.908.405.02.96.404 1.306.247zm-42.82-.16c-1.825-.894-4.11-2.458-6.042-2.2 1.978.766 3.9 2.03 6.042 2.2zm-12.718-.053c1.415-1.083-5.518-1.114-7.007-.823 1.277 1.05 3.597.415 5.297.75.57.007 1.142.116 1.71.072zm45.3-.182c-.41-1.878-8.19.064-1.545.034l.686.018zm16.275-.01c-.33-.843-3.047-1.378-2.693-.987-2.574.84.86.192 1.92.78l.448.232zm23.365.032c.213-1.74-.692-3.847-1.153-5.653-.543-1.645-.62-.196-.18.712.707 1.515.497 3.516 1.334 4.94zm-16.824-.304c-.83-1.275 1.826-1.75.33-2.1.274-.245.16-.833-.722-.176-.917.473-.337 2.114.392 2.286zm-32.237-.01c-3.244-1.15-3.777-.08 0 0zM44.54 59.8c3.03-.334 6.385-.11 9.225-.476-2.383-.12-9.833-.782-9.225.477zm.312.055c-.016-.093-.205.03 0 0zm.365-.084c-.145-.036-.005.122 0 0zm87.7-.033c-.716-1.613 3.067-1.4.96-2.26-.006-1.05-2.15.42-1.58 1.42.02.22.36 1.218.622.84zm.374-2.107c.1-.39.652.23 0 0zm.394-.086c.133-.124.09.128 0 0zm-84.88 2.117c-.195-.16-.07.15 0 0zm63.257-.056c-4.586-1.772-9.625-2.426-14.472-3.22-2.887-.47-5.947-.272-8.766-1.438-4.84-1.18-10.07-1.33-14.856-1.84 4.55 2.327 9.87 1.8 14.76 2.975 2.125.436 4.504.6 6.46 1.274-.312.832-3.897-.323-5.775-.168 2.49.546 5.337 1.038 7.886 1.248-2.55-.85.92-.482 2.02-.18 3.468.985 1.335-.637-.742-.696-1.557-.17-1.03.493-2.925-.397-.828-.35-3.043-1.235-.48-.743 2.2.506 5.012 1.43 7.15 1.535 1.25.308 3.388.63 4.874.906 1.627.295 3.225.71 4.868.74zm-6.1-1.51c.045-.083.132.127 0 0zm-4.14-.255c.046-.126.327.1 0 0zm2.268-.022c.045-.083.132.127 0 0zm-8.696-.05c.03-.183.082.182 0 0zm-1.652-1.476c.1-.066.08.12 0 0zM51.06 59.57c-.062-.06-.247.12 0 0zm.544.007c-.078-.064-.35.1 0 0zm-11.276-.02c-.066-.1-.174.162 0 0zm95.248-.2c.2-1.36 3.293-.194 1.42-1.895-1.072-.62-2.606 1.686-1.42 1.895zm.305-1.495c1.248-.57 1.795.435 0 0zm-42.434 1.476c-4.673-1.132-9.477-1.93-14.1-3.295-.864.17 3.443 1.238 2.7 1.038 3.73 1.017 7.524 2.09 11.4 2.256zm57.232-.006c-.043-.078-.113.21 0 0zm-47.897-.123c-1.575-.917-7.643-.662-3.13-.047 1.04.023 2.1.204 3.13.047zm22.86.02c-1.192-1.53-3.558-1.795-5.394-2.296-1.39.205-4.23-.23-4.298 1.8 1.488.115 3.816.344 3.508-.175.468-.115 1.403-.745.872-.596 1.537-.276 3.744.733 5.31 1.277zM64.79 58.9c2.46-.836-6.2-1.515-3.917-1.2-4.215-.532-.594 1.478 1.146 1.112.922.046 1.847.136 2.77.078zm.452-.18c.002-.165.18.02 0 0zm-6.025-.652c.485-.326.145.21 0 0zm-.1-.195c-.062-.173.12-.018 0 0zm89.28.686c.103-.825-.215-2.037-.372-2.92-1.473-1.18-.415 1.197-.284 2.183.378.128.187.774.655.737zm-75.348-.25c1.57-.15-5.915-2.1-2.645-1.185-3.13-.998 3.794 1.953 1.393.826.397.176.822.316 1.253.36zm-22.468-.08c2.323.02 4.68-.154 6.923-.218-2.167-.234-5.687-1.197-7.26.228.113.01.227.047.34-.01zm75.832-.32c-1.568-1.997-4.753-2.234-7.16-2.525-3.053.858 2.4 1.113 3.558 1.517 1.213.258 2.51.636 3.602 1.008zm-35.263.023c-3.292-1.007-6.878-1.256-10.21-2.044 3.18 1.076 6.887 1.69 10.21 2.044zm53.85-.283c-.458-1.18-.978-2.69-1.84-3.433.62 1.177 1.05 2.423 1.664 3.58zm-33.93.097c2.98.134 4.4-1 .764-.59-1.53.026-1.02.577-.764.59zm-45.8-.547c1.41-1.877-4.7-1.3-6.08-1.097-1.26-.855-6.893.856-3.213.542 3.13-.093 6.202-.046 9.293.555zm-3.307-1.062c-.135-.02.07-.092 0 0zm-.44-.1c.08-.153.08.153 0 0zm87.714.938c-.144-.877.45-.96.298-1.932.144-.488-.174-2.7.308-2.334.33 1.73.303-.18.204-.693.048-1.158-.535-1.24-.802-.21-.464 1.52-.888 3.82-.01 5.17zm-42.477-.088c2.926-.122 5.553-2.16 8.6-1.158.31-.85-4.886-.907-6.76-.24-.725.4-2.056.447-2.098 1.43l.26-.034zm22.156-.084c.028-.585-.713-.394-1.432-1.125.27-.37-2.397-1.675-3.505-1.822-1.626-.905-5.773 1.084-2.093 1.084 2.58.116 4.654 1.05 7.03 1.863zm3.064-.086c-.607-.825-.838-1.368-2.128-2.12-1.447-1.022-3.718-2.408-5.216-1.5.625 1.208 2.78.438 3.773 1.56 1.303.59 2.165 1.796 3.37 1.867l.2.222v-.038zm-27.06-.082c3.67-2.175 8.054-3.462 12.382-2.588 3.112.205-4.6-1.817-2.082-.886-3.74-.66-8.573-.265-10.508 3.51l.21-.035zm-35.822-.14c-2.915-1.982-6.725-2.678-10.153-2.087-2.588 1.56 3.324-.23 4.636.62 1.773.672 3.863.715 5.517 1.466zm71.1-.31c-.3-2.018-1.57-4.15-3.41-5.21-2.15.076 2.077 1.88 2.167 3.103.464.454.858 2.46 1.244 2.108zm-62.23.1c-1.22-.836-2.923-1.01-4.35-1.127.725.858 3.22 1.26 4.35 1.127zm60.297.026c-.465-2.225-2.218-5.166-4.667-5.18-.725 1.066 2.017 1.558 2.392 2.753 1.014.51 1.518 1.932 2.275 2.425zm-2.085-.358c-.9-1.765-2.696-3.83-4.346-4.575-1.52-.47-2.478.55-.53.998 1.53 1.136 3.337 1.68 4.5 3.425l.322.21.053-.058zm-4.187-4.378c-.022-.288.245.13 0 0zm13.787 4.293c.023-.627-.374-2.213-.9-2.355.24.76.486 1.897.9 2.355zm-.442-.102c-.433-1.287-.86-1.386-.3-.194.05.103.158.476.3.194zm-11.97-.146c-.175-1.518-2.45-2.305-3.553-3.343-2.1-1.05-4.096.45-.954.838 1.112.777 1.66.015 2.9 1.245.628.055 1.07 1.43 1.608 1.26zm11.197.006c-.228-.953-.486-2.018-1.104-2.843.217.896.53 2.22 1.104 2.843zm-75-1.293c-1.74-1.003-3.91-1.74-5.356-3.228 1.54-.14 2.964 1.77 4.365.843.593.288 3.495 2.3 1.972.67-1.596-1.035.212-.58-1.585-1.46-1.612-.702-4.777-1.925-5.477.238 1.264 1.92 3.842 2.93 6.082 2.936zm5.03-.377c-.817-.3-2.088-1.328-2.938-1 .74.672 2.035.97 2.938 1zm-10.605-.427c-.254-2.3-4.558-1.866-2.748-.2.92-.155 1.834.246 2.748.2zm83.28-.418c.78-.43.064-2.338.815-3.126.52-.172.206-1.703.737-1.03.755.984.244-1.57-.27-2.04-1.508.538-1.294 2.728-1.734 4.092.133.585-.3 2 .45 2.104zm-39.127-.3c3.972-1.476 8.343-1.1 12.358-.042-2.573-1.834-6.57-1.22-9.637-1.448-.776-.134-3.435.928-2.72 1.49zm37.32-.25c-.068-1.31-.797-2.87.245-3.884.004-1.163 1.13-1.98.915-3.224.427-.39 1.186-1.398 1.338-.112.27-.637-.412-2.853-1.447-2.764-1.157 1.762-1.402 4.198-1.753 6.297.057 1.056-.063 2.78.702 3.686zm-3.826-.152c-.757-2.204-1.866-4.746-3.608-6.31-1.826.515-.623 2.97-.16 4.223.217.4-.63-4.28.333-2.006.39.964.53-.883.885.68.725 1.217 1.593 2.14 2.193 3.45-.21-.244.307-.023.357-.035zm-68.982-.657c-.78-2.488-4.092-3.317-5.565-5.47-.626-.824-3.93-4.273-2.583-1.513 2.544 2.435 4.73 5.773 8.148 6.984zm71.143-.087c-.77-3.404-2.764-6.73-4.918-9.58-.716-1.264-2.847-1.47-2.156.44.087.61.648 2.483.803 1.087.53.132.632.828 1.29.527.75 1.102 1.104 1.766 1.12 1.524.573.615.808 1.172 1.074 1.756-.108.58 1.17-.4 1.245.913.698.97.852 2.546 1.543 3.334zm-2.063-4.23c.032-.116.073.094 0 0zm-19.238 4.108c-2.84-2.058-6.776-2.14-10.142-2.03-2.58.86-1.374 1.603 1.227.94 3.044-.118 6.023.28 8.914 1.092zm-42.48-.785c-.823-.94-2.586-1.385-.73-.262.22.135.464.26.73.262zm46.574-.103c-1.868-1.343-4.64-2.23-7.11-2.703-.5-.885-7.9.562-4.698.75 4.066-.32 8.086.422 11.807 1.952zm-12.44-.14c-.137-.073-.032.078 0 0zm14.62-.425c-2.78-2.37-6.62-3.757-10.33-3.948-1.37.29-2.604 1.302-.413.98 3.67-.23 7.53.89 10.43 2.966l.314.001zm-55.098-.155c-.564-1.745-3.448-2.6-4.645-4.192-2.694-1.085-4.256-4.617-6.42-6.67.98 3.167 4.35 5.138 6.462 7.564 1.52 1.03 2.825 2.817 4.602 3.3zm75.696-.502c-.08-.104-.08.104 0 0zm-82.378-.24c-1.015-1.9-2.875-1.81-.734-.128.245.044.48.154.734.128zm62.46-.74c-2.643-2.725-6.916-4.702-10.664-3.32.788 1.14 4.18.001 5.863.808 1.773.357 3.488 1.85 4.8 2.512zm-55.992-.766c-2.322-2.057.176-1.282-.11-.86-2.185-1.954-4.326-4.27-6.777-5.725.602 1.1-3.022-2.87-2.39-2.257-1.458-1.522-2.475-3.85-3.942-5.067.58 2.96 3.75 4.7 5.344 7.12 2.275 2.588 5.01 4.99 7.874 6.79zm-1.607-1.367c-1.807-1.283.23-.246 0 0zm41.027.94c.04-.194-.152.194 0 0zm.247-.147c-.043-.078-.113.21 0 0zm17-.04c-.943-2.268-3.475-3.497-5.312-5.147-2.275-1.207-4.804-3.31-7.463-2.556-1.01 2.158 1.9 3.616 3.57 3.853-.435-.36-2.61-1.625-1.238-1.422 2.357.564 4.935 1.33 6.77 2.764-2.117-2.244-5.274-3.278-8.087-4.18 1.336-.442 3.173.65 4.6 1.088 2.832 1.285 5.04 3.733 7.158 5.6zm-15.618-.592c-.042-.127-.085.124 0 0zm18.637-.24c-3.682-4.288-8.376-7.7-13.228-10.564-.907-.898-3.91-.9-2.925.88 1.27 1.597 3.762 1.65 5.39 2.888 2.415 1.473 4.76 3.092 6.81 5.033-2.695-3.307-6.425-5.86-10.423-7.324-.676-1.306 1.795.412 2.62.464 3.193 1.573 6.318 3.678 8.682 6.263.397-.453 2.227 1.025 1.816 1.38.407.007.933 1.312 1.258.98zm10.495-.168c-.88-3.222-2.4-6.37-4.575-8.946-1.834-1.64-2.218 1.66-1.5 2.6-.15-1.054.652-1.432 1.032-.36.166 1.268.383-.536.72.344.13.564 1.14.792.898 1.78 1.026-1.57.573.778 1.183 1.15.43-3.1.597 3.228.713.728.15-.926.483 1.018.794 1.316.14.334.28 1.36.735 1.396zM75 45.897c-3.878-4.068-8.874-7.452-12.257-12.156-3.95-4.694-7.285-9.776-10.46-14.956-1.877-3.572-4.09-7.022-4.607-11.116-1.3 1.404-.136 4.04.602 5.754C52.89 22.67 59.333 30.927 66.38 38.468c2.52 2.78 5.178 5.83 8.618 7.43zm59.882-1.362c-4-5.54-8.99-10.576-14.966-13.976-1.247-1.058-3.767-.14-2.47 1.523 1.593 1.918 4.486 2.388 6.29 4.244 1.628.615-2.327-2.83.64-.36 2.34 1.596 4.474 4.357 6.608 5.624-2.372-3.237-6.09-5.45-8.598-8.404 1.196.217 2.495 1.434 3.237 2.478 1.2.1 1.867 1.77 2.63 2.075 1.305 1.026 2.04 2.3 3.186 3.108 1.133 1.142 2.388 2.77 3.442 3.7zm-12.845-11.172c-1.526-1.04.73-.485 0 0zm-.956-.73c-.09-.227.404.076 0 0zm-.565-.115c-1.512-.245-2.727-1.602-.615-.74.268.14 1.837 1.006.615.74zm23.708 11.01c-.858-3.1-1.9-6.235-3.602-9.004-.637-.992-1.992-3.42-3.185-1.6-.306.39.418 3.1.536 1.475.45-.677 2.946 1.737 1.797 1.174.632-.637.545 1.435.985.564.32 1.2.593.785 1.062 1.7.9.947 1.195 3.014 1.807 4.436.214.264.338 1.647.6 1.244zm-2.957-6.936c-.04-.336.2.173 0 0zm3.8 4.975c-.057-.397-.153.31 0 0zm-.036-.46c-1.068-3.95-2.123-8.143-4.975-11.2-1.355-1.778-3.683 1.47-1.117 1.073 1.357.59 2.5 1.965 2.897 3.327.16-1.13.21-1.277.467.118-.377 2.178 1 .06.792 2.022 1.058 1.284 1.015 3.355 1.9 4.72l.047-.063zm1.083-.84c-1.055-5.003-3.24-10.046-6.822-13.86-1.59-.89-2.383 2.763-.406 1.507.7.816 1.126.44 1.88 1.347 3.142 2.843 3.684 7.487 5.347 11.006zm-10.777-.55c-3.615-5.24-8.46-9.717-13.726-13.276-1.206-.746-3.77-2.175-4.422-.14-.28 2.28 2.643 3.098 4.197 3.672.426-.813 1.795.67 1.947.194 3.485 2.574 6.395 5.923 9.46 8.895-2.805-4.216-6.814-7.498-10.615-10.75 1.14.114 2.454 1.6 3.67 2.394 1.47 1.54 3.04 2.573 4.54 4.103.283 1.253 1.297.73 1.623 2.034.43.044 1.305 1.133 1.302 1.144.552.395 1.485 1.353 2.023 1.73zm-13.57-11.55c-1.134-.3-2.253-.9-3.223-1.526 1.054.232 2.836.353 3.463 1.466l-.1.088zm14.2 9.648c-3.654-6.24-8.68-11.943-14.53-16.403-1.175-1.578-4.73-1.634-2.97.833 1.12 1.747 3.127 2.768 4.86 3.6-1.82-2.27 1.988.942 2.588 1.62.796.38 4.338 4.672 3.012 2.53-2.06-2.504-4.516-4.6-6.843-6.824 2.162.468 3.765 3.053 5.534 4.473 3.113 3.114 5.6 7.068 8.35 10.17zm-14.254-14.82c-1.29-.178.71-.68 0 0zm-.798-.354c-2.1-1.072.6-.532 0 0zm14.783 11.018c-2.08-4.02-5.26-7.667-8.246-11.16-2.56-2.35-4.916-5.72-8.58-6.096-1.404 1.95 1.936 3.134 3.17 4.054 3.906 2.513 6.937 6.24 10.035 9.59-1.9-3.382-5.225-6.23-8.018-9.015-2.142-1.47-.286-1.466.9-.035 3.25 2.815 5.617 6.365 8.33 9.63.862.95 1.406 2.296 2.408 3.03zm-13.18-13.896c-1.465-.728-.692-1.372.17.016l-.17-.016zm-1.344-.983c-.292-.32.317.127 0 0zm14.26 9.457c-1.922-3.344-4.84-6.6-7.303-9.84-2.166-2.337-4.38-4.832-7.255-6.326-2.425-.133-.558 3.042.6 3.28 4.9 2.604 8.22 7.242 11.77 11.402-1.698-2.87-4.123-5.804-6.436-8.223-.444-.603-2.792-2.26-1.846-2.336 3.475 3.465 7.113 7.3 9.955 11.598.223.037.21.61.517.443zM124.27 16.145c-.928-1.084.647-.304 0 0zm-.7-.653c-1.383-.997.667-.653 0 0zm-.998-.798c-1.528-.828.87.01 0 0zm-.798-.393c-.848-.66.817-.073 0 0zm.247-.01c.123-.145-.015.172 0 0zm14.425 12.51c-3.334-5.736-7.4-11.138-12.505-15.416-1.225-.904-2.407-2.35-3.983-2.364-.583 1.453 1.44 1.77 2.25 2.543 2.103 1.244 3.847 3.317 5.452 4.69.67.858 1.58 1.322 1.945 2.457.875.728.603.633 1.5 1.234.66 1.448 1.814 2.524 2.596 3.866.802 1.092 1.842 2 2.737 2.99zm1.274-1.993c-2.402-4.12-6-7.612-9.24-11.23-3.354-3.28-6.548-6.933-10.88-8.942-1.99-.023.615 1.5.88 2.247.164-.44.64-.274 1.582.49 7.076 4.5 12.438 11.063 17.52 17.54l.09-.017.047-.09zm-21.32-.06c.158-.233-.15.068 0 0zm20.127-3.3c-2.8-4.348-6.506-8.13-9.917-12.057-3.173-2.946-6.8-6.128-10.925-7.674-1.07.957.934 1.6 1.764 1.754 5.063 2.454 8.452 7.192 12.603 10.906 2.188 2.322 4.107 5.163 6.475 7.072zM32.735 104.007c-.082-.112.244.037 0 0zm-.28-.027c.143-.1.103.058 0 0zm-7.146-.09c.112-.168.015.17 0 0zm.277 0c.112-.168.015.17 0 0zm-.823-.017c.08-.104.08.104 0 0zm.277 0c.08-.104.08.104 0 0zm2.426-.002c.05-.077.3.054 0 0zm.825-.012c.055-.107.33.08 0 0zm-7.41-.263c.08-.104.08.104 0 0zm.2-.014c.055-.107.33.08 0 0zm-1.378-.124c.08-.104.08.104 0 0zm-.842-.056c.032-.116.073.094 0 0zm24.132.004c.112-.168.015.17 0 0zm5.548-.535c-.083-.173.073.057 0 0zm24.467-3.196c.004-.15.106.03 0 0zm5.492-.46c.015-.12.22.044 0 0zm77.292-4.28c.038-.087.075.155 0 0zm-28.417-.717c.002-.165.18.02 0 0zm26.3-.255c.001-.217.262.134 0 0zm-16.85-.043c.26-.252-.18.247 0 0zm-.295.026c.083-.14.236-.025 0 0zm-120.704-.24c.027-.303.118.095 0 0zm.528.028c.002-.165.18.02 0 0zm.884-.056c.26-.252-.18.247 0 0zm120.625.012c.154-.266.357-.01 0 0zm.295.014c-.04-.205.25-.083 0 0zm.604-.073c.13-.14.123.094 0 0zm13.88-.017c.08-.104.08.104 0 0zm.105-.06c-.222-.137.198.075 0 0zM16.65 93.47c.07-.247.072.132 0 0zm-1.077-.073c.26-.252-.18.247 0 0zm.295-.017c.328-.313-.247.308 0 0zm.277 0c.328-.313-.247.308 0 0zm.29-.01c.22-.125-.062.134 0 0zm124.217.053c-.01-.305.192.032 0 0zm-121.457-.04c.002-.165.18.02 0 0zm122.553-.193c.16-.306.144.077 0 0zm-125.882-.09c.328-.313-.247.308 0 0zm.275.008c.267-.183-.068.148 0 0zm1.043.065c.002-.165.18.02 0 0zm.33-.056c.26-.252-.18.247 0 0zm-1.907-.035c.26-.252-.18.247 0 0zm4.094-.17c.108-.3.068.13 0 0zm-3.574-.074c.26-.252-.18.247 0 0zm.225.056c.002-.165.18.02 0 0zm1.162-.056c.26-.252-.18.247 0 0zm-.537-.013c.002-.165.18.02 0 0zm126.17-.046c.064-.2.243.15 0 0zm-127.045-.2c.028-.31.154.07 0 0zm-.24-.055c.04-.075.15.18 0 0zm3.073-.01c.26-.252-.18.247 0 0zm130.314-.024c.03-.138.473.056 0 0zm-5.2-.005c.08-.104.08.104 0 0zm.478-.123c.054-.25.043.14 0 0zm4.165-.022c-.082-.112.244.037 0 0zm-131.775-.013c.002-.165.18.02 0 0zm2.496 0c.002-.165.18.02 0 0zm128.718-.013c-.1-.165.325.014 0 0zm7.767 0c-.083-.173.073.057 0 0zm-138.115-.02c.002-.165.18.02 0 0zm3.935-.056c.26-.252-.18.247 0 0zm-5 .022c.002-.165.18.02 0 0zm129.276-.337c-.054-.218.175.103 0 0zM19.16 91.754c.002-.165.18.02 0 0zm-2.232-.063c.1-.084.027.105 0 0zm.325.028c.002-.165.18.02 0 0zm138.466-.252c-.1-.216.046-.15 0 0zm-137.374-.29c.26-.252-.18.247 0 0zm136.716-3.017c-.132-.127.138-.14 0 0zm.272-1.1c-.083-.173.073.057 0 0zM32.718 77.92c.002-.165.18.02 0 0zm119.33-1.683c-.042-.123.107.015 0 0zm-2.273-2.477c.002-.165.18.02 0 0zm-.5-.297c-.042-.123.107.015 0 0zM2.573 70.3c.08-.104.08.104 0 0zm.277 0c.08-.104.08.104 0 0zm-2.295-.23c.063-.178.09.16 0 0zm4.16-.554c.267-.418-.013.38 0 0zm2.225-.883c.05-.077.3.054 0 0zm.273-.17c.143-.1.103.058 0 0zM0 68.246c-.005-.406.21.017 0 0zm.832-1.108c.045-.26.27-.228 0 0zm.556-.444c.017-.057.208-.05 0 0zm-.003-.116c.436-.61.025.068 0 0zm1.113-.65c.424-.146.04-.034 0 0zM6.1 63.93c.08-.104.08.104 0 0zm.555-.277c.08-.104.08.104 0 0zm100.253-12.05c.002-.165.18.02 0 0zm-41.645-17.54c-.142-.463.126.085 0 0z"/></svg>