<svg xmlns="http://www.w3.org/2000/svg" width="545.991" height="324.45" viewBox="0 0 144.46 85.844"><path fill="currentColor" d="M102.9 85.83c-3.067-.048-4.8-2.832-6.23-5.174-1.914-2.484-3.108-5.45-4.145-8.376-.73-2.38-1.62-4.86-3.236-6.727-.95-1.1-2.338.038-2.147 1.253.126 2.31-1.04 4.623-2.967 5.875-1.24.43-2.838-.532-2.045-1.93.67-2.066 2.815-3.556 2.445-5.905-.424-1.355-2.687-1.917-3.42-.39-.64.742-1.06 1.652-1.596 2.436-1.333-2.29-.177-5.254-1.27-7.616-.723-1.2-2.296-.53-2.828.316-2.636-2.873-2.924-6.895-3.343-10.53-.276-1.187-1.136-2.163-1.29-3.374-1.35-.47-1.18 1.884-1.3 2.724-.02 3.406-.776 6.856-2.426 9.785-.296 1.187-1.08.586-1.758.2-.9-.316-1.738.004-1.892 1.013-.712 1.824-.613 3.824-.974 5.714-.177 1.695-1.484-.172-1.835-.855-.716-1.834-3.814-1.574-3.67.51.132 2.268 2.215 3.955 2.388 6.154.175.962-.443 1.603-1.47 1.147-2.53-.49-3.312-3.51-3.286-5.733.242-1.105-.922-2.556-1.91-1.5-2.67 2.943-3.82 6.78-5.273 10.377-1.377 3.15-3.52 6.093-5.8 8.56-.712.622-1.358 1.217-2.35 1.5-1.33.55-1.9-.654-1.758-1.73 2.037-2.947 5.105-5.13 6.994-8.23 1.65-2.21 2.8-4.768 3.86-7.255.338-1.132 1.587-3.3-.153-3.98-2.098.447-2.447 3.025-3.36 4.625-1.17-.744-.417-2.975-.024-4.262.528-1.773 1.418-4.625-.765-5.504-1.812-.223-2.71 1.958-3.19 3.378-1.087 2.176.003 4.395-.287 6.616-.59 1.954-3.007.92-3.535-.535-.577-2.926.32-5.97.936-8.848.655-1.486.827-3.37.248-4.887-.778-1.4-3.334-.368-2.714 1.097-.386.778-.757 2.037-1.854 1.268-1.8-.777-1.653-3.293-1.758-4.93.224-2.578.9-5.193 1.318-7.72-.987-2.198-3.103-3.623-5.303-4.404-.882-1.768-2.348-3.32-4.213-3.936-.335-2.306-1.992-4.302-3.974-5.342-.64-2.026-1.87-4.553-4.177-4.892-.973-.875-1.035-2.562-2.34-3.268-.71-.96-2.126-.85-2.847-1.547-.41-1.96-2.34-2.786-3.936-3.573-.808-1.286-2.312-1.47-3.536-1.9-.59-1.225-2.622-.687-2.924-1.91.928-3.214 3.96-5.384 6.9-6.67 3.326-1.388 6.474-3.36 10.13-3.858 3.95-.956 8.034-1.234 12.02-1.45 3.974-.088 7.91.446 11.848 1.184 2.44.878 4.94 1.577 7.396 2.387 2.746 1.468 5.73 2.435 8.448 3.973 3.15 1.37 5.74 3.755 8.457 5.81.794.428 1.852 2.588 2.57 1.002 1.024-1.1-.432-2.502.363-3.754.72-.694.707-1.547-.02-2.246-1.178-1.357-2.67-2.312-4.5-2.283-1.91-.308-3.9-.893-4.93-2.694C56.986 3.778 57.492.91 59.148.01c1.593-.15 1.273 1.65 1.204 2.618.353 1.654 1.75 2.698 3.363 3 2.523.244 4.915 2.035 6.077 4.184.416-.735.452-2.517 1.825-1.74.435.473 1.08 1.85 1.46.61 1.395-2.023 3.837-2.482 6.054-2.904 1.32-.505 2.53-1.356 2.47-2.942.024-1.175 1.282-3.082 2.465-1.873.915 1.06.365 2.712-.17 3.86-1.3 2.416-4.095 3.183-6.593 3.42-1.693.487-3.764 1.708-3.9 3.564 1.18.73.99 2.142.287 3.066.08 1 1.338 2.338 2.083.936 1.888-1.67 4.218-2.833 6.112-4.53 2.936-1.88 6.084-3.412 9.33-4.68 2.83-1.425 5.81-2.595 8.85-3.418 6.703-1.46 13.69-2.13 20.43-.802 3.29.36 6.462 1.33 9.498 2.578 3.332 1.304 6.772 2.618 9.593 4.9 1.745 1.053 3.535 2.294 4.873 3.746.072.977-1.46.613-1.854 1.166-1.063.5-2.51.984-3.325 1.987-1.476.08-2.873.913-3.837 1.968-1.588.363-2.563 1.856-3.196 3.21-2.365.574-5 2.23-5.16 4.815-1.81.222-3.38 1.35-3.956 3.076-.425 1.066-.718 2.067-1.876 2.56-1.586.944-2.193 2.79-2.7 4.433-1.82.678-3.31 2.09-4.128 3.84-2.256.676-4.364 2.093-5.408 4.26-.853 1.492.633 3.103.497 4.7.423 2.272.95 4.633.305 6.842-.66.977-2.684 2.6-3.497.84-.32-1.102-.066-3.412-1.95-2.465-1.805 1.62-.603 4.28-.04 6.23.712 2.735 1.158 5.824.077 8.495-.942 1.048-3.077 1.664-3.612-.087.122-2.893.843-6.098-.86-8.695-.4-1.356-2.41-2.13-2.924-.382-1.17 2.758.996 5.62.248 8.466-.094 1.114-.937-.488-1.07-1.013-.484-1.22-1.074-3.003-2.446-3.268-1.837.33-.9 2.618-.44 3.822 1.23 3.088 2.545 6.243 4.698 8.795 1.73 2.562 4.418 4.388 6.136 6.915.603.942-.137 1.83-1.233 1.7zm-.115-.363c-.276-.26-.363.022 0 0zm-1.21-.526c.075-.13-.15 0 0 0zm1.096-.105c1.467-.813-.91-2.098-1.635-2.695-2.734-1.962-4.25-5.05-6-7.835-.43-.67-.887-1.817-1.242-2.198 1.48 3.527 3.226 6.99 5.368 10.1.872 1.16 1.928 2.63 3.498 2.618zm-63.388-.688c1.358-.613 2.282-1.76 3.077-3 1.76-2.176 3.353-4.502 4.395-7.1.293-.42.796-1.6.668-1.643-2.235 3.725-4.455 7.587-8.026 10.243-.65.336-1.533 1.685-.114 1.51zm8.332-12c-.05-.07-.05.07 0 0zM84 71.633c1.725-1.16 1.764-3.43 2.33-5.236-.024-5.302-.864-10.56-.955-15.92-.414-2.78-.33-6.072-.63-8.542.223 6.203.083 12.527 1.107 18.613.064 2.908.15 6.103-1.68 8.6-.327.627-1.488 2.44-.172 2.484zm9.574-.1c-1.238-3.075-2.584-6.13-3.094-9.445-.89-3.772-1.303-7.682-1.356-11.562-.366-2.368-.237-4.908-.793-7.16-.09 3.833.803 7.782.754 11.63.297 3.278 1.062 6.47 1.604 9.708.822 2.374 1.75 4.688 2.87 6.937l.014-.1zm-35.678-.406c1.396-.786-.346-2.328-.974-3-2.4-5.32-.112-11.253-.2-16.817.095-2.398.356-5.13.09-7.315-.304 6.03-.575 12.112-1.51 18.14-1.51-.36-3.187.282-3.64 1.882-.336 1.2.973-.666 1.578-.61.785-.6 2.818-.33 2.302 1.07.04 2.04.02 4.426 1.327 6.144.286.303.602.562 1.04.506zm-2.484-8.294c-.113-1.007.425-.686 0 0zm-7.213 7.98c1.427-3.39 2.95-6.79 3.714-10.426.85-4.4 1.098-8.96 1.418-13.458-.642.347-.16 1.807-.5 2.566-.357 4.385-.487 9.008-1.967 13.224-.372 1.147-.13-1.323-1.185-1.185-1.298-.943-3.385.576-2.848 1.91.734-1.312 3.04-1.642 3.717-.153.07.705-.735 2.03-.944 3l-1.404 4.52zm54.51-1.405c2.113-1.608 1.36-4.693.822-6.918-.644-2.17-1.28-4.374-1.585-6.63.18-2.218 3.84-3.887 4.892-1.384.53.673.276 2.636 1.567 1.766 1.107-1.843.108-4.21.038-6.25-.3-.955-.35-2.717-.63-3.172.136 2.502.14 5.084-.144 7.606-.724-1.564-2.555-2.477-4.232-1.7-2.158.552-2.264 3.238-1.395 4.91.345 2.112 1.18 4.384.82 6.42-1.05-2.222-1.47-5.05-3.55-6.65-1.54-1.434-4.41.598-3.903 1.968.835-2.695 4.75-1.657 5.523.592 1.206 2.338 1.73 5.115 1.184 7.702.06.52-.15 1.658.59 1.74zM39.054 68.02c1.164-.41-.037-2.097.42-2.983-.055-2.093.31-4.416 1.567-6.152 1.364-1.624 4.5-1.762 5.236.535.457-.955.02-2.806-1.433-2.866C42.303 55.5 40.628 58.24 40 60.3c-.503 1.132-.433 2.657-1.356 3.516-.455-.87.16-2.477.344-3.63.553-1.853 1.17-3.687 1.623-5.56-.07-2.927-4.928-4.103-5.924-1.166-.108 1.212-.977.652-.65-.344.17-2.884.114-5.803.314-8.676-.787 2.794-.713 5.86-1.536 8.676-.51.944.796 3.658 1.873 2.293-.526-2.133 2.44-3.925 4.05-2.293 1.136.87 1.164 2.224.747 3.478-.167 3.266-2.033 6.337-1.49 9.613-.043.625.245 1.86 1.05 1.815zm51.12-2.962c-.483-1.167-.913-3.16-2.6-2.828-1.113-.353-1.62 2.224-.344 1.223 1.35-.444 2.318.9 2.943 1.605zm5.962-.19c-.795-2.96-1.755-5.86-2.12-8.925-.567-4.4-1.278-8.817-2.387-13.1.007 3.045 1.22 6.336 1.585 9.517.8 4.11.63 8.51 2.75 12.23.01.023.167.49.172.286zm-50.317-1.07c1.35-4.044 2.328-8.194 2.807-12.44-.03-.67.588-1.822.218-2.217-.962 3.63-1.066 7.518-2.147 11.16-.216 1.126-.83 2.596-.878 3.497zm45.654-.115c.375-1.04 2.136-1.457 2.55-.2.958-.347-.62-2.36-1.595-1.577-.81.02-1.443 1.402-.956 1.777zm-10.7-.525c.493-1.986 3.516-1.933 4.08.01.6-2.223-3.12-3.723-3.975-1.3-.043.294-.532 1.355-.104 1.3zm-.745-.095c.49-2.628.608-6.17.486-8.266-.001 2.687-.89 5.71-.486 8.266zM61.06 62.89c.57-2.23-2.797-3.366-4.004-1.71-.333.634-.16 2.028.574.88 1.083-1.207 2.802-.472 3.363.86l.068-.028zm.593-.286c.198-5.22-.886-10.48-.565-15.72.086-.905-.026-3.935-.172-1.718.036 4.392-.322 8.846.368 13.215-.033 1.408.254 2.927.37 4.223zm29.285-1.33c.685-.693 1.757-1.156 2.648-.696.345-2.456-3.893-2.015-3.088.295-.122.298.206.447.44.4zm-40.025-.468c.86-1.366-.373-2.466-1.635-2.685-.954-.265-1.77 2.192-.42 1.682.8-.01 1.368 1.04 2.055 1.004zm30.317-.87c-.05-.07-.05.07 0 0zm-1.652-.448c.064-1.108.117-2.656-.373-3.584-.338.87-.756-.056-.803.382-.62-.41-.315-.83-.898-.153.01-.87-.41-.785-.218-.115-.672-.473-.246-.117-.565.077-.695-.457-.954-.31-1.223-1.482-.63-.387.067.947-.115 1.146.59.9-.113.335-.554.03-.108.766.05 2.485.966 2.485.87-1.445 3.417-.545 3.505 1.07.04.113.128.28.278.144zm9.23-.554c.313-.685-.64-1.916-.336-.43.088.164.047.475.336.43zm-35.69-.22c-.106-.95.9-1.862.42-2.695-.14.736-.57 1.247-.593 1.987.088.173.003 1.36.172.707zm9.402.057c.195-1.477 1.88-2.453 3.13-1.414.978.583 1.655-1.427 1.304-2.056-.7-.226-1.42 1.294-1.26-.2-.205.748-.598.7-.61.095-.34 1.103-.48-.22-.745.2-.33-.444-.66.82-1.05.24-.297.206-.488-.655-.908-.164-.167.685-.423 2.808.144 3.287zm20.925-.764c.342-.504-.172-2.608-.248-1.032.173.268-.037 1 .248 1.032zm3.134-.172c.114-.824-.806-1.11-.363-.134-.024.204.465.532.363.134zm3.746.134c.25-.568-.415-1.814-.344-.573-.001.158.033.738.344.573zm11.095.01c-.76-3.08-1.4-6.244-2.742-9.146-.67-1.73-1.303-3.614-2.32-5.135 1.042 2.287 1.803 4.755 2.702 7.084.69 2.398 1.483 4.787 2.273 7.167l.087.03zm-18.815-.087c.314-1.466-.51-1.123-.153-.02l.076.057.076-.038zm4.597.01c.39-.636-.507-1.94-.317-.66.12.195.022.688.317.66zm3.937-.115c.16-.668-.832-1.876-.45-.508.126.187.155.524.45.508zm-39.52-.364c.44-.393.335-1.61-.163-.64.03.177-.227.7.163.64zm39.968-.24c.138-.576-.425-2.04-.4-.707-.002.163.31 1.1.4.707zm.832.087c.152-.517-.153-2.043-.412-.85.076.24.057.89.412.85zm-8.17-.087c.397-1.756-.803-1.095 0 0zm-33.385-.076c.7-.464.094-1.776-.134-.554l.005.545.13.01zm4.654-.028c.522-1-.898-.35 0 0zm32.086-.076c.506-1.54-1.027-.883 0 0zm-38.192-.087c.482-.342.596-1.924 0-.88.005.2-.19.804 0 .88zm38.88-.104c.354-1.967-.765-.673 0 0zm-33.568-.03c.537-.774-.4-1.44-.25-.23.004.137.07.364.25.23zm3.795-.142c.554-.96-.602-1.543-.24-.087.023.105.148.152.24.087zm-8.152-.05c.366-.36.38-1.946-.134-.994.156.004-.26 1.287.134.994zm31.753-.065c.383-1.142-.708-1.354-.202-.145.014.09.093.168.202.145zm8.092-.087c.362-.9-.646-1.343-.23-.325.034.065.112.475.23.325zm-32.468-.02c.725-1.236-.782-1.064 0 0zm-3.582-.046c.714-1.37-1.055-.786 0 0zm42.367-.076c.246-.836-.815-1.543-.355-.374.098.1.158.478.355.374zm-1.196-.162c.335-.61-.92-1.838-.44-.613.132.182.14.683.44.613zm-35.782-.22c.667-.812-.985-1.29-.737-.382.468-.06.322.436.737.382zm26.983-.02c.46-.584-.27-1.565-.24-.526.047.12-.02.624.24.526zm5.092.028c.396-.595-.4-3.637-.516-2.236.375.678.218 1.568.516 2.236zm-8.79-.15c.098-.75-.94-2.53-.4-1.053.048.193.036 1.472.4 1.053zm-31.31-.01c.657-.455-.05-1.553-.144-.43.044.123-.215.685.144.43zm40.75-.2c.305-1.27-.585-.88-.096.115.062.096.182.292.096-.115zm-8.627.164c.296-1.608-.74-.49 0 0zm13.767-.01c.373-.498-.898-1.903-.458-.688.14.22.236.64.458.688zm2.227-.047c.108-.66-.865-2.37-.602-.9.16.276.346.838.602.9zm-41.392-.2c.444-.764-.412-1.26-.183-.164.03.075.09.257.183.164zm-17.2-.068c.234-.492.545-2.17.095-.86-.057.174-.39 1-.095.86zm5.504.038c.656-.42.067-1.515-.134-.44-.015.113-.07.464.134.44zm8.752 0c.742-.852-.822-.892 0 0zm-9.717-.18c.676-.472-.02-1.528-.24-.45-.394.214.06.74.24.45zm41.622-.056c.296-1.85-.816-.58 0 0zm11.102-.058c.246-.642-.81-1.528-.45-.45.122.165.2.472.45.45zm-7.635-.087c.45-.524-.53-1.698-.19-.325.063.095.115.302.19.325zm4.922-.028c-.197-.87.35-1.9-.187-2.7-.293.67.105 1.375-.225 2.07.116.194.075.742.412.62zM50.225 55c.544-.535-.006-1.714-.164-.508-.024.13-.1.57.164.508zm9.9 0c.494-.72-.85-.158 0 0zm16.11-.115c.34-.686-.66-1.562-.354-.392.067.134.13.59.354.392zm12.078.04c.418-1.373-.804-.456 0 0zm-33.492-.126c.708-.71-.496-.803-.096-1.49-.3-1.26-.795 1.767.096 1.49zm-8.647-.143c.523-.485.442-2.153-.03-.966.105.213-.38 1.034.03.966zm31.158-.087c.11-.635-.665-1.724-.42-.497.025.16.338.973.42.497zm-32.554-.01c.428-.617-.175-1.344.43-1.902-.052-.604-.293-1.1.114-1.73-.932-.64-.305 1.858-.826 1.378.275-1.15-.59.068-.607-.22-.355-1.516-.918 1.758-.172.654.39.137.395.468.88.042.556.346-.682 1.997.182 1.78zm8.982.077c.522-.57-.172-1.583-.202-.374-.052.125-.01.51.202.374zm-2.667-.01c.788-.55.024-1.477-.2-.363-.05.144-.007.405.2.363zm-8.638-.076c1.026-1.018-.27-1.38-.153.02-.04.002.2.005.153-.02zm38.163-.115c.03-2.6-.01-1.646-.077-.172.001.023.07.545.077.172zm1.223.02c.23-1.324-.578-.73-.057.115h.057zm2.572.087c.015-2.1-.703-.625 0 0zm-17.917-.03c.765-.736-.565-.583 0 0zm-1.567-.038c.668-.58-.197-1.56-.23-.382-.065.13.058.442.23.382zm.927-.124c.38-1.613-1.01.116 0 0zm30.614.02c.027-.553-.568-2.372-.545-.794.082.26.245.833.545.794zm-37.876-.02c.743-1.145-.915-1.034 0 0zm5.217-.02c.29-.953-.866-.023 0 0zm19.263-.02c.503-1.475-.688-.86-.087-.01.02.02.06.028.087.01zm-39.27-.076c.52-.748-.49-.888-.197-.02zm34.206-.02c.147-.604-.567-1.837-.373-.526.135.15.126.62.373.526zm-19.99-.057c.62-.75-.373-1.772-.278-.43.046.155-.04.51.278.43zm20.762-.01c.014-.508-.353-2.105-.363-.803.096.195 0 .926.363.803zm-19.54-.027c-.063-.606.246-1.428-.232-1.884-.278.49-.097 1.476.122 1.9l.1-.026zm4.958-.068c.69-.526-.11-1.515-.267-.46-.082.14.148.474.267.46zm-12.18-.085c.635-1.03-.722-1.076 0 0zm34.253-.03c.604-1.288-.572-.917 0 0zM79.5 53.86c.41-1.952-.775-1.547-.087.02.048-.025.088.12.087-.02zm17.687-.028c.32-.767-.793-1.664-.374-.488.123.14.152.588.374.488zm-37.493-.057c.52-.816-.346-1.653-.22-.43.082.132-.115.576.22.43zm3.688-.058c.59-1.655-1.026-.373 0 0zm-8.094-.01c.554-.333.08-1.783-.057-.592.085-.037-.17.75.057.592zm-9.698-.162c.402-.425.398-1.824-.125-.813-.038.13-.17 1.033.125.813zm-4.062-.01c1.05-2.63 2.05-5.24 2.96-7.912.054-.478.786-1.598.363-1.586-1.337 3.05-2.402 6.217-3.36 9.403l.02.134.02-.038zm45.626.01c.378-1.292-.74-.43 0 0zm-36.3-.038c.457-1.093-.788-.36 0 0zm48.165-.01c.303-.65-.64-2.064-.46-.688.108.208.153.8.46.688zm-36.337-.085c.383-.625-.075-1.455-.335-.507-.1.202.01.717.335.507zm27.393.013c.482-1.635-.79-.3 0 0zm7.808.007c.193-1.132-.865-1.5-.336-.278.074.126.137.36.336.278zm-23.402-.03c1.087-.458 2.53-.443 3-1.815.61-1 1.84-1.303 2.82-.715.06-1.6-1.013-3.13-.603-4.788-.265-1.693.9-3.604.114-5.16-1.044 2.383-1.085 5.163-2.1 7.568-.784 1.46-1.78 2.708-3 3.822-.125.27-.736.982-.23 1.09zm.21-.434c.155-.84 1.585-1.053.63-.158-.202.086-.394.27-.63.158zm1.127-.483c-.05-.85.985-1.148.497-.104.007.16-.57.345-.497.104zm.803-.382c-.475-.67 1.367-2.043.688-.822-.27.23-.382.722-.688.822zm.29-1.424c.2-.543.653-1.657 1.046-1.62.137.56-.4 1.6-1.046 1.62zm1.008-.182c.244-.846.344-1.785.8-2.542-.145.896.547 2.774-.8 2.542zm1.223-.42c-.838-.692.965-.77.45-.02-.144.05-.303.046-.45.02zM79 49.304c-.076-.45-.032-2.263.34-2.035-.212.55.82 2.235-.34 2.035zm3.274 4.014c.39-1.838-.73-.71 0 0zm5.607-.164c.187-2.106-.56.36 0 0zm-4.1.057c.48-1.448-.554-1.185 0 0zm-16.51-.057c.502-.946-1.18-1.665-1.643-2.446-2.726-2.833-2.182-7.102-3.41-10.56-1.182.3-.07 2.465-.43 3.374.56 1.94-.787 5.487.46 6.765 2.05-.333 2.46 2.705 4.49 2.75.19-.003.364.216.533.115zm-.72-.45c-.566-.876 1.007.207 0 0zm-.635-.372c-.816-.343-.59-1.907.19-.45.083.14.038.54-.19.45zm-1.046-.775c-.508-.447-.73-2.062.148-.888-.05.25.48 1.32-.148.888zm-1.05-1.166c-.667-1.264-.31.3 0 0zm.516-.363c-.323-.41.29.136 0 0zm-2.37-.152c-.2-1.51 1.144.023 0 0zm1.543-.105c-.647-.76.7-.08 0 0zm-.726-.077c-.816-.898 1.047-.425 0 0zm.994-.153c-.725-.38-.42-1.75.095-.707.09.21.2.684-.095.707zm-1.643-.46c-.3-.347.285-.267 0 0zm.573-.153c-.75-.883.67-.815.19 0l-.096.02-.096-.02zm.483-.927c-.3-.496-.245-1.812.053-.66-.043.202.444.756-.053.66zm-.707-.058c-.632-1.63 1.023-.19 0 0zM49.22 53.04c.636-1.076.926-2.902 2.312-3.02 1.387.477.56-1.81.974-2.618.438-2.65.325-5.49.898-8.045-1.122-1.213-2.243 1.148-2.427 2.16-.61 3.607-1.507 7.155-1.9 10.797.118.063-.116.98.152.727zm-.038-.88c.095-.957.514-1.856 1.07-2.56.067.895-.718 1.95-1.07 2.56zm1.438-2.398c-.02-1.122.79-.13 0 0zm.535-.306c.03-.698.698-.183 0 0zm.554-.058c-.316-1.22 1.108.06 0 0zm-1.624-.02c-.225-1.187 1.14-.42 0 0zm.78-.487c-.282-.914.73-.33 0 0zm.903-.316c-.314-1.423 1.007.19 0 0zm-1.362-.143c-.553-.656.815-1.365.306-.2-.04.1-.218.214-.306.2zm.573-.363c-.105-1.05.607-.32 0 0zm.803-.344c-.396-1.716 1.083.03 0 0zm-1.237-.525c.02-.665.468-2.804.358-.946.012.306.18 1.07-.358.946zm1.204-.44c-.088-.51.404-2.43.377-.945-.057.26.277 1.193-.377.945zm-8.834 6.26c.63-.306.35-1.895-.057-.784-.018.214-.227.724.057.784zm40.276-.238c.075-2.014-.638-.232 0 0zm9.445-.005c-.564-3.192-1.31-6.44-1.782-9.6 1.02-.7-.554-1.693-.792-2.57-.32-.823-1.575-1.473-1.09-.134-.087 3.206.213 6.516.715 9.737 1.645-.437 2.235 1.658 2.95 2.576zm-1.18-3.064c-1.178-.254-.03-1.765.23-.497.036.173.056.598-.23.497zm-.975-.287c-.952-.694.673-1.2.24-.047l-.153.066-.087-.02zm-.74-.2c-.365-1.23.924-.205 0 0zm1.4-.717c-.952-.608.637-1.195.278-.047l-.172.066-.106-.02zm-1.428-.087c-.505-1.644 1.143-.1 0 0zm.664-.028c-.926-.72.858-1.097.297-.028l-.172.047-.125-.02zm.688-.803c-.47-.304-1.788.402-1.567-.86-.012-.544-.335-3.77.134-2.293a22.8 22.8 0 0 1 .488 2.266c-.042-1.477.352-.77.467.066.39 1.47-.123-3.286.344-1.147-.096.494.742 1.85.135 1.968zm-.956-.707c-.046-.133-.046.133 0 0zm.33-2.857c-.143-.595.408-.01 0 0zm5.786 8.628c.374-.893-.662-2.455-.363-.764.14.214.147.7.363.764zm1.987.057c.28-.836-.542-1.675-.764-2.427-.494.77.603 1.57.635 2.417l.13.01zm-36.164-.046c.618-1.03-.81-1.3 0 0zm39.96-.153c.36-1.918-.98-.3 0 0zm-21.338-.106c.13-.797-.25.14 0 0zm-33.107-.276c.694-2.668 1.225-5.39 1.765-8.114.25-1.13.97-2.596.434-3.593-2.66-.822-3.402 2.895-4.466 4.644-.252.943-.94 1.967-.87 2.848 1.868-.5 2.226 1.943 2.647 3.25.2.285.135.89.5.966zm-.064-2.79c-.387-.998.998-.787 0 0zm-.253-1.1c-.827-.888.738-.564 0 0zm.56-.2c-.29-.532.595-1.572.263-.468-.114.125-.028.575-.263.468zm-1.247-.45c-.642-1.056 1.018-.316 0 0zm.846-.03c-.386-1.382 1-.546 0 0zM46 47.44c-1.06-.357 1.027-2.005.306-.478-.045.182-.052.47-.306.478zm-1.027-.182c.07-1.202 1.134.2 0 0zm1.753-.365c-.216-.863.962-.093 0 0zm1.414-.103c-.452-.457.58-2.37.268-.84-.1.226.097.84-.268.84zm-2.88-.124c.128-1.208 1.17.093 0 0zm2.408-.153c.035-.75.592-.733.115.028l-.115-.028zm-.65-.268c.014-.652.693-1.263.34-.24-.017.163-.163.34-.34.24zm-.655-.163c-.408-.468.97-1.773.478-.516-.094.228-.076.71-.478.516zm-.626-.2c-.026-1 .815-.098 0 0zm51.306 6.13c.32-1.837-.93-.853 0 0zm-56.23-.223c.46-.567-.013-1.13-.278-.297-.102.163.037.5.278.297zm53.604.04c.457-1.15.275-3.404 2.13-3.28 1.055.434 1.13-.37.67-1.09-.997-2.237-2-4.558-3.668-6.383-.794-.365-1.498.193-1.05 1.108.096 1.99.38 4.035 1.012 6 .314 1.194.422 2.61.794 3.67l.115-.027zm-.202-1.73c-.475-.64.082-2.596.44-1.185.032.366.065 1.106-.44 1.185zm.502-1.92c-.57-1.165 1.2-.53 0 0zm-.65-.115c-.374-1.392.924-.055 0 0zm2.44-.124c-1.054-.463.044-1.445.42-.397.264.333-.036.5-.42.397zm-1.93-.4c-.645-.913 1.128-.494 0 0zm.75-.01c-.35-.907 1.043-.002 0 0zm-1.342-.277c-.7-1.107.626-.4 0 0zM95.18 47c-.288-1.04.876.137 0 0zm-.764-.057c-.834-.54.487-1.184.344-.218-.073-.001-.203.315-.344.218zm1.682-.038c-.882-.498.35-.995.42-.076-.067.157-.297.08-.42.076zm-1.07-.42c-.75-.656.57-.783.115-.038-.038-.006-.092.087-.115.038zm-1.3-.206c-.468-.765.024-1.22.134-.195l-.008.202-.126-.007zm1.95-.1c-.954-1.2 1.323-.205 0 0zm-1.62-.163c-.533-.786.06-2.092.3-.735.204.28.156 1.032-.3.735zm.612-.344c-.56-.852.37-1.332.32-.19.094.187-.222.388-.32.19zm.855-.18c-.912-.595-.18-1.565.2-.363.08.147-.082.384-.2.363zM43.564 51.5c.618-.404.235-1.73-.077-.715.04.145-.24.846.077.715zm.497.03c.812-.512.2-1.848-.115-.516-.035.13-.058.53.115.516zm60.8-.2c.042-1.58-.836-.28 0 0zm-3.822-.038c.244-1.144-.773-1.157-.28-.164.032.113.075.305.28.164zm1.174-.03c.353-.97-.796-1.247-.2-.172.06.074.056.247.2.172zm-62.136-.143c.774-.812-.483-.958-.22.086l.048.038.172-.124zm63.15-.258c.52-.58-.672-1.506-.2-.325.088.06.052.457.2.325zm-66.598-.115c1.123-1.416-.957-.06 0 0zm-1.232-.066c.365-.704-.636-.036 0 0zm5.532-.002c.8-.724-.36-.993-.268-.113l.177.14.09-.03zm65.233-.074c.27-.865-.754-2.237-.393-.737.107.22.148.72.393.737zm-67.688-.096c.584-.515.3-1.694-.125-.603-.057.154-.227.778.125.603zm47.64-.04c.38-1.036 1.378-.955 1.958-.335-.38-3.735-1.005-7.602-.726-11.31-.523-.623-.878-2.445-1.853-1.992-.11 4.58.267 9.128.477 13.683l.144-.047zm-.067-.717c-.582-.97.93-1.434.4-.382-.074.066-.297.627-.4.382zm1.667-.602c-.15-.413.317.124 0 0zm-.865-.22c-.523-1.08 1.124-.267 0 0zm.764-.115c-.9-.98.822-.375 0 0zM86.07 48.5c-.456-.764.86-1.174.473-.2-.105.134-.28.298-.473.2zm.78-.373c-.562-1.203 1.033-.206 0 0zm.52-.2c-.46-.728.802-.036 0 0zm-1.26-.343c-.564-.993 1.092-.903.244-.048-.075.032-.16.08-.244.048zm.65-.306c-.472-1.026 1.508-.48.515-.01-.235-.22-.222.24-.515.01zm-.674-.564c-.6-1.24 1.532-.495 0 0zm.688-.287c-.575-.946 1.405-.483.382-.038-.137-.065-.26.163-.382.038zm-.76-.545c-.176-1.36 1.367-.048 0 0zm1.065-.315c-1.008-.02.658-.95.153 0l-.076.02-.076-.02zm-1.07-.397c-.153-.577-.38-2.594.2-2.603.46.5.682 2.668-.2 2.603zm1.032-.33c-.34-.702-.542-2.294-.057-2.694-.016.817.566 2.1.057 2.694zm-47.335 5.504c.788-.396-.016-1.328-.115-.307-.075.076.005.36.115.307zm64.564-.104c.615-.697-.084-2.3-.29-.985-.505.057-.001 1.046.29.985zm2.66-.023c.368-1.627-.9-1.463-.283-.197.078.112-.002.368.283.197zm-25.65-.034c.337-1.466 2.54-1.587 2.894-.096.372-.472-.215-2.276-.057-3.24-.224-4.08-.188-8.18-.726-12.23-.126-1.207-1.5-.824-1.223.344-.138 4.608-1.42 9.134-.974 13.778.106.322-.32 1.363.085 1.444zm.05-.766c-.13-2 1.016-.338 0 0zm2.5-.793c-.74-.414-.084-1.8.134-.554-.08.085.22.84-.134.554zm-1.868-.067c-.407-1.208 1.43-.945.263-.124-.084-.056-.156.255-.263.124zm-.592-.4c-.364-1.62.76-1.236.263-.162-.062.1-.105.216-.263.162zm1.58-.273c-.245-.95.72-.017 0 0zm-.917-.616c-.024-1.024 1.045-.39.363.115-.127.095-.53.27-.363-.115zm1.47 0c-.4-.85 1.047.05 0 0zm-.516-.02c-.376-1.104.907-.122 0 0zm-1.605-.4c-.116-1.4 1.02-.183 0 0zm2.202-.22c-.252-.832.702-.257 0 0zm-.592-.096c-.27-1.136 1.025.044 0 0zm-.807-.027c-.073-1.438 1.247.04 0 0zm-.803-.537c-.17-1.38 1.27-.096 0 .153zm.884-.278c-.443-.917 1.037-1.084.492-.133-.044.213-.342.208-.492.133zm.798-.18c-.145-1.103.838-.395.115.19h-.115zm-1.58-.373c-.027-1.713 1.432-.138 0 0zm.932-.41c-.306-1.606 1.332-.147 0 0zm.88-.153c-.664-1.285 1.02-.14 0 0zm-1.734-.315c-.256-1.513 1.597-.393 0 0zm.86-.478c-.15-1.407 1.42.182 0 0zm.822-.134c-.254-.556.448-1.437.3-.314.135.2-.042.53-.3.314zm-1.567-.343c-.063-.714.628-2.063.51-.373-.008.254-.246.48-.51.373zm.912-.163c-.308-.468.337-2.198.267-.612.07.21.18.817-.267.612zm-.516-1.223c.046-.133.046.133 0 0zm-28.493 8.236c.585-.9 1.835-1.004 2.332-.2.232-1.666.235-3.377.344-5.026-.26-2.908.55-5.887.306-8.772-1.353-.18-2.028 1.835-2.083 2.98-.5 3.663-.657 7.368-1.026 11.017l.13.01zm.1-.736c-.08-1.614.893-.573 0 0zm.626-.736c.024-.6.384-1.64.306-1.758-.37-.97 1.157-1.12.602-.124-.566.062.574.817-.335 1.068 1.097.145-.522 1.215-.573.814zm-.497-.382c-.26-1.266.988-.63.096.038zm1.796-.172c-.504-1.027.93-.055 0 0zm0-.65c-.5-.688.777-.255 0 0zm-1.658-.2c-.147-1.124.96-.026 0 0zm1.605-.46c-.407-1.63 1.125.04 0 0zm.09-.87c-.667-1.643 1.11-.688 0 0zm-.874-.106c-.344-.735.928-1.313.53-.132-.082.23-.355.2-.53.132zm-.35-.257c.046-.133.046.133 0 0zm1.26-.707c-.67-.462.555-1.352.458-.276.067.343-.268.31-.458.276zm-.726-.038c-.32-1.836 1.06.124 0 0zm.1-.965c-.163-1.484.707.02 0 0zm.74-.03c-.55-.615.35-2.058.23-.46.1.146.012.545-.23.46zm1.73 6.03c.4-1.612 2.535-1.35 3.173-.1l-.584-14.845c.186-1.04-.707-2.662-1.452-.975-1.243 2.414-.382 5.288-1.05 7.893-.345 2.67-.038 5.44-.086 8.037zm2.97-.718c-.746-.35-.015-1.674.062-.447-.116.1.193.464-.062.447zm-2.828-.42c.23-.68-.028-1.25.592-1.05.864-.105-.814 1.895-.592 1.05zm2.03-.64c-.5-.825.778-.02 0 0zm.72-.16c-.445-.272-1.2-.84-.573-1.234-.642-.883.522-.894-.134-1.613.827-.876.434 1.102.745 1.605-.112.38.203.93-.038 1.242zm-1.53-.268c-.8-.887 1.44-.275 0 0zm-.817-.162c-.323-1.212 1.197-.84.13.01l-.13-.01zm.932-.45c-.986-1.428 1.312-.32 0 0zm-.78-.697c-.37-.847.865-1.238.33-.076-.1.056-.186.18-.33.076zm.893-.105c-.89-.548.655-1.486.23-.142l-.047.115-.182.028zm-.836-.946c-.11-1.85 1.213-.12 0 0zm.745-.2c-.47-1.44 1.033.01 0 0zm.936-.593c-.84-1.217 1-.145 0 0zm-1.548-.247c-.13-1.48 1.06-.082 0 0zm.688-.116c-.373-1.058.912.147 0 0zm.855-.448c-.417-.416-.03-1.666.134-.478.018.166.22.648-.134.478zm-.798-.258c-.375-1.27.706-1.923 0 0zm-.573-.19c-.145-.94.52-.097 0 0zm43.92 6.537c.126-.902-.8-1.214-.316-.106.073.1.09.266.316.106zm-2.227-.03c.365-1.046-.884-.827-.057.02zm-62.9-.26c.097-.174 1.206-.376.485-.944-.47-.65-1.178 1.682-.485.944zm4.012.117c.635-.304.53-1.88-.01-.756-.013.123-.202.965.01.756zm-5.56-.172c.615-.41.388-1.526-.05-.488-.02.14-.335.712.05.488zm3.716-.125c.6-.407.152-1.09-.2-.248-.07.153.038.332.2.248zm61.545-.028c-.126-.683 0-1.81-.647-2.146-.023.59.504 1.03.255 1.62.152.13.166.588.392.527zm-26.745-.163c.703-.29-.66-2.042-.435-.753-.047.273.044.812.435.753zm28.59-.172c.207-.95-1.023-1.8-.44-.46.11.16.178.6.44.46zm-35.296-.02c1.008-.57-.158-2.263-.23-.592-.123.23-.217.706.23.592zm-26.9-.043c.416-.152.863-1.698.145-.913.022.276-.327.722-.145.913zm62.95-.214c.34-.473-.673-1.72-.373-.526.034.14.23.722.373.526zm-1.902-.163c.1-.586-.426-1.643-1.004-1.865.27.563.497 1.435 1.004 1.865zm-34.866-.162c.72-.582-.053-2.444-.354-1.023-.1.287-.1 1.18.354 1.023zm8.16 0c.37-.592-.48-2.135-.373-.66.1.183-.002.9.373.66zm30.222-.24c.23-.83-.94-1.504-.46-.382.07.16.323.672.46.382zm-66.025-.07c.73-.66-.134-1.496-.248-.275-.085.134.105.393.248.275zm67.335.003c.186-.71-.732-1.568-.355-.393.086.128.144.482.355.393zm-71.147-.077c.538-.922-.748-.152 0 0zm4.806-.03c.823-.606-.235-1.147-.19-.172.028.076.118.205.19.172zm-1.67-.085c.686-.79-.42-1.104-.158.018l.158-.018zm37.667-.343c.557-.657-.632-2.532-.412-.9.11.262-.082 1.003.412.9zm26.257-.268c.085-.884-1.12-1.238-.278-.232.07.094.153.34.278.232zm3.085-.22c.02-.705.195-1.843-.584-2.17.35.797-.205 1.49.393 2.224.063.114.3.42.19-.053zm-68.767.106c.8-.785-.546-.566-.167.104l.167-.104zm28.914.02c.627-.536.105-2.678-.22-1.27-.06.35-.587 1.58.22 1.27zm33.127.028c.27-.99 1.31-1.664 1.3-2.8 1.073-1.077-1.238-.835-1.796-1.46-.65-.302-1.58-1.134-2.145-.94.744 1.77 1.77 3.426 2.512 5.194l.13.01zm-.205-.775c-.377-.47-.814-2.153.053-.907.144.277.705 1.026-.053.907zm.382-.574c-.388-.613-.8-1.706-.834-2.187.677.47 2.037 1.57 1.026 2.292l-.19-.105zm.454-1.27c-.58-.524-.713-1.28.287-.898.766-.064.182 1.088-.287.898zm-25.195 2.42c.388-1.166-.466-2.295-.297-.355.05.11.1.473.297.355zm29.2 0c.37-.542-1.193-2.31-.775-1.07.306.315.36.947.775 1.07zm-67.86-.154c.837-1.082-.762-.558 0 0zm7.568-.037c.92-2.23 1.87-4.44 3.313-6.386-.72-.001-1.61 1.28-2.523 1.615-.717.588-2.093.667-2.427 1.47.412 1.06.442 2.214 1.3 3.058.087.116.134.357.338.24zm-.025-.727c-.778-.737.146-1.773.587-2.493.76-1.02-.088 2.044-.587 2.493zm-.674-1c-.327-.752.436-1.586.84-2.164.294.45-.607 1.38-.688 2.083-.02.057-.085.174-.153.08zm-.268-.917c-.74-.483.28-1.49.42-.654-.126.204-.19.61-.42.654zm25.32 2.633c.777-.625.14-1.636-.306-1.758-.698-.973-.953 1.56-.04.95.123.217-.195 1.06.347.807zm37.2-.333c.237-.554-.83-1.3-.393-.355.072.16.185.396.393.355zm-68.128-.154c.396-.756 1.327-1.515 1.355-2.303-.544.648-1.377 1.54-1.44 2.35l.087-.047zm38.354 0c.5-1.116-.65-1.532-.26-.24.036.104.066.455.26.24zm1.97-.4c.382-.494-.356-2.755-.412-1.33.036.308-.066 1.448.412 1.33zm-11.887-.134c.668-.584.063-2.83-.277-1.317-.08.34-.486 1.568.277 1.317zm41.22-.076c.27-.6-.84-1.985-.507-.68.1.21.25.805.507.68zM38.147 45.3c1.16-1.423-1.013 0 0 0zm66.35-.095c.228-.5-.8-1.974-.64-.783.175.26.42.715.64.783zm-68.3-.402c.438-.952-.82.13 0 0zm.65-.115c.146-.883-.73.316 0 0zm29.457.047c.902-.362.037-2.254-.325-.898.004.3-.1.887.325.898zm9.51-.123c.374-.695-.4-2.567-.336-1.08.114.268-.176 1.16.336 1.08zm-4.655-.106c.78-.7 1.963-1.93 1.5-3.04-.275 1.08-1.035 2.136-1.5 3.04zm2.935-.008c.466-.606.08-2.5-.107-.852.08.22-.465.993.107.852zm-6.097-.154c.42-.505-.682-2.046-.373-.775.075.186-.048 1.022.373.775zm2.015-.097c-.787-.798-.682-2.292-.985-3.01-.508.906.225 2.56.985 3.01zm-5.542-.658c.85-.708.235-3.2-.248-1.204-.023.358-.22 1.112.248 1.204zm13.13-.02c.438-.59-.516-2.535-.363-.994.075.258-.045 1.125.363.994zm-7.548-.038c0-.523.225-2.856-.382-1.815.023.59-.338 1.586.382 1.815zm5.113-.142c.52-.93-.307-1.433-.278-.21l.043.2.235.02zm-8.21-.26c.677-1.18-.488-2.85-.23-.238-.08.153.103.3.23.238zm4.577-.105c.63-.61.527-2.55.028-.908.148.222-.573 1.195-.028.908zm28.96.036c-4.86-2.655-9.125-6.394-12.383-10.883-1.96-2.86-4.466-5.942-7.472-7.375 3.547 2.78 6.358 6.358 9.116 9.898 2.964 3.4 6.588 6.55 10.74 8.36zm3.03-.17c.057-.693-2.114-1.375-.87-.47.285.158.517.48.87.47zm.868-.16c.217-.775-2.21-1.395-.765-.444.258.1.487.496.765.444zm-33.89-.128c.308-1.03-.36-1.362 0 0zm-4.625-.115c.666-.7-.153-2.008-.392-.68-.038.182-.066 1.02.392.68zm-.297-.85c.1-.07.1.07 0 0zm10.797.917c.153-.315-.357-2.434-.4-.975.1.29-.1 1.028.4.975zm28.943-.085c.155-.712-2.18-1.598-.97-.584.322.17.586.6.97.584zm1.938-.05c.143-.676-2.15-1.515-.803-.44.247.135.508.51.803.44zm-68.74-.096c.642-.204 1.005-1.528.153-.707-.123.11-.714.778-.153.707zm3.096-.038c5.56-2.04 9.6-6.682 13.3-11.14.947-.956 1.922-1.59.63-.19-1.354 2.104-3.438 3.784-4.578 5.973 1.586-.74 3.42-1.267 4.56-2.762.914-1.066 2.096-2.102 2.522-3.457.33-.956-.872-1.005-1.147-1.35 2.008-2.04 4-4.09 6.344-5.75-2.715.518-4.618 3.087-6.574 4.844-3.697 4.912-7.865 9.7-13.335 12.67-.445.48-1.53.836-1.724 1.165zM57.82 30.852c.15-.07.15.07 0 0zm48.36 11.324c.088-.62-1.94-1.282-.737-.335.227.127.438.505.737.335zm-68.54-.01c.93-.326.95-1.503.086-.583-.13.138-.6.606-.086.583zm-1.91-.153c.668-.463.89-1.468-.038-.726-.11.175-.588.968.038.726zm-.975-.057c.6-.393.8-1.085.027-.573-.16.155-.734.79-.027.573zm32.697.02c.6-.295-.15-2.54-.2-1.433.147.442-.176 1.216.2 1.433zm-30.566-.124c1.473-.96-.188-1.054-.316-.02l.15.084.167-.065zm3.66-.03c1.332-.346 2.888-.84 3.784-1.847-.48-.414-1.77.7-1.892.3.62-.312 1.254-1.014.2-.574-.626.15 1.4-1.062.23-.593-.734.47-1.996.845-2.26 1.495 1.05-.686-.017.92.425.397.464-.365 1.816-.532.764-.02-.322.29-1.416.584-1.26.84zm68.07-.057c.398-.75-1.904-1.455-.6-.42.195.12.34.48.6.42zm-33.93-.047c.57-1.077-.3-2.05-.297-.565-.005.227-.176.793.297.565zm3.487-.05c.686-.71-.572-2.953-.23-.898.2.237-.168.922.23.898zm22.217-.046c-.928-.525-2.05-.978-3.03-1.357.9.645 2.02.956 3.03 1.357zm-36.558-.23c.68-.543-.08-2.608-.354-1-.094.3-.17 1.187.354 1zm45.147-.2c.194-.674-1.875-1.284-.693-.42.205.096.424.55.693.42zm-75.484-.038c.796-.428.742-1.32-.057-.42-.18.152-.395.474.057.42zm66.858.01c-.597-.728-1.745-1.643-2.614-1.807.853.41-.18.75.807 1.108.527.376 1.187.6 1.807.7zm-.775-.412c-1.037-.46.254-.2 0 0zm2.6.39c-.686-.816-1.92-1.704-2.8-1.595.808.824 1.805 1.136 2.8 1.595zm1.414-.096c.035-.278-2.168-1.86-1.013-1.232.364-.118-.875-.7-1.204-1.03-.535-.536-1.277-1.082-1.91-1.386 1.417 1.146 2.565 2.726 4.128 3.65zm-9.135-.005c-1.556-2-4.186-2.646-6.112-4.208-3.133-1.746-4.485-5.264-7.074-7.568 1.056 1.724 2.617 3.26 3.076 5.313-.192-.68-.16-1.327.478-.363.673 1.21 2.436 2.352 3.02 3.153.63-.14 1.495.926 2.212 1.26.284.2.835 1.216.502.343 1.404.407 2.826 1.14 3.9 2.068zm15.165-.05c.182-.6-1.954-1.9-1.1-.88.33.188.7.967 1.1.88zm-32.45-.19c.1-1.32-.682-2.255-.603-3.584-.276-.425-.593-1.886-.745-.688-.387 1.73.58.275.578 1.33-.432 1.004.69 1.32.416 2.34.077.188-.044.805.354.603zm-12.317-.05c.937-.437-.176-1.856-.306-.592-.066.234-.096.723.306.592zm11-.085c.3-.523-.095-2.768-.355-1.158.14.28-.15 1.218.355 1.158zm34.608-.058c.192-.726-1.89-1.632-.717-.488.223.134.422.58.717.488zm-10.184-.02c-.37-.445-1.728-1.148-.662-.316.19.14.4.362.662.316zm-33.903-.095c.483-.726-.206-1.976-.22-.507.04.146-.2.7.22.507zm-33.357-.01c.934-.43.08-1.007-.306-.115.044.106.202.164.306.115zm38.823-.142c.415-.417.8-2.147.027-1.367.022.4-.473 1.31-.027 1.367zm-2.36-.01c.14-.447.122-1.644-.26-1.883-.147.514-.375 1.643.26 1.883zm-21.67-.153c1.165-.886 2.806-1.534 3.995-2.006-.392.284-1.126 1.567-.325.578.8-.725 2-1.59 2.81-1.992-.355.574-.405 1.367-.038.382.722-1.47 2.353-2.17 3.238-3.402 1.444-1.62 2.903-3.563 4.272-5.38-2.035 1.13-2.918 3.807-4.74 5.34-.97.966-1.853 1.942-3.057 2.656-1.8 1.69-4.605 1.865-6.23 3.745-.11.36.032.012.077.077zm63.33.02c.428-.69-2.016-1.855-.784-.65.263.173.433.693.784.65zm2.39-.057c.474-.84-1.275-1.47-1.74-2.12-.322-.27-1.777-1.382-1.05-.346 1 .653 1.667 2.106 2.8 2.467zm-43.437-.057c.113-.626-.272-.122 0 0zm34.16.01c-1.12-.864-2.353-2.1-3.73-2.66 1.196.868 2.417 1.94 3.73 2.66zm-72.266-.03c1.875-1.058-.314-1.127-.072.018l.072-.018zm71.72-.057c-.248-.156-.03.112 0 0zm-31.158-.047c.443-.515.257-2.022.01-.698-.016.153-.283.783-.01.698zm31.005-.06c-.79-.593-1.604-1.378-2.523-1.662.723.655 1.635 1.34 2.523 1.662zm-34.608-.028c.045-.473-.4-2.508-.535-1.223.112.367.167 1.1.535 1.223zm43.046-.066c.137-.665-1.18-1.43-1.5-1.33.383.428.934 1.234 1.5 1.33zM31.4 39.653c2.117-1.527-1.305-.31 0 0zm38.65-.16c.478-3.197-.448.834 0 0zm.43.067c.314-1.362-.416-.583 0 0zM40.086 39.5c.474-.28 1.893-1.604 1.223-1.605-.857.54-1.955.523-2.637 1.48.513-.046 1.183-.993 1.53-.705-1.168 1.138-.016.1.51 0-.027.197-1.342 1.028-.623.832zm24.02.02c1.134-.454-.155-2.23-.267-.688-.064.22-.098.76.267.688zm-.936-.057c.935-.8-.15-2.585-.325-.86-.025.262-.118.9.325.86zm14.744-.085c.366-.546-.535-2.196-.354-.794.12.218-.062.983.354.794zm.994.001c.414-.493-.488-2.327-.336-.966.104.206-.098 1.094.336.966zm-48.187-.145c1.374-.78-.4-.782-.397.066l.163.066.233-.132zm34.8.05c.685-1.558-.757-2.282-.144-.01.048.015.094.078.144.01zm9.392.013c.5-.574-.064-2.802-.19-1.113.13.327-.413 1.158.19 1.113zm21.9-.038c-1.255-1.433.633.346.02-.692-1.015-1.07.468-2.232 1.586-1.586 1.18.248.987-.524.076-.67-.5-.315-1.982-.622-1.862-.114.02.357-1.416.5-.622 1.02-.628.107.594.995-.4.355-.627.065.428 1.475.894 1.644.09.038.237.21.3.042zm-58.496.015c.716-.583 2.336-1.315 2.523-1.72-.935.31-2.176 1.007-2.523 1.72zm-9.125-.2c.623-.953 2.168-2.277 2.21-2.685-.667.468-1.37 1.003-2.03 1.376-.02-1.086-1.014.675-.724 1.252.097.2.404.405.545.057zm77.06.132c-.964-.675-.694-.822-.88-1.422-.746-.51-1.365-1.395-2.293-1.538.48.752 1.74 1.42 1.987 1.997-1.39-.566-2.422-2.328-3.688-2.656 1.2 1.52 3.038 3.013 4.873 3.62zm-76.25-.142c.85-.36.705-1.2-.096-.44-.388.12-.272.59.096.44zm37.092.02c.778-.652-.54-2.524-.153-.936-.04.258-.092.773.153.936zm-21.9-.115c1.145-.595 2.88-1.796 2.408-3.153-.72-.114-1.07 1.26-1.95.554.713-1.323-1.136-1.55-1.916-.822-.55.378-1.557.953-1.64 1.414.57-.07.96-.165 1.605-.497.962-.577 2.453.475 1.376 1.414-.515.553-.81.998.115 1.1zm68.2-.07c.02-.734-1.968-1.41-.645-.33.197.124.37.433.645.33zm-77.028-.197c.5-.5 1.86-1.09 1.93-1.47-.643.418-1.657 1.002-1.93 1.47zm77.295-.338c.015-.69-1.637-1.2-.577-.255.164.084.36.415.577.255zm-77.42-.034c1.02-.824 2.583-1.31 3.296-2.208-1.204.588-2.795 1.2-3.556 2.12l.078.105.182-.017zm-.182-.116c.23-.28.256.056 0 0zm25.34-.276c-.666-2.933-.592-6.02.65-8.79-.67.724-.968 2.263-1.184 3.364-.156 1.778-.02 3.816.535 5.427zm44.813-.143c-1.015-1.186-1.663-1.133-.23-.105.07.028.15.134.23.105zm-70.764-.048c1.222-.472 2.414-1.127 3.555-1.777-1.197.303-2.867.948-3.555 1.777zm30.777-.047c.462-1.43-.486-2.516-.316-.698.066.192-.093.91.316.698zm47.68.04c.073-1.014-1.72-1.188-.508-.24.14.12.294.308.508.24zm-49.075-.096c.53-.983-.422-1.888-.297-.25l.043.247.254.001zm23.074-.01c-.044-.2-.044.2 0 0zm-8.34-.028c.302-.6-.765-2.578-.45-1.023.21.306-.145 1.174.45 1.023zm-2.33-.076c.336-.728-.536-1.485-.335-.412.046.158.033.6.335.412zm30.317.037c-.704-.613-1.425-1.307-2.293-1.662.666.654 1.467 1.23 2.293 1.662zm-29.2-.133c.403-1.1-.58-1.847-.66-2.906-.48-.385-.306 1.373.134 1.367.483.21.048 1.57.526 1.54zm29.698.001c-.583-1.124-2.705-1.592-2.877-2.553 1.285.664 2.33 2.034 3.593 2.503-1.62-1.57-3.758-2.85-5.657-3.884 1.273 1.656 3.168 2.9 4.94 3.933zm-79.365-.154c1.238-1.022-.707-.473-.163.124l.163-.124zm33.834.105c.7-.828.204-2.1.057-3.03-.81-.42-.7 1.347.02 1.08-.04.515-1.06 1.946-.077 1.95zm1.147 0c.86-.586-.155-2.593-.344-.917.007.267-.15.978.344.917zm50.71-.2c.115-.9-1.797-1.17-.49-.182.142.096.292.33.49.182zm-78.438-.163c.483-.253 2.09-1.175.803-.61-.23.094-1.385.808-.803.61zm2.828.038c.288-.14-.092-.132 0 0zm2.56 0c-.1-.07-.1.07 0 0zm53.298-.076c1.104-.595-1.022-.87-.183-.02.05.04.125.052.183.02zm-26.238-.076c.377-.61-.177-2.985-.23-1.09.182.31-.136.957.23 1.09zm.9-.046c.1-.906-.444-2.066-.412-.546.052.2.11.626.412.546zm2.99.008c.577-.236.523-1.93.095-.86.02.21-.325.865-.095.86zm.794-.028c.414-.584.17-1.77.01-.45.018.108-.34.566-.01.45zm-1.233-.03c.467-1.02-.213-.655 0 0zm-4.977-.047c.32-.583-.433-2.478-.43-1.023.156.3-.066 1.108.43 1.023zm2.875-.01c.062-1.107-.477-.966-.115.022l.057.034.057-.056zm45.386-.002c.352-.804-2.552-1.463-.2.02l.2-.02zm-80.93 0c.416-.137 1.72-.884 1.223-.955-.538.268 1.093-1.004.042-.4-.482.315-1.68.912-1.456 1.127.648-.423 1.118-.514.234.096-.233-.07-.118.23-.043.134zm41.097-.028c.392-.372.23-2.495-.125-1.405.225.302-.457 1.38.125 1.405zm14.964-.057c-1.425-2.06-3.242-3.91-4.636-6.04-1-1.337-2.184.368-1.11 1.325 1.21 2.097 3.4 3.985 5.744 4.716zm-61.975-.192c.568-.44.812-1.18-.077-.392-.398.082-.368.828.077.392zm5.073.086c1.03-.917 2.653-1.616 3.517-2.388-1.392.342-2.944 1.508-3.596 2.445l.08-.057zm82.842-.096c-.177-.593-1.177-1.35-1.796-1.328.48.44 1.14 1.24 1.796 1.328zm-45.807-.057c-.06-.73-.848 0-.153-.077l.1.134.053-.057zm10.3 0c.64-2.38.613-4.967-.562-7.167.95 2.274.788 4.83.543 7.224l.02-.057zm37.237-.2c.302-1.216-1.668-1.764-2.265-2.648-.39-.373-1.448-1.327-1.798-1.11 1.17 1.314 2.468 2.608 3.822 3.7.077.03.146.103.24.05zm-1.1-.134c.166-.622-2.16-1.55-.9-.488.275.137.538.63.9.488zm-5.954-.04c-.772-.906-2.107-1.4-2.6-2.283-.504-.375-1.54-1.238-1.91-.898 1.333 1.224 3.087 2.24 4.5 3.18zm-16.473-.047c1.723-1.098-1.346-.762 0 0zm-67.057-.23c.872-.47.515-1.076-.19-.354-.166.093.052.56.19.354zm52.505-.047c.455-.633-.712-1.713-.354-.564.057.162.003.82.354.564zm12.258-.04c-.467-.612-1.576-1.685-1.498-2.3.402.238 1.384 1.133 1.46.975-.462-.4-1.05-1.405-.095-.822.908.65.576.086-.057-.516.117-.58 1.466 1.345 1.796.745-.494-1.006-1.524-1.444-2.102-1.873-.84-.827-2.798-.976-2.064.822.793 1.036 1.466 2.276 2.56 2.97zm-27.767-.027c.545-.338.308-1.037.23-1.615-.427-.582-.782 1.746-.23 1.615zm31.723-.02c.74-.714-.933-1.067-.554-.16.112.175.367.246.554.16zm-17.475-.142c.388-.37-.482-2.168-.488-1.12.095.29.122 1.186.488 1.12zm-31.18-.03c.83-.42-.094-1.076-.65-.822-.587-1.376-1.433.752-.027.382.2.164.37.497.677.44zm53.08-.008c.26-.667-1.503-1.65-.374-2.495.656-.53 1.942.12 2.304-.067-.668-.48-1.954-.914-2.44-.66-.407.32-.814.228-.62.994-.195.268-.863.44-.646.764.694.342-.682.262.306.688.46.284.905.763 1.468.775zm-73.928-.05c.666-.362 1.06-1.186.12-.573-.266.08-.716.6-.12.573zm84.976-.144c-.9-1.07-2.16-1.937-3.453-2.264-.674-.523-1.108-.195-.23.2.918.575 1.79 1.302 2.726 1.787-.67-.936.714.38.956.266zm-61.605-.066c1.02-.988 2-2.094 2.733-3.306.538-1.833-1.625-1.47-2.39-.63-.616.525-1.998 1.22-2.03 1.7.46-.383 1.93-1.006.77-.153-.64 1.174 1.062-.293 1.646-.688.82.31-1.23 1.324-.873 1.873.976-.957 1.24-.703.324.18-.097.343 1.734-.816-.028.717-.15.06-.545.49-.153.306zm13.674-.028c.662-1.47.022-2.216-.354-.335-.098.227.12.497.354.335zm-38.66-.134c.53-1.117 2.072-2.288 2.402-2.915-.58.308-1.65 1.378-1.797.688-.84.4-.613 1.304-1.15 1.96.003.2.366.533.545.268zm1.04.028c2.63-1.615-1.284-.357 0 0zm15.078-.057c1.04-.2 2.157-.825 2.752-1.68-.048-.986-1.763.003-1.185-.88.066-.164-.94-.315-.028-.64-1.18-.305-2.542.294-3.385 1.128.858-.007 2.74-1.212 2.764.277-.114.757-1.425 1.246-.918 1.796zm24.452-.028c.398-.716-.03-3.1-.144-1.348-.008.354-.317 1.307.144 1.348zm10.988-.038c.455-.586-.032-2.755-.202-1.06.016.224-.23 1.217.202 1.06zm42.012-.182c-.1-.384-.19.408 0 0zm-85.9-.134c1.35-.917 2.956-1.42 4.243-2.415-1.3.22-2.426 1.3-3.63 1.92-.106.144-.777.38-.612.497zm-.688-.076c1.406-.833 2.95-1.608 4.22-2.547-1.414.028-2.285 1.34-3.532 1.88-.153.144-1.025.583-.688.67zm43.82-.038c.678-.523-.256-2.436-.23-.936.142.228-.173.955.23.936zm-44.393-.19c1.397-.44 2.2-1.594 3.536-2.16.51-.6-1.307.557-1.28.19.287-.506-1.298.337-1.816.42-.496.15-1.34.81-.363.42 1.147-.683-1.225 1.088.077.497.52-.227 1.663-.878.63-.153-.075.167-1.428.78-.784.784zm47.527 0c.648-.394-.784-2.13-.287-.745.126.238.18.583.287.745zm38.346-.008c.18-.852-2.373-1.482-1.085-.7.44.13.622.74 1.085.7zm-50.9-.134c.52-1.5-.524-1.777-.22-.382-.155-.015.063.54.22.382zm-3.393-.125c.578-.288.576-2.012.02-.936-.03.265-.49.867-.02.936zm49.476-.053c-.13-.655-2.143-1.65-.84-1.218-1.25-1.18-2.886-1.966-4.37-2.732.358.38 1.562.914 1.53 1.156-.46-.247-1.807-1.215-1.67-.88 1.824 1.176 3.593 2.44 5.313 3.746l.038-.072zm-40.303-.042c.47-.986-.227-1.15 0 0zm.564-.028c.276-.385.796-2.096.066-1.52.06.323-.505 1.69-.066 1.52zm-3.917-.037c.357-.808-.27-2.927-.26-.928.124.296-.003.707.26.928zm4.758 0c.337-.812.04-1.938-.068-.47.033.137-.24.612.068.47zm6.325-.058c.176-1-1.2-1.79-.316-.412.005.125.068.61.316.412zm-17.543-.058c.847-1.08.164-2.175-.26-.507-.063.207-.13.62.26.507zm5.848-.038c-.232-.524.155-2.488-.43-2.17-.148.644.013 1.738.43 2.17zm2.206-.106c.288-1.025-.28.243 0 0zm43.13-.144a19.64 19.64 0 0 0-5.466-3.41c1.926.972 3.595 2.426 5.466 3.4zm-16.205-.085c1.228-.408-.465-1.426-.382-.268.05.138.235.304.382.268zm-27.767-.317c-.227-1.066-.103.966 0 0zm.46.087c-.152-1.535.21.745 0 0zm47.26.153c.64-.494-.698-1.555-.88-1.185 1.272.713-.65.5.344.975.174.06.355.238.535.2zm-72.408-.268c1.172-.635-.983-1.61-.65-.315.07.294.392.384.65.315zm-19.874-.19c.36-.338 1.14-1.092.267-.92.687-.813-.054-.652-.564-.092-.583.527.123.505.297 1.013zm51.95-.296c.385-.428-.535-2.127-.41-.87.1.213.022 1.084.41.87zm18.633.02c-.493-.46-2.088-1.72-.47-1.196.57.352 1.3.446.416-.153.377-.066.39-.106-.187-.363-.986-.333-2.318-1.043-3.19-.44-.053 1.02 1.557 1.21 2.274 1.777.32.25.776.32 1.157.374zm-65.635-.05c1.322-.925 2.947-1.758 4.11-2.675-.9.198-2.478 1.4-2.683 1.337 1.04-.772 2.24-1.274 3.333-1.95-2.153.22-4.163 1.67-5.848 3.038 1.2-.583 2.336-1.528 3.56-2.098-.746.6-2.458 1.553-2.72 2.137.38-.363 1.98-1.345.86-.44-.07.13-.805.656-.612.65zm2.656-2.35c.196-.222.15-.17 0 0zm45.08 2.293c.554-.31-.47-2.156-.306-.784.14.222.055.754.306.784zm20.83 0c1.222-.897-1.476-.836-.115.02l.115-.02zm19.34-.038c.24-.86-2.207-1.214-.306-.076.096.038.197.135.306.076zm-55.82-.038c-.05-.07-.05.07 0 0zm2.56-.115c.658-.553.163-2.044-.076-.65-.002.204-.257.602.076.65zm39.73-.144c-.788-.738-1.98-2.8-.363-3.277.783.04 1.525.726 2.236.727-.88-.835-2.23-1.56-3.364-1.423.694.41-.97.532-.268 1.212-.37.2-.646.302-.612.612 1.247.745-.71.084-.516.44.49.317 1.78.62 1.586.936-.65-.21-1.32-.5-1.987-.563.956.626 2.11.987 3.192 1.384l.096-.048zm-24.565-.017c-.182-1.454-1.14-1.285-.216-.001l.216.001zm-14.324-.068c.67-.474-.08-2.12-.077-.554-.084-.98-.04.74.077.554zm31.627 0c.996-.383-.496-1.27-.46-.238.082.146.294.274.46.238zM43.984 32c.983-.59-.915-1.34-.497-.258.09.136.303.34.497.258zm18.738-.2c.46-.352.883-1.778-.03-.927-.29.174-.754 1.7.03.927zm15.747.173c.337-.645-.852-1.98-.392-.526.108.135.08.726.392.526zm-31.56-.106c1.083-.477 2.5-.776 3.04-1.92-.855-.705-2.256.13-3.306.354-1.155.338-.017.557.63.19 1.025-.343.642.295-.03.458.5.22-1.007.837-.334.917zm71.318.02c.456-.64-1.932-1.044-.573-.2.165.104.376.245.573.2zm-54.253-.053c.64-.93.193-1.67-.248-.424-.035.18-.063.594.248.424zM45.4 31.81c1.086-.8-1.316-1.003-.306 0l.153.02.153-.02zm-21.117-.2c.5-.273 1.504-1.516.325-.707-.295.084-1.064.812-.325.707zm51.673-.02c.564-1.972-.85-.737 0 0zm39-.05c-1.642-1.674-3.9-2.766-6.066-3.647 1.477.94 3.8 1.925 4.978 3.03-1.795-1.145-3.77-2.125-5.617-3.028 1.902 1.327 4.052 2.36 6.02 3.6-.04-.806.106-.01.685.044zm-48.65-.14c.486-1.97-.474-1.568-.19-.096-.012.094.12.234.19.096zm-28.512 0c1.138-.243 2.466-.32 3.44-.993.042-1.045-1.6-1.343-1.395-2.542-1.38-1.223-3.054.343-4.464.83.963.374 2.566-.737 3.595.326.484.83-1.743 1.24-1.252 1.73 1.606-.195-1.122.645.076.65zm80.97-.076c.264-.617-1.875-1.025-.684-.248.197.135.43.318.684.248zm-94.947-.276c.686-.482 1.05-1.294.142-.584-.258.083-.69.774-.142.584zm98.043.01c.447-1.125-1.194-2.055-2.026-2.714-.32-.248-1.62-1.097-1.232-.325 1.166.868 2.03 2.413 3.258 3.04zm-48.08-.076c.496-.828.798-2.452.2-3.03.104.822-.53 2.598-.2 3.03zm-1.032-.057c.442-.557.553-2.447.172-.994.025.227-.614 1.113-.172.994zm42.435-.027c-.71-.738-1.733-1.893-2.787-2.08.275.28 1.745 1.093.566.578-.395-.376-1.594-.81-.62-.115.937.53 1.803 1.335 2.84 1.616zm-46.84-.115c.323-.8-.133-2.342-.24-2.724.01.964-.808 1.612-.153 2.465.172.052.15.44.392.26zm-.47-.488c.1-.33.1.33 0 0zm51.512.49c-.206-.636-1.87-.8-.66-.183.245.01.39.302.66.183zm-48.722-.05c.345-1.505-.216-1.52 0 0zm17.982.02c1.762-.658 2.88-2.374 4.252-3.574.138-1.468-1.84-1.154-2.76-1.738-1.7-.223-3.012 1.653-3.325 3.134-.05.86 1.145 1.91 1.835 2.178zm2.446-3.287c-.535-.062-2.057-.288-.84-.535.348-.312 2.306.46.84.535zm.803-.535c-.86-.206-1.814-.598-2.465-1.012.754-.63 1.82.476 2.743.42.595.14.058.775-.278.592zM28.467 30.7c.855-.495 2.016-.992 2.657-1.51-.474.252-2.123 1.042-1.128.325.66-.6 2.175-.636 2.485-1.165-1.067.298-2.433.774-3.287 1 .985-.725 2.15-1.16 3.287-1.574-.847-.147-2.142.604-3.134.955-.464.12-1.665.55-1.53.802.488-.14 1.577-.777 1.645-.61-.562.434-1.733.91-1.7 1.49.51-.19 1.462-.786.67-.02.45-.217 1.484-.75.61-.115-.102.178-.86.265-.574.42zm1.3-1.987c.05-.07.05.07 0 0zm-6.46 1.873c.742-.324.887-.98.038-.497-.267.04-.467.667-.038.497zm46.028.03c.33-2.04-.53-.49 0 0zm2.95-.01c.295-.642.163-1.4-.058-.306-.008.08-.15.4.058.306zm-2.083-.068c-.1-.418-.088.27 0 0zm50.117-.017c.306-.81-2.223-1.057-.832-.354.326.038.487.47.832.354zm-20.4-.087c1.08-.828-1.196-.953-.41.017h.205l.205-.018zm-30.928-.046c.09-.555.073-3.353-.317-1.54-.183.498.022 1.14.317 1.54zm7.882-.05c.23-.7-.683-1.4-.287-.306.004.117.1.46.287.306zm-7.128-.153c-.06-.656-.156.517 0 0zm.46-.23c.005.12.004.096 0 0zm-47.47.172c.57-.085 1.804-1.176.67-.707-.28.058-1.217.44-.67.707zm-2.18-.057c.818-1.26 2.877-2.183 3.516-3.115-1.346.743-3.14 1.26-3.822 2.732-.082.19.085.484.306.383zm33.634-.057c.817-.77 1.686-2.252.42-3.077-.772-1.245-2.02-2.438-3.555-1.682-.793.523-2.348-.04-2.6.802 1.012 1.406 2.3 2.518 3.917 3.2.583.276 1.16 1.03 1.816.746zm-3.612-2.81c-.798-.484-.387-.6.24-.39.778-.68 1.11-.007.123.372-.116.038-.245.097-.363.02zm-.057-.898c-.367-.9 1.415-.015 0 0zm14.82 3.68c.53-.556.338-1.71-.068-.64-.048.167-.296.713.068.64zm-22.847-.01c1.138-.932-1.255-1.22-.325-.057.105.02.217.11.325.057zm21.89-.066c.34-.5.43-1.458-.087-.488-.104.13-.285.606.087.488zM77.8 29.9c.108-1.28-.915-.673 0 0zm19.214-.06c-.22-.246.204-.367-.46-.695.817-.18.606-.356-.076-.67-1.008-.9 2.128-.464 1.395-.88-.928-.49-2.13-.506-3.15-.115-2.772 1.8.66 1.992 2.29 2.358zm-74.968-.16c.656-.205 1.702-1.132.387-.67-.258.08-1.097.75-.387.67zm22.244.038c1.376-.45 3.07-.348 4.185-1.28-.065-1.407-2.11-1.75-3.23-1.815-.743-.104-1.32.442-1.37.86.42.286 1.4.422 1.6.535-1.257.26 1.445-.036.237.46-.27.28-.218.74-.918.84-.114.056-.854.305-.496.4zm.14-2.723c-.03-.128.134.044 0 0zm65.046 2.628c-3.93-2.108-8.455-2.773-12.652-4.182-6.122-.984-12.14-2.66-18.357-3.112-.816.33 1.408.48 1.94.764 4.33 1.193 8.898 1.133 13.224 2.368 4.365.78 8.718 1.716 12.92 3.208 1 .243 1.956.79 2.924.955zm6.508-.027c-.693-1.112-2.175-1.704-3.355-2.304-.714-.016 1.364.71.917.764-.484-.306-1.473-.47-.535.038 1.073.393 1.594.644 2.637 1.414.094.07.21.143.336.087zm-37.62-.24c-.05-.69-1.57-1.78-.764-.592.106.156.777 1.028.764.592zm.545-.028c.36-.682-1.334-1.483-.45-.316.093.168.166.448.45.316zm21.775.047c.95-1.037-1.494-.865-.354-.02.11.053.24.043.354.02zm-1.595-.2c.518-.942-1.36-.71-.41.066.127.022.342.122.41-.066zm-71.27-.03c.9-.208.194-.38-.057.02zm15.432-.028c.843-.684-.783-1.365-.45-.278.096.133.27.323.45.278zm36.834-.03c-.156-.61-.678-1.388-.267-.406-.015.103.205.466.267.406zm-16.76-.02c.59-.138.772-1.868.19-.83-.123.175-.646.746-.19.83zm4.357-.134c.073-1.064-.122.65 0 0zm-25.865-.028c.55-1.062-1.255-.493-.316.047l.125.02.19-.066zm-15.07-.03c.955-.57 2.302-1.315 2.886-1.968-.772.047 1.883-1.046.363-.622.41-.272 1.54-.78.42-.505-1.478.522-3.333 1.077-4.28 2.16 1.084-.5 2.303-1.265 3.376-1.404-1.027.528-2.357 1.22-3.032 1.9.575-.248 1.16-.683 1.72-.85-.367.435-1.357.926-1.453 1.29zm1.934-1.577c.247-.43.337.026 0 0zm1.047-.926c.123-.214.3.18 0 0zm91.556 2.427c.7-.54-2.29-1.602-.784-.554.263.144.47.578.784.554zM64.5 28.647c.398-.48.696-1.523-.01-.565-.02.146-.332.686.01.565zm-2.208-.01c-.05-.07-.05.07 0 0zm55.21.01c-2.05-1.457-4.532-2.213-6.88-3.016 1.46 1.026 3.148 1.8 4.752 2.54-.293-.4-1.753-1.22-.547-.717.91.357 1.77.884 2.675 1.194zm-5.198-2.302c.04-.196.1.142 0 0zm6.077 2.225c-2.03-1.606-4.638-2.325-7.044-3.133 2.296.976 4.776 1.872 6.968 3.182l.076-.05zm-17.2-.123c1.078-.4-.597-1.44-.382-.238.01.173.226.305.382.238zm-80.3-.23c.635-.2 1.2-1.35.267-.688-.215.15-.764.57-.267.688zm50.9 0c.45-.2 2.096-1.06.822-.612-1.433.734-3.145.114-4.3-.593.894.916 2.228 1.29 3.478 1.205zm28.187-.076c1.06-.664-.955-1.116-.344-.123.07.094.226.174.344.123zm-58.715-.2c.756-1.28-1.588-.833-.41.067.127.022.342.122.41-.067zm80.358.001c-.086-.73-2.054-.982-.742-.278.226.135.475.286.742.278zm-14.447-.153c-.648-.632-2.845-1.208-1.77-2.532 1-.96 2.567-.275 3.707-.127-.814-.856-2.327-1.578-3.287-1.556.63.345-1.212.076-.095.46-1.302-.308.03.61-.917.46-.814.07-.022.663-.756.792-.122.66.838 1.246.134 1.263 1.056.33 1.797 1.288 2.984 1.242zM25.43 27.7c1.826-1.008 3.798-1.73 5.757-2.407-.966-.217-2.246.713-3.368.993-.888.366-1.8.777-2.56 1.375l.172.04zm17.094-.124c.56-1.476-1.465.208 0 0zm-8.055-.125c1.287-.58 2.828-.663 3.918-1.547.04-.437-1.072-1.288-.236-1.538-.837-.09-.44-.694-1.187-1.443-1.583-.38-2.957.975-4.445 1.375.455.155 1.766.106 2.542.382.66-.414 2.63.32 1.472 1.166-.884.418-1.51 1.02-2.37 1.5.064.092.172.215.307.115zm-9.555 0c2.13-1.156 4.39-2.2 6.69-2.835-2.452.315-4.802 1.494-6.88 2.843.062.063.13-.032.19-.008zm97.136-.038c-.222-.862-2.32-.948-.883-.325.263.158.556.4.883.325zm-101.474-.038c.79-.12 1.335-1.274.268-.593-.233.1-.72.4-.268.593zm77.74-.057c-.54-.26-.52.126 0 0zm-25.435-.23c1.062-.7.434-2.7.898-3.096-.627.38-2.098.428-2.198.802.908-.303 1.872-.45 1.32 1.05.12.275-.517 1.446-.02 1.242zm49.964-.142c-.2-.89-2.454-1.01-.913-.24.277.156.565.378.913.24zm-53.393-.23c.15-.85-.163-2.177.983-1.895-.753-.333-2.185-.906-2.102.49-.44.607.335 1.612.4.478-.275-1.094.84-1.6.44-.268-.103.396-.305 1.105.278 1.195zm-49.257-.03c.59-.08 1.494-.94.43-.707-.172.077-1.095.604-.43.707zm19.626-.153c1.3-.226-.5-.078 0 0zm.917-.115c4.624-.943 9.37-1.784 13.99-2.234 1.657-.16 3.763-.71 5.58-.802 1.346-.24 2.794-.768 4.196-1.108-.72-.372-2.506.4-3.623.325-4.78.376-9.34 2-14.122 2.387-1.996.3-4.467.82-6.096 1.432-.024.065.102-.014.076 0zm61.59-.076c1.144-.535-.843-1.12-.344-.126.095.067.217.188.344.126zm20.505-.038c.1-.636-1.935-.874-.703-.2.23.065.456.26.703.2zm-103.098-.038c.47-.286.988-.982.042-.554-.292.132-.642.544-.042.554zm3.956-.038c.968-.634 2.73-1.428 3.306-1.853-1.15.5-2.487 1.064-3.306 1.853zm94.938-.02c.847-.148-.962-.865-1.433-1.09-1.223-.47-2.745-1.042-3.86-1.052-.72.288.962.495 1.414.67 1.39.224 2.6 1.135 3.88 1.47zm-5.064-1.987c.098-.137.098.137 0 0zm9.995 1.815c.527-.574-2.347-1.096-.936-.363.315.094.604.393.936.363zm-22.95-.068c-.458-.252-1.83-.642-.46-.524.196-.148-1.41-.525-.076-.497-.216.022.056-.92.382-.783-1.3-.33.224-.4.777-.563-1.3.148-.183-.7.408-.64-1.6-.37-3.886.426-4.204 2.198.82.68 2.22.558 3.172.81zm25.856-.104c-.07-1.527-2-2.238-3.183-2.8.832.904 1.978 2.092 3.015 2.916.1-.034.222.183.168-.115zm-102.888.095c1.12-.758 2.5-1.214 3.567-1.978.124-.34 1.374-.652 1.933-.945.9-.584-1 .074-1.448.324-1.425.62-3.124 1.094-4.205 2.12.565-.218 1.557-.93 1.873-.82-.558.346-1.88.907-1.72 1.3zm1.873-1.414c.1-.07.1.07 0 0zm1.438-.545c.01-.148.14.084 0 0zm47.57 1.93c.55-.527.168-2.654-.03-1.062.04.194-.334 1.3.03 1.062zm-34.752-.05c1.006-.55-.763-1.128-.382-.143.07.092.248.303.382.143zm24.05-.008c.15-.474-.24-.002 0 0zm56.077-.04c-1.353-1.25-3.36-1.28-4.988-1.996-.642-.132-2.05-.63-2.236-.248 1.612.617 3.227.5 4.76 1.317.804.42 1.652.706 2.465.927zM19.046 25.81c.894-.27.785-1.1-.038-.42-.206.102-.17.354.038.42zm48.558-.266c-.384-.706 1.053-1.768-.163-1.52-.444.312-.094 2.274.163 1.52zm-26.525.15c1.22-.324 2.652-.216 3.746-.84-.07-1.625-2.097-2.804-3.63-2.675-.868.044-2.13-.258-2.8.363 1.165-.11 2.323.203 3.363.62-1.615.654 1.942-.107 1.3.68-.633.1-2.133.136-.516.267.666.265-1.165.447-1.5.42-.54-1.374-1.386.72-.046.19.158.322-.536 1.05.076.975zm83.28-.076c.64-.052-.746-.678-1.145-.745-.89-.005.89.81 1.145.745zm-105.736-.344c.885-.268.743-1.146-.057-.44-.31.128-.416.512.057.44zm4.185 0c1.156-.72 2.835-1.28 3.823-1.815-1.333.412-2.8 1-3.823 1.815zm79.44-.115c.636.245 1.494-.435.62-.745-.312.73-1.238-.462-1.31.5.142.213.45.29.688.256zm22.492-.038c.485-.665-1.96-.758-.65-.267.243.022.414.3.65.267zm-4.07-.163c-1.762-1.83-4.34-2.145-6.38-3.487-.526-.335-1.678-.453-.54-.038 1.808 1.217 4.053 1.466 5.753 2.865.35.227.772.595 1.165.66zm-102.64-.2c.85-.3.483-.83-.22-.316l-.004.287.225.03zm-1.73-.18c.554-.755 2-1.248 2.092-1.94-.932.46-2.513.764-2.637 1.96.102.204.468.25.545-.02zm1.06-.144c1.023-.404.674-.992-.184-.363-.35.095-.048.445.184.363zm21.996 0c1.002-.76-1.352-1.044-.344 0l.172.02.172-.02zm-16.93-.19c1.93-1.428 4.342-2.18 6.365-3.305-.328-1-1.28-.034-1.7.286-1.64.616-3.5 1.517-4.663 2.54 1.744-.733 3.305-2.088 5.122-2.484-1.703 1.047-3.9 1.543-5.245 3.057l.123-.096zm5.657-3.183c.4-.427.455.085 0 0zm-.65 3.183c.624-.266 1.772-.516 1.95-.936-.646.1-1.925.593-1.95.936zm76.42-.268c.824-.77-1.177-.864-.23 0l.115.02.115-.02zm9.287.008c-.4-.19-.305.1 0 0zm12.9-.008c.217-.59-1.935-1.178-.646-.286.208.088.405.343.646.286zm-32.882-.043c1.66.02 3.61-.334 4.54-1.85 1.415-.697.982-2.3-.385-2.465-2.468-.427-5.086.205-7.256 1.356-1.354.905-.48 2.887 1.03 2.847.694.07 1.376.027 2.07.1zm.68-.1c.05-.07.05.07 0 0zm.306-.46c-.802.134-1.793-.705-.42-.592.77.322 2.423-.737 2.675-.02-.637.54-1.45.593-2.255.61zm-.497-1.108c-.66-.273 1.42-.557 1.758-.554.638.168 2.02-.665 2.16 0-1.04.697-2.736.475-3.918.554zm.268-.84c-.666-.188.982-.644 1.3-.65.64-.382 3.032.312 1.3.535-.862.1-1.732.155-2.6.115zm-1.696-.83c1.478-.84 3.762-1.15 5.365-.387.403.823-1.63-.007-2.14.282-1.073.088-2.148.074-3.225.105zm-22.516 3.316c.51-.503.51-2.505-.19-2.064.312.55-.642 1.765.19 2.064zm32.812 0c1.186-1.085-1.454-.313 0 0zm-29.113-.085c.485-.777.257-2.223.257-2.667-.603.4-1.9.56-2.007 1.03.672-.294 1.753-.853 1.452.593.144.228-.084 1.227.297 1.043zm46.695-.06c-1.145-.716-2.446-1.14-3.708-1.545 1.18.582 2.505 1.02 3.708 1.545zm-69.847-.046c1.177-.073 3.34-.37 2.77-2.045.004-1.572-1.61-1.985-2.924-2.025-2.078-.063-4.865-1.61-6.517.172-.195 1.523 1.666 2.475 2.867 3.115 1.144.677 2.54.577 3.803.783zm-2.484-.803c-.75.104-1.516-.526-.344-.306.68-.113 1.775.417.344.306zm.076-.535c-.36.24-2.24-.58-1.05-.554.342-.075 2.662.225 1.05.554zm-.153-.764c-.58-.182-2.58.037-2.12-.707.9-.105 2.557.074 3 .44-.25.18-.524.333-.88.268zm-.917-.89c-1.32.392-1.135-1.213.076-.66.404-.043 2.457.497 1.108.61-.388-.038-.812.1-1.185.048zm.497-.85c-.68.21-2.736-.404-1.04-.54.455-.055 2.234.4 1.537.54l-.248.02-.248-.02zM40 23.63c1.4-.766-1.374-.96 0 0zm-1.643-.038c1.227-.357-.648-1.636-.306-.2.046.103.19.245.306.2zm-16.78-.096c1.474-1.063 3.482-1.535 4.92-2.292-.103-.375 2.256-.813.91-.745-1.83.66-4.116 1.08-5.562 2.158.872-.23 2.155-.93 2.886-.916-1.1.398-2.673 1.093-3.154 1.796zm4.395-2.255c.33-.155.243.115 0 0zm94.843 2.236c-1.902-.988-4.034-1.735-6.116-2.216 2.04.69 4.136 1.584 6.116 2.216zm-10.75-.028c.295-.64-1.215-.555-1.558-1.118-1.486-1.087.55-2.615 1.758-1.816.55.148 1.755.282.688-.172-1.11-.493-2.913-.756-3.746-.248.45.294-.52.502-.325.917-.25.14-.366.38-.4.65.724.914 2.097 1.255 3.173 1.738.136.033.268.133.412.05zm-93.764-.068c1.262-.993-1.16-.36 0 0zm10.636.01c.038-.137-.426.142 0 0zm99.716 0c.057-.654-1.892-1.15-.592-.24.187.095.354.324.592.24zm-5.38-.136c-2.094-1.71-4.942-2-7.473-2.683.478.324 2.066.632 3 .917 1.597.306 3.004 1.31 4.472 1.766zm1.147.02c-2.67-1.623-5.707-2.64-8.79-3.016 2.39.573 4.832 1.114 7.014 2.28.594.22 1.17.653 1.778.735zm-53.554-.036c-.03-.535.78-2.044-.183-1.616.012.442-.444 1.563.183 1.616zm5.58-.21c.513-.485.163-2.348-.087-.832.023.18-.266.94.087.832zM67.72 23c.018-.69.47-1.425.507-1.72-.805-.488-1.052 1.658-.507 1.72zm-36.165-.085c.47-.125.397-.2 1.06-.45.864-.116 2.267-.562 3.42-.993.357-.06-.012-.53.02-.784-.226-.326.627-.395-.63-.65.945-.44-.99-1.217-1.567-.86-1.012.23-2.547.055-3.24.698 1.078.43 2.356.03 3.412.544.932.94-1.12 1.475-1.83 1.74-.258.163-1.322.5-.644.756zM15.76 22.8c.962-.285.686-1.145-.077-.42-.478.096-.12.452.077.42zm111.307-.104c.06-.642-1.723-.82-.584-.182.172.09.376.31.584.182zM21.033 22.33c2.458-1.018 4.995-1.738 7.55-2.472-2.56.42-5.44 1.037-7.55 2.472zm106.625-.162c-.5-.973-1.57-.256-.134.066l.134-.066zM15.51 22.12c1.062-.53.74-1.13-.092-.46-.352.103-.406.604.092.46zm100.652-.02c-.264-.163-.375.07 0 0zm6.708-.248c-1.42-.832 1.596.434.46-.287-.53-.34-1.888-.653-1.95-.917.636.384 1.17.158.248-.134-2.538-.834-5.26-1.513-7.835-1.9 1.167.538 2.897.554 3.865 1.112-.84-.048-2.225-.448-2.737-.444 2.478.56 4.898 1.317 7.205 2.387.24.06.5.298.745.19zm-2.198-1.185c-.752-.233-.95-.608-.047-.248.408-.016.193.36.047.248zm-15.632 1.09c1.132-.393-.794-1.177-.306-.096.075.067.2.152.306.096zm23.352-.057c.178-.606-2.045-.872-.764-.23.232.116.5.324.764.23zm-113.552-.02c.82-.236.564-1.037-.125-.41-.136.1-.11.47.125.41zm23.344-.085c0-.147-.143.078 0 0zm-18.567-.03c.276-.113-.277.034 0 0zm17.783-.18c.8-.57-.44-1.572-.488-.45-.2.267.3.467.488.45zm-17.324-.01c2.232-1.01 4.56-1.767 6.918-2.444-1.353.085-3.182.895-4.72 1.28-.737.25-2.023.77-2.198 1.165zm-1.376-.038c-.05-.07-.05.07 0 0zm.344-.038c2.264-1.006 4.645-1.725 6.976-2.52-2.56.234-5.1 1.168-7.28 2.53-.062-.04.372.07.305-.01zm110.065-.085c-.59-1.022-1.922-.31-.2.047.042.103.204-.12.2-.047zm2.045-.02c-.574-1.322-2.54-1.128-3.66-1.882-.774-.48-1.076-.025-.15.23 1.217.574 2.46 1.557 3.81 1.653zM14.077 21.07c.903-.085.8-1.06-.038-.42-.334.064-.433.512.038.42zm88.06-.115c-1.1-.37 1.065-.313.16-.802-.134-.197 1.384-.83.24-.955-1.536-.99-2.85 1.544-1.013 1.777.128-.018.607.156.612-.02zm-63.502-.038c.977-.017 3.6-.027 2.98-1.662-.962-1.15-2.527-.41-3.776-.516.453.373.7.26-.046.822-.38.928.942.87.764.027.596-.554 2.4-.128.917.183-.713.265 1.567.15.344.554-.21.217-1.977.23-1.185.593zm41.41-.038c3.716-.24 7.51-.798 11.16-1.47 4.765-.822 9.658-.968 14.447-.917-4.987-.837-9.992-.004-14.944.783l-11.4 1.47c-.076.355.607.044.726.134zm-6.612-.076c.68-.758-.286-2.247-.1-2.905-.497.307-1.657.657-1.78.86.63-.067 1.524-.632 1.338.402.27.485.068 1.424.554 1.643zm-3.4-.046c.006-.658.65-1.878.18-2.075-1.135-.792-1.26 1.077-1.157 1.827.23-.217.524-2.077.64-1.043-.058.382-.323 1.39.336 1.29zm54.376-.078c-1.38-1.337-3.387-1.665-5.16-2.36 1.172.7 3.033 1.032 4.28 2.006.286.1.64.427.88.353zm-61.42-.01c.956.093.602-.352-.153-.363-3.607-.645-7.324-.794-10.893-1.52 1.575-.894.533-2.77-.057-3.983-.807-2.25-3.603-2.268-5.552-2.216-.82 1.214.187 3.326-1.384 4.204.08.983 1.744.566 2.484.974 1.384.282 3.088-.015 4.216.946-3.456-.868-7.05-.8-10.6-1.213-3.253.053-6.497.66-9.708 1.318 2.512-.192 5.58-.7 8.294-.802 4.62-.127 9.147.486 13.626 1.642 3.2.586 6.507.595 9.726 1.013zm-14.6-3.325c-.76.265-2.35-.495-.822-.592.516-.018 1.74.102 1.796.573l-.5.038-.474-.02zm-.306-.803c-1.22.422-2.667-.62-.745-.745.54-.093 2.3.364 1.903.764-.387-.087-.77.045-1.158-.02zm.917-.84c-.796-.325-2.074-.012-2.503-.325.167-.932 2.596-.193 2.503.325zm-.23-.84c-.555-.284-2.436.075-1.835-.726.612-.153 2.125.082 2.064.726l-.115.02-.115-.02zm-1.944-.985c-.12-.85 2.507-.28 1.218-.047-.404-.098-.827.18-1.218.047zm2.632-.238c.202-.07.202.07 0 0zm-.65-.23c-.5-.245-2.4.306-1.796-.46.667-.052 2.075-.2 2.14.458l-.172.02-.172-.02zM13.007 20.63c.686-.043 1.61-.898.42-.554-.245.088-1.19.376-.42.554zm-1.338-.076c.978-.607 1.805-1.47 2.828-2.045-1.11.152-2.63.697-3.196 1.79.043.15.192.334.368.257zm92.645-.038c1.347-.73-1.294-.623 0 0zm-29.85-.134c.196-.452 0-2.21-.497-1.892.288.534.087 1.657.497 1.892zm31.15.02c1.032-.852-1.393-.555 0 0zm-86.022-.046c.004-.17-.298.16 0 0zM130.6 20c.013-.715-1.803-.52-.545-.106.185.03.35.24.545.106zm-110.18.01c-.05-.07-.05.07 0 0zm16.377-.153c1.108-.65-.777-1.47-.46-.238.07.183.273.3.46.238zm-18.823-.038c.662-.326.58.218 1.3-.305 1.742-1.006 3.877-1.492 5.562-2.273-2.34.752-4.892 1.357-7 2.57l.13.01zm107.436-.02c1.093-.032-.8-.57-1.26-.802-2.605-.957-5.267-1.82-7.95-2.434 1.017.407 3.036.84 3.402 1.192-.65-.083-1.96-.644-2.217-.458 2.613.915 5.32 1.542 7.908 2.54l.12-.038zm-4.5-1.663c-1.232-.22-.7-.495.126-.008l-.126.008zm-53.107 1.607c-.304-.88 1.175-1.435.076-1.683-.29.09-.355 1.793-.076 1.683zm63.178-.154c.225-.582-1.613-.797-.497-.172.158.05.336.196.497.172zM17.25 19.484c2.9-1.22 5.933-2.045 8.974-2.845-.005-.473-2.336.307-1.884-.2.837-.065.85-.45-.057-.172-2.53.39-4.913 1.374-7.262 2.32.746-.072.967-.098.172.317-.726.183-.69.587.02.2 1.153-.226-.47.332.038.38zm5-.046c-.004-.155-.395.158 0 0zm.37-.145c.797-.325-.47.074 0 0zm-10.76-.076c.584-.1 1.702-1.065.525-.707-.146 0-1.14.55-.525.707zm102.812 0c-.253-.07-.253.07 0 0zm-91.556-.076c.554-.115 2.314-.736.898-.363-.126.04-1.326.378-.898.363zm108.402-.124c.008-.628-1.593-.557-.473-.125.144.076.296.26.473.125zm-19.522-.182c.054-.4-1.24-.603-1.758-.82-1.44-.48-.234-1.796.783-1.758.504.078 2.342-.185.975-.42-1.13-.106-2.48-.2-3.516.134 1.418.314-1.182.2-.397 1.055.064.435.146.514-.023.74 1.246.294-.188.255.134.44 1.257.252 2.51.612 3.803.63zm-21.44-.076c2.034-.334 4.12-.845 6.068-1.203.775-.876-1.24-1.553-.47-2.6.5-1.123-.048-2.526-1.5-2.083-2.12-.366-3.828 1.3-4.49 3.19-.412.907-1.23 2.455.4 2.694zm2.714-.84c-.45-.73 1.555-.126.19-.02-.066-.008-.128.075-.19.02zm1.91-.497c-.7-.292-3.66.067-2.16-.67.962-.208 2.337-.533 3.077.22-.143.32-.607.438-.917.448zm-1.91-1.108c-.763-.56 1.097-.83 1.5-.707 1.102-.278 1.552 1.154.01.674-.51-.05-1.013.108-1.52.033zm-.688-.803c.12-.805 1.746-.724 2.523-.82 1.58.146.034 1.004-.745.61-.6.077-1.194.18-1.777.2zm.157-.91c.58-.847 2.303-1.002 3.187-.448-.816.34-2.2.404-3.187.448zm-.425-.735c.374-.887 2.443-.904 3.432-.554-.23.59-2.1.177-2.935.516-.165.014-.33.1-.497.038zm-80.912 4.74c.67-.013 1.664-1.007.4-.592-.227.096-1.2.5-.4.592zm13.664-.057c-.074-.093-.234.132 0 0zm81.324.01c-.484-.208-.86.063 0 0zm25.74-.154c-.06-.71-1.773-.547-.545-.106.177.034.37.22.545.106zm-102.593.01c1.204-.234 2.3-.425 3.46-.4.617-.325 2.365-.12 1.854-.91.524-.58 1.633.737 1.567-.42-.506-.636-1.322.798-1.873-.096.683-.41-.174-1.196-.344-1.174-1.014-.104-.297-.418-.077-.478-1.752-.027-3.834.28-5.255.86 1.068.514 3.243-.596 3.822.803-.877.912-2.34.74-3.383 1.307 1.515-.06.034.35.23.508zm2.14-1.013c.046-.133.046.133 0 0zm95.015.85c-2.58-1.13-5.454-1.572-8.16-2.395-1.3-.243 1.28.435 1.002.53-.176.18 1.362.398 1.94.56 1.747.282 3.54.78 5.217 1.307zm8.103-.157c-.07-.928-1.59-.992-2.327-1.418-.625-.192-1.37-.896-1.915-.745 1.207.905 2.66 1.653 4.1 2.197l.153-.034zm-123.9-.023c.554-.053 1.083-.907.18-.554-.19.103-.8.5-.18.554zm122.132-.038c.41-.595-2.247-.957-.65-.23.2.108.446.22.65.23zm-15.23-.202c-.77-.544-1.976-1.134-2.763-1.067.905.378 1.82.87 2.763 1.067zm-11.772-.027c1.25-.32-.685-1.31-.306-.143.062.053.197.21.306.143zm-35.993-.066c.59-.574-.125-1.41-.144-.22.013.03.046.39.144.22zm2.828-.172c.64-.81-1.205-2.304-.68-.813.168.262.29 1.004.68.813zm-57.34.01c3.61-1.15 7.225-2.33 10.99-2.922-2.54.113-5.33.86-7.912 1.298-.967.33-2.658.85-3.077 1.203 1.214-.48 1.102-.128.023.287-.297.002-.11.22-.024.133zm58.143-.047c.4-.627.074-1.706-.594-1.894.093.62.437 1.51.594 1.894zm-63.494-.03c.502-.178 1.552-.757.306-.516-.447-.02-1.16.454-.306.516zm92.875 0c-.198-.29-1.37-.376-.123-.516.18-.506-1.676-.47-.756-.928-.814-.147-.795-.66-1.185-1.013.607-.147 3.714.203 1.873-.295-.46.03-2.274-.54-.88-.42 1.442-.04-1.154-.3-1.624-.363-1.276-.45-2.714.882-1.625 1.98.958 1.43 2.873 1.207 4.32 1.555zm-1.772-2.8c-.12-.226.165.058 0 0zm24.583 2.752c-.594-.387-1.904-.598-2.344-.678.77.287 1.556.487 2.344.678zm1.517-.058c-.628-.49-.538-.116 0 0zm-57.817-.094c.576-.46.133-1.245-.144-.392l.005.43.14-.038zm-31.542-.03c2.08.083 5.253-.082 5.8-2.656.55-1.76-2.075-1.216-3.077-1.166-1.385.328-2.965.423-4.216.983.565.001 2.705-.526 1.35-.03-.205.525 2.093-.46 1.796.19-1.27.506 1.595.098 2.045.096 1.333.134-1.052.537-1.53.61-.592.064-2.183.516-.707.325.89-.118 1.253.044.306.306-.633.152-2.24.552-.67.516 1.097.13-.93.487-1.395.61-.878.18-.126.2.306.212zm1.758-.7c.043-.185.193.07 0 0zM8 17.23c.744-.52 1.596-1.132 2.217-1.7-.58.02-1.644.738-1.835.428 1.212-.646-.94-.398-.755.25 1.535-.056-.943.696.373 1.022zm1.26-.076c.7-.08 1.25-.945.172-.478-.357.004-.805.5-.172.478zm15.995 0c-.05-.07-.05.07 0 0zm101.436-.076c-.05-.07-.05.07 0 0zm-.115-.038c-.05-.07-.05.07 0 0zm8.14 0c.545-.425-1.984-1.267-.726-.382.237.116.49.344.726.382zm-6.42-.19c-.026-.318-.882-.32-.096-.02zm-60.13-.104c.746-.307.76-1.444.01-.526-.07.104-.28.655-.01.526zm55.237-.03c-.445-.256-2.04-.553-.803-.172.25.066.574.217.803.172zm12.012-.104c-.14-.57-1.597-.88-.473-.164.14.1.282.247.473.164zm-29.88-.03c.875-.382-.968-.923-.296.016l.148.001.148-.018zm19.78.008c-.53-.34-1.845-.41-.63-.104.198.077.426.098.63.104zm-9.154-.046c-.05-.07-.05.07 0 0zm-9.22-.18c.672-.87-1.292-.817-.507.047.147-.012.41.154.507-.047zm20.59.066c-.206-.13-.265.016 0 0zm-5.714-.145c-.623-.182-1.945-.678-2.102-.505.706.13 1.387.44 2.102.505zm2.16-.038c-.068-.242-.354.155 0 0zm11.916-.036c-.124-.592-1.8-.876-.603-.125.2.097.373.266.603.125zM15.07 16.16c3.02-1.724 6.294-2.876 9.7-3.523-2.37-.095-4.733.856-7.063 1.354.743-.574-.922.05-1.338.24-.965.42-2.87.93-3.173 1.356.857-.295-.814.77.268.287 1.685-.6 3.442-1.177 5.037-1.834-.386.667-1.854.756-2.63 1.28-.48.118-1.976.913-.696.478.86-.318-.057.166-.275.352l.168.01zm2.33-2.102c.102-.127.206.047 0 0zm53.726 2.097c.54.13 2.034-1.104 1.062-.78-.323.218-2.03.803-1.062.78zm52.62.005c-.268-.195-.745.004 0 0zm5.236-.038c.9-.14-.844-.622-1.204-.82-1.626-.514-3.548-1.266-5.045-1.452.473.252 1.65.295 1.67.673-.467-.21-1.903-.383-.734-.043 1.79.462 3.615.992 5.313 1.643zm-4.013-1.53c.05-.07.05.07 0 0zm-1.873 1.403c-.356-.248-2.482-.628-1.166-.276.366.122.793.265 1.166.276zm-85.64-.113c.552-1.055-1.41-.345-.225.105h.12zm33.127.028c-.62-.656-1.19-.574-.248-.038.082 0 .178.14.248.038zm9.307.02c4.546-1.8 9.32-2.89 14.066-4.048 4.1-.523 8.237-1.108 12.345-1.375 1.7-.32-1.18-.14-1.758-.038-4.67.2-9.327 1.144-13.908 1.814-3.632.98-7.337 1.95-10.74 3.6-.2.024-.042.116-.004.057zm46.456-.076c-.134-.265-1.272-.48-.325-.095.1.023.27.225.325.095zm-90.437-.066c.83-1.23-1.487-.745-.297.028l.125.02.172-.047zm100.527.028c.092-.67-1.934-.816-.573-.2.18.078.36.28.573.2zm-4.395-.134c-2.745-1.22-6.105-2.274-8.752-2.73 2.942.71 5.815 1.722 8.657 2.77l.096-.038zm6.46.02c.525-.482-.968-1.212-1.487-1.433-.468-.208-1.557-.9-1.65-.726 1.1.632 2.055 1.593 3.138 2.16zM7.274 15.662c.763-.24.523-.923-.15-.363-.386.16-.178.45.15.363zm55.59-.096c-2.498-1.47-5.36-2.19-8.065-3.19-5.407-1.273-11.06-1.997-16.55-1.997 5.782.373 11.658.947 17.2 2.818 2.48.685 5.006 1.56 7.415 2.368zm74.376-.336c-.274-.543-1.943-.694-.822-.16.25.034.666.357.822.16zM6.72 15.223c.923-.224.924-1.205-.125-1.08-.126-.944-2.023-.01-1.652.372.598.338 1.16.223 1.64.745l.138-.038zm64.687-.115c1.398-1.646-.356.417-1.013-.478-.39.08.836.67 1.013.478zm7.682-.02c.537-.224 1.422-1.102.424-.363-.006.026-.705.44-.424.363zm34.13-.038c-.452-.46-2.463-.34-2.427-1.586.993-1.192 2.83-.653 4.147-.974 1.124-.038-.94-.32-1.32-.363-1.288-.03-3.184-.477-4.11.134.78.11-1.127.617.603.554.128.33-1.6.25-.986.707-1.528.18.9.262-.23.478-1.247.353 1.048.95 1.567.82.943.066 1.843.215 2.752.23zm-2.37-2.158c-.094-.362.323.175 0 0zm-100.633 2.08c2.933-1.06 5.927-1.927 8.906-2.864 1.63-.36 3.632-.232 4.988-1.05-3.203.552-6.417 1.14-9.536 2.062-1.52.573-3.144 1.015-4.55 1.814.033.156.138-.007.19.038zm52.916-.01c-2.112-1.74-4.596-2.964-6.9-4.443-.9-.082-.635.37.096.554 2.357 1.13 4.605 2.535 6.803 3.89zm60.77.018c-.34-.218-.284.003 0 0zM3.987 14.86c.636-.282.776-1.2-.057-.63-.267.167-.627.764.057.63zm127.253-.038c-2.8-.96-5.818-2.5-8.676-2.464 2.944.58 5.9 1.64 8.676 2.464zm-8.294-.183c-.538-.408-1.746-.847-2.083-.772.708.2 1.393.564 2.083.772zm15.976-.037c-.36-.713-1.504-.644-.46-.086.143.057.303.21.46.086zm-128.668-.086c2.303-1.096 4.74-1.668 7.11-2.53-2.454.605-4.893 1.41-7.198 2.462-.056.105.06.027.09.068zm19.053-.19c1.378-.467 3.663.06 4.5-.63.423-.496-.712-.737-.344-1.05.9.02-.777-.49-.353-1.157-2.024-.4-4.118.078-6.098.526.09.62.552.214 1.253.153.932.045 2.478-.087 2.828.946-.545.72-1.51.742-2.217 1.194.107.166.3-.07.42.02zM131.9 14.24c-.02-.2-.216.045 0 0zm-51.417-.05c1.197-.672-.44-.038 0 0zm59.104.006c-.204-.59-1.707-.913-.624-.236.188.113.382.315.624.236zm-5.863-.075c-1.496-.67-3.34-1.397-4.816-1.536.41.22 2.134.547 1.032.565 1.207.528 2.5.9 3.784.97zm-1.376-.276c.046-.133.046.133 0 0zm-1.62-.564c0-.14.214.077 0 0zm-23.357.774c.876-.647.483-2.23-.718-2.236-.705.64.634.67.64.877.32.493-1.234.98.076 1.358zm24.136 0c-.768-.43-.927-.18 0 0zM3.834 13.98c1.077-.276.447-1.397-.344-.898-1.146.623.318.447.63.23-.044.228-1.11.606-.286.67zm79 0c1.224-.583 2.514-1.34 3.637-1.915-1.214.512-2.88 1.125-3.637 1.915zm-11.742-.046c-.364-.69 1.082-2.48-.096-1.82.27.52-.116 1.406.096 1.82zm2.16 0c.764-.552-.738-2.033-.317-.87.17.226-.144.943.317.87zm67.314-.068c-.278-.5-1.54-.778-.54-.134.158.114.337.2.54.134zm-71.74-.057c.283-.538.613-1.965-.19-.837-.18.248-.125.828.19.837zM9.606 13.75c1.076-.528 2.45-.865 3.364-1.432-1.075.36-2.846.722-3.364 1.432zm124.807.01c-2.097-1.235-4.466-1.82-6.784-2.55-.843-.148-2.216-.598-2.714-.382 3.167.933 6.43 1.72 9.498 2.93zm-53.145-.047c3.38-1.924 6.896-3.7 10.665-4.756.685-.59-.96.2-1.414.267-3.113 1.108-6.32 2.162-8.983 4.202-.122.037-.6.392-.267.287zm-62.86-.085c.014-.232-.32.14 0 0zm112.03.008c-.24-.13-.347.07 0 0zm-24.442-.038c1.028-.754-1.416-.67 0 0zm-71.108-.038c1.165-.743-1.183-.957-.248-.02l.138.038.1-.02zm37.322-.038c.35-.58-.176-2.16-.516-.8.307.19.178.698.516.8zm-53.355-.038c.354-.236-.338.076 0 0zm122.4-.03c-.276-.605-1.782-.795-.726-.258.226.098.463.4.726.258zm-132.298-.01c3.603-1.034 6.987-2.73 10.664-3.59 1.154-.094.026-.568 1.108-.554.74-.116 2.004-.385 2.418-.085-1.234.454-2.89.52-3.9 1.078 1.603-.265 3.134-.465 4.663-.936 1.097.164 2.347.04 3.335.582.336 1.07-2.15.613-1.902 1.042 2.037-.494 4.294-.2 6.206-1.03.28-.712-1.354-.632-1.925-.84-2.428-.363-4.9.257-7.262-.23-1.11.09-3.17.216-3.784.573.613-.126 2.01.012.65.172-3.73.843-7.618 1.3-11.075 2.97.677.28 1.61-.722 2.49-.734 1.02-.183 2.815-.912 3.3-.745-1.837.625-3.696 1.236-5.4 2.158.64-.08.416-.017.382.172zM14.154 11c.114-.118.313.026 0 0zm.3-.05c.2-.28.482.043 0 0zm.703-.2c.15-.14.15.14 0 0zM2.63 13.274c.427-.366 1.106-.478.554-.796.346-.96-2.378.876-.726.375.12.188-.3.616.172.42zm16.95-.057c-.05-.07-.05.07 0 0zm.42-.115c-.1-.07-.1.07 0 0zm114.64-.02c-.222-.23-.144.1 0 0zm7.262-.038c-.406-1.762-2.745-1.53-4.005-2.407-.456-.563-1.605-.885-.8-.076 1.733.58 3.172 1.877 4.816 2.484zm-121.482-.02c.608-.22-.696.052 0 0zm15.575 0c2.025-.204 4.148-.322 6.21-.63.902.123 1.07-.655.19-.726-1.758-.48-3.708-.773-5.466-.344.828.522.332.357.44.68-.447.592 2.706-.1 1.185.4-.908.074-1.944.852-2.484-.19-.587-.25-.43.857-.076.802zm22.626.01c-2.067-1.038-4.15-2.102-6.402-2.664.473.33 1.745.787 2.542 1.09 1.326.413 2.55 1.158 3.86 1.575zm44.087-.123c-.296-.516 2.973-.418.994-.726-1.498-.396 2.476-.443.63-.67-1.568.357-3.56-.406-4.835.773-.187 1.17 2.672.34 3.2.62zm20.16-.153c-.166-.133-.254.067 0 0zM6.74 12.682c.676-.123.888-.713.077-.248-.13.042-.5.31-.077.248zm15.116-.038c1.1-.268 2.554-.203 3.44-.517-1.036.001-2.995.17-3.564.536l.124-.02zm13.033-.115c.95-.807-1.407-.788 0 0zm-33.175-.096c.71-.47 1.796-1.46 2.12-1.796-.917.294-2.246.807-2.44 1.79.022.227.3-.1.32.005zm106.702-.027c.568-1.42-1.24-.125 0 0zm26.495-.164c-2.474-1.5-5.4-2.24-8.18-2.712 2.62.728 5.243 1.458 7.72 2.616.156.018.3.21.46.096zm-16.37-.215c1.342-.162-1.146-.23-1.7-.568-.723-.153-2.225-.587-1.395-1.356 1.235-.154 2.842-.043 4-.197-2.903-.203-5.93-.32-8.797.168.15.863 1.88.356 2.666.89 1.69.497 3.435 1.068 5.206 1.065zm-31.883-.033c-.05-.07-.05.07 0 0zM17.9 11.88c1.32-.467-.85.097 0 0zm16.56-.066c.372-1.42-1.483.084 0 0zm36.318.036c-.44-.657-.503-.338 0 0zm-51.368-.104c.882-.07 1.542-.606.268-.382-.907.063-1.118.308-.268.382zm16.51.02c.96-.68-1.247-.76-.115 0l.057.02.057-.02zm99.066.008c-.415-.334-1.377-.586-.44-.142.144.038.29.158.44.142zm.688-.038c-.47-.328-1.616-.884-1.74-.753.57.267 1.126.63 1.74.753zm.47-.322c-1.46-.97-3.435-1.475-5.094-2.283-.555-.127-1.534-.612-.382-.306 1.114.332 2.922.876 3.63 1.012-2.645-.824-5.275-1.865-8.064-1.9.843.318 2.44.07 3 .638-.604-.154-2.663-.405-1.204-.02 2.836.53 5.38 2.028 8.114 2.856zM129.56 8.63c-.653-.2.6-.03 0 0zM6.128 11.363c.457-.66-.4-.287-.135-.688-1.184.277.22-.636.747-.707.713-.337 1.973-.772 2.332-1.05-1.475.61-3.107 1.033-4.357 2.044.253.574.954-.042 1.414.4zm127.865-.057c-.05-.07-.05.07 0 0zM8.344 11.23c.612-.525-.843.068 0 0zm125.495.01c-.23-.248-.253.054 0 0zm-40.265-.085c1.21-.566 2.653-.905 3.72-1.596-1.374.328-2.984.433-4.158 1.195-.37.5.212.275.44.4zm-84.543-.19c3.994-1.214 8.057-2.43 12.193-3.017-2.217.08-4.447.58-6.612.916-2.038.556-4.194 1.02-6 2.1l.2.01.2-.02zm40.456 0c1.446.498 1.22-.802.2-.86-1.348-.097-2.766-.656-4.07-.516 1.005.73 2.64 1.166 3.86 1.376zm86.96-.008c-.2-.475-1.626-.828-.546-.297.182.083.34.318.546.297zm-66.112-.087c.618-.306.644-2.108-.038-.88-.067.27-.666.993.038.88zm1.74-.134c.348-.547-.65-1.756-.478-.516.065.272.086.673.478.516zm52.63-.038c-.47-.262-.597.004 0 0zm-55.457-.134c-.954-2.71-3.883-3.728-6.402-4.28-1.683-.912-3.256-2.338-3.497-4.33-.842-.36-.286 1.567.02 2.112 1.34 1.97 3.625 2.84 5.848 3.248 1.8.4 2.873 2.28 4.032 3.25zm-62.585-.145c-.04-.185-.198.072 0 0zm29.525.01c1.02.116-.073-.4 0 0zm62.853 0c2.063-.69 4.25-.628 6.356-1.116-.522-.25-2.115.394-2.342.008.756-.534 1.63-.907 2.523-1.09-2.4.23-4.937.545-7.14 1.604-.677.438.1.784.603.592zm-7.912-.038c.705-.24-.412.016 0 0zm-56.05-.038c.55-.19-.86-.022 0 0zm.622-.008c.015-.21-.82-.034 0 0zm1.365.016c-.154-.134-.33.087 0 0zm15.02-.027c-.672-.32-.59.03 0 0zm3.643.01c-1.996-1.077-4.41-1.592-6.568-2.454 1 .633 2.7.886 3.842 1.7.855.47 1.783.72 2.726.754zm17.75-.076c1.282-2.472 4.15-2.902 6.564-3.487 1.944-.7 3.394-2.658 3.287-4.71-.82-.25-.87 1.472-1.146 2.124-1.274 2.758-4.637 2.707-6.99 3.848-.74.508-1.97 1.467-1.838 2.312l.125-.086zm61.85.056c-.356-.3-.443-.145 0 0zm-92.263-.047c.92.432 1.97-.588.84-1.108-1.39-.965-3.13-.57-4.663-1.184-.87-.102-1.973-.466-2.714-.314.403.543 2.05.273 1.987.81-.52-.126-2.496-.023-1.108.287 1.863.526 3.76.898 5.58 1.528l.076-.02zM7.58 10.008c.392-.123 2.025-.922 1.147-.325-.618.46.992-.264 1.357-.42.488-.13 1.848-.568 1.663-.63-.893.382-1.718.36-.363-.057 1.56-.542 3.133-1.03 4.76-1.307-1.873.022-4.036.483-5.62 1.23.823-.28 1-.026.134.19-1.035.308-2.38.713-3.077 1.318zm1.873-.612c-.08-.088-.065-.07 0 0zm.688-.325c.098-.137.098.137 0 0zm126.654.813c-2.446-1.964-5.628-2.4-8.592-3.18-8.784-1.265-17.757-.807-26.48.673-2.615.252-5.287.686-7.756 1.58-.548.9 1.162.085 1.635-.057 5.486-1.537 11.233-1.973 16.836-2.425 7.6-.313 15.564-.27 22.737 2.635.526.26 1.05.682 1.62.774zM5.516 9.358c2.004-.757 3.85-1.936 6.058-2.043 4.267-.84 8.537-1.336 12.88-1.203 3.973-.14 7.87.324 11.886.496 4.018.624 8.018 1.465 11.963 2.387 1.377.035.194-1.095-.535-1.013-6.104-1.217-12.25-2.24-18.46-2.406-7.156-.205-14.8-.195-21.59 2.3-.665.532-1.997.662-2.202 1.47zm103.805-.153c4.13-.752 8.266-.815 12.422-.603-.63-.423-2.377-.062-2.37-.696 1.852-.655 3.9.474 5.688.047-4.462-1.196-9.11-.873-13.638-.105-.994.22-2.9-.23-3.172.965.217.36.695.424 1.07.39zm-76.115-.382c1.14-.07.77-1.54-.268-1.395-2.6-.485-5.144-.562-7.76-.496-2.17.173-4.706-.414-6.728.345.913.444 2.842-.293 4.167.2 1.136.497-2.237.37-.612.46 2.745-.005 5.662-.08 8.314.42.958-.057 1.88.645 2.884.478zM12.472 8.48c.276-.113-.277.034 0 0zm1.3-.344c.805-.196-.35.038 0 0zm82.48-.764c5.055-.808 10.178-1.417 15.288-1.833 5.316-.07 10.754-.1 16.052.745-.6-.466-2.31-.33-3.306-.63-5.247-.703-10.526-.65-15.766-.496-4.166.476-8.425.374-12.574 1.146-.824.15-.382 1.24.306 1.07zm-49.63-.344c1.187-.388-.587-1.094-1.147-1.184-7.747-1.425-15.707-1.68-23.505-1.375-1.69.27-3.438.256-5.064.82 1.38.368 3.29-.45 4.892-.248 3.9-.317 7.806-.054 11.676.115 3.943.478 7.91 1.016 11.79 1.852.45.033.905.057 1.357.02zm81.332-1.91c-3.477-1.266-7.217-1.767-10.874-2.368-4.418-.455-9.013-.234-13.454.573-1.223.503-2.707.54-3.784 1.28 3.506.056 7.062-.718 10.55-.67 5.867-.486 11.88.11 17.562 1.184zm-114.373 0C18.772 4.1 24.033 3.143 29.346 3.72l9.04.496c1.223.16 2.466.415 3.68.42.013-.848-1.48-.757-2.15-1.108-5.067-1.58-10.41-.928-15.65-.668-3.653.446-7.414.72-10.885 2.005-.197.183.07.316.202.25zm11.256-2.98c-.05-.197-.137.116 0 0zm42.92 75.504c.098-.137.098.137 0 0zm-12.65-7.74c-.185-.156.266-.132 0 0z"/></svg>